<?xml version="1.0" encoding="utf-8" standalone="no"?>
<!DOCTYPE svg PUBLIC "-//W3C//DTD SVG 1.1//EN"
  "http://www.w3.org/Graphics/SVG/1.1/DTD/svg11.dtd">
<svg xmlns:xlink="http://www.w3.org/1999/xlink" width="760.2815pt" height="519.115937pt" viewBox="0 0 760.2815 519.115937" xmlns="http://www.w3.org/2000/svg" version="1.1">
 <metadata>
  <rdf:RDF xmlns:dc="http://purl.org/dc/elements/1.1/" xmlns:cc="http://creativecommons.org/ns#" xmlns:rdf="http://www.w3.org/1999/02/22-rdf-syntax-ns#">
   <cc:Work>
    <dc:type rdf:resource="http://purl.org/dc/dcmitype/StillImage"/>
    <dc:date>2026-01-20T09:22:13.332988</dc:date>
    <dc:format>image/svg+xml</dc:format>
    <dc:creator>
     <cc:Agent>
      <dc:title>Matplotlib v3.9.2, https://matplotlib.org/</dc:title>
     </cc:Agent>
    </dc:creator>
   </cc:Work>
  </rdf:RDF>
 </metadata>
 <defs>
  <style type="text/css">*{stroke-linejoin: round; stroke-linecap: butt}</style>
 </defs>
 <g id="figure_1">
  <g id="patch_1">
   <path d="M 0 519.115937 
L 760.2815 519.115937 
L 760.2815 -0 
L 0 -0 
z
" style="fill: #ffffff"/>
  </g>
  <g id="axes_1">
   <g id="patch_2">
    <path d="M 290.613102 174.852464 
C 275.560884 192.791 264.594579 213.794445 258.478592 236.398759 
C 252.362606 259.003074 251.242421 282.670556 255.19612 305.75147 
C 259.14982 328.832385 268.083355 350.777691 281.374015 370.057699 
C 294.664675 389.337706 311.996309 405.493789 332.160818 417.399792 
C 352.325327 429.305796 374.843046 436.678504 398.144385 439.004004 
C 421.445724 441.329505 444.976399 438.55248 467.09621 430.866501 
C 489.216022 423.180522 509.398793 410.76842 526.237689 394.495377 
C 543.076585 378.222334 556.171049 358.475448 564.608335 336.631168 
L 474.339784 301.765217 
C 470.96487 310.502929 465.727084 318.401684 458.991526 324.910901 
C 452.255967 331.420118 444.182859 336.384959 435.334934 339.45935 
C 426.487009 342.533742 417.07474 343.644552 407.754204 342.714352 
C 398.433669 341.784152 389.426581 338.835068 381.360777 334.072667 
C 373.294973 329.310266 366.36232 322.847832 361.046056 315.135829 
C 355.729792 307.423826 352.156378 298.645704 350.574898 289.413338 
C 348.993418 280.180972 349.441492 270.71398 351.887887 261.672254 
C 354.334282 252.630528 358.720803 244.22915 364.741691 237.053736 
z
" style="fill: #ffd700; stroke: #ffffff; stroke-linejoin: miter"/>
   </g>
   <g id="patch_3">
    <path d="M 564.608335 336.631168 
C 573.214791 314.348904 576.764503 290.43042 575.000229 266.609049 
C 573.235954 242.787678 566.201367 219.653096 554.406251 198.881827 
L 470.258951 246.665481 
C 474.976997 254.973988 477.790832 264.227821 478.496541 273.75637 
C 479.202251 283.284918 477.782366 292.852312 474.339784 301.765217 
z
" style="fill: #f1c40f; stroke: #ffffff; stroke-linejoin: miter"/>
   </g>
   <g id="patch_4">
    <path d="M 554.406251 198.881827 
C 546.64424 185.212879 536.925405 172.751846 525.558449 161.894533 
C 514.191492 151.037219 501.298051 141.899809 487.287665 134.772536 
L 443.411516 221.021764 
C 449.015671 223.872674 454.173047 227.527638 458.719829 231.870563 
C 463.266612 236.213489 467.154146 241.197901 470.258951 246.665481 
z
" style="fill: #f9e79f; stroke: #ffffff; stroke-linejoin: miter"/>
   </g>
   <g id="patch_5">
    <path d="M 487.287665 134.772536 
C 477.805832 129.948999 467.86997 126.075424 457.625356 123.208448 
C 447.380742 120.341472 436.877553 118.495137 426.269361 117.696439 
L 419.004194 214.191325 
C 423.247471 214.510805 427.448747 215.249339 431.546592 216.396129 
C 435.644438 217.54292 439.618783 219.09235 443.411516 221.021764 
z
" style="fill: #424949; stroke: #ffffff; stroke-linejoin: miter"/>
   </g>
   <g id="patch_6">
    <path d="M 426.269361 117.696439 
C 418.021194 117.075428 409.73746 117.089869 401.491509 117.739632 
C 393.245557 118.389395 385.061796 119.672557 377.012689 121.577757 
L 399.301526 215.743853 
C 402.521168 214.981773 405.794673 214.468508 409.093053 214.208603 
C 412.391434 213.948698 415.704927 213.942921 419.004194 214.191325 
z
" style="fill: #d4ac0d; stroke: #ffffff; stroke-linejoin: miter"/>
   </g>
   <g id="patch_7">
    <path d="M 377.012689 121.577757 
C 373.235986 122.471692 369.492781 123.501659 365.790386 124.665648 
C 362.08799 125.829637 358.428816 127.126889 354.820011 128.55487 
L 390.424454 218.534698 
C 391.867976 217.963506 393.331646 217.444605 394.812604 216.979009 
C 396.293562 216.513414 397.790844 216.101427 399.301526 215.743853 
z
" style="fill: #fcf3cf; stroke: #ffffff; stroke-linejoin: miter"/>
   </g>
   <g id="patch_8">
    <path d="M 354.820011 128.55487 
C 351.525075 129.858655 348.274002 131.270677 345.072087 132.788635 
C 341.870171 134.306594 338.719153 135.929665 335.624161 137.655205 
L 382.746115 222.174832 
C 383.984111 221.484616 385.244519 220.835387 386.525285 220.228204 
C 387.806051 219.621021 389.10648 219.056212 390.424454 218.534698 
z
" style="fill: #1b2631; stroke: #ffffff; stroke-linejoin: miter"/>
   </g>
   <g id="patch_9">
    <path d="M 335.624161 137.655205 
C 333.413551 138.887679 331.232259 140.172019 329.082098 141.507158 
C 326.931937 142.842297 324.813502 144.227864 322.728553 145.662709 
L 377.587871 225.377834 
C 378.421851 224.803896 379.269225 224.249669 380.129289 223.715613 
C 380.989354 223.181558 381.861871 222.667822 382.746115 222.174832 
z
" style="fill: #bdc3c7; stroke: #ffffff; stroke-linejoin: miter"/>
   </g>
   <g id="patch_10">
    <path d="M 322.728553 145.662709 
C 320.643605 147.097554 318.592721 148.581279 316.577606 150.112651 
C 314.56249 151.644022 312.583702 153.222617 310.642884 154.847122 
L 372.753604 229.051599 
C 373.529931 228.401797 374.321446 227.770359 375.127492 227.15781 
C 375.933538 226.545262 376.753892 225.951772 377.587871 225.377834 
z
" style="fill: #7f8c8d; stroke: #ffffff; stroke-linejoin: miter"/>
   </g>
   <g id="patch_11">
    <path d="M 310.642884 154.847122 
C 308.960862 156.255011 307.307736 157.697067 305.684539 159.172391 
C 304.061342 160.647715 302.468412 162.156 300.906742 163.696305 
L 368.859147 232.591272 
C 369.483815 231.97515 370.120987 231.371836 370.770266 230.781706 
C 371.419545 230.191577 372.080795 229.614754 372.753604 229.051599 
z
" style="stroke: #ffffff; stroke-linejoin: miter"/>
   </g>
   <g id="patch_12">
    <path d="M 300.906742 163.696305 
C 299.825606 164.76265 298.759583 165.844211 297.708994 166.940665 
C 296.658405 168.037118 295.623354 169.148355 294.60415 170.274043 
L 366.33811 235.222367 
C 366.745792 234.772092 367.159812 234.327597 367.580048 233.889016 
C 368.000283 233.450434 368.426692 233.01781 368.859147 232.591272 
z
" style="fill: #f7dc6f; stroke: #ffffff; stroke-linejoin: miter"/>
   </g>
   <g id="patch_13">
    <path d="M 294.60415 170.274043 
C 293.924688 171.024494 293.252306 171.781326 292.587094 172.544438 
C 291.921883 173.307551 291.263871 174.076909 290.613146 174.852412 
L 364.741708 237.053715 
C 365.001998 236.743514 365.265203 236.43577 365.531288 236.130525 
C 365.797372 235.82528 366.066325 235.522548 366.33811 235.222367 
z
" style="fill: #2c3e50; stroke: #ffffff; stroke-linejoin: miter"/>
   </g>
   <g id="matplotlib.axis_1"/>
   <g id="matplotlib.axis_2"/>
   <g id="patch_14">
    <path d="M 192.366356 472.951209 
L 299.360845 472.951209 
L 331.145828 419.118821 
" style="fill: none; stroke: #000000; stroke-linecap: round"/>
   </g>
   <g id="text_1">
    <!-- Hidráulica (55.30%) -->
    <g transform="translate(73.299687 476.31449) scale(0.14 -0.14)">
     <defs>
      <path id="TimesNewRomanPSMT-48" d="M 1316 2272 
L 3284 2272 
L 3284 3484 
Q 3284 3809 3244 3913 
Q 3213 3991 3113 4047 
Q 2978 4122 2828 4122 
L 2678 4122 
L 2678 4238 
L 4491 4238 
L 4491 4122 
L 4341 4122 
Q 4191 4122 4056 4050 
Q 3956 4000 3920 3898 
Q 3884 3797 3884 3484 
L 3884 750 
Q 3884 428 3925 325 
Q 3956 247 4053 191 
Q 4191 116 4341 116 
L 4491 116 
L 4491 0 
L 2678 0 
L 2678 116 
L 2828 116 
Q 3088 116 3206 269 
Q 3284 369 3284 750 
L 3284 2041 
L 1316 2041 
L 1316 750 
Q 1316 428 1356 325 
Q 1388 247 1488 191 
Q 1622 116 1772 116 
L 1925 116 
L 1925 0 
L 109 0 
L 109 116 
L 259 116 
Q 522 116 641 269 
Q 716 369 716 750 
L 716 3484 
Q 716 3809 675 3913 
Q 644 3991 547 4047 
Q 409 4122 259 4122 
L 109 4122 
L 109 4238 
L 1925 4238 
L 1925 4122 
L 1772 4122 
Q 1622 4122 1488 4050 
Q 1391 4000 1353 3898 
Q 1316 3797 1316 3484 
L 1316 2272 
z
" transform="scale(0.015625)"/>
      <path id="TimesNewRomanPSMT-69" d="M 928 4444 
Q 1059 4444 1151 4351 
Q 1244 4259 1244 4128 
Q 1244 3997 1151 3903 
Q 1059 3809 928 3809 
Q 797 3809 703 3903 
Q 609 3997 609 4128 
Q 609 4259 701 4351 
Q 794 4444 928 4444 
z
M 1188 2947 
L 1188 647 
Q 1188 378 1227 289 
Q 1266 200 1342 156 
Q 1419 113 1622 113 
L 1622 0 
L 231 0 
L 231 113 
Q 441 113 512 153 
Q 584 194 626 287 
Q 669 381 669 647 
L 669 1750 
Q 669 2216 641 2353 
Q 619 2453 572 2492 
Q 525 2531 444 2531 
Q 356 2531 231 2484 
L 188 2597 
L 1050 2947 
L 1188 2947 
z
" transform="scale(0.015625)"/>
      <path id="TimesNewRomanPSMT-64" d="M 2222 322 
Q 2013 103 1813 7 
Q 1613 -88 1381 -88 
Q 913 -88 563 304 
Q 213 697 213 1313 
Q 213 1928 600 2439 
Q 988 2950 1597 2950 
Q 1975 2950 2222 2709 
L 2222 3238 
Q 2222 3728 2198 3840 
Q 2175 3953 2125 3993 
Q 2075 4034 2000 4034 
Q 1919 4034 1784 3984 
L 1744 4094 
L 2597 4444 
L 2738 4444 
L 2738 1134 
Q 2738 631 2761 520 
Q 2784 409 2836 365 
Q 2888 322 2956 322 
Q 3041 322 3181 375 
L 3216 266 
L 2366 -88 
L 2222 -88 
L 2222 322 
z
M 2222 541 
L 2222 2016 
Q 2203 2228 2109 2403 
Q 2016 2578 1861 2667 
Q 1706 2756 1559 2756 
Q 1284 2756 1069 2509 
Q 784 2184 784 1559 
Q 784 928 1059 592 
Q 1334 256 1672 256 
Q 1956 256 2222 541 
z
" transform="scale(0.015625)"/>
      <path id="TimesNewRomanPSMT-72" d="M 1038 2947 
L 1038 2303 
Q 1397 2947 1775 2947 
Q 1947 2947 2059 2842 
Q 2172 2738 2172 2600 
Q 2172 2478 2090 2393 
Q 2009 2309 1897 2309 
Q 1788 2309 1652 2417 
Q 1516 2525 1450 2525 
Q 1394 2525 1328 2463 
Q 1188 2334 1038 2041 
L 1038 669 
Q 1038 431 1097 309 
Q 1138 225 1241 169 
Q 1344 113 1538 113 
L 1538 0 
L 72 0 
L 72 113 
Q 291 113 397 181 
Q 475 231 506 341 
Q 522 394 522 644 
L 522 1753 
Q 522 2253 501 2348 
Q 481 2444 426 2487 
Q 372 2531 291 2531 
Q 194 2531 72 2484 
L 41 2597 
L 906 2947 
L 1038 2947 
z
" transform="scale(0.015625)"/>
      <path id="TimesNewRomanPSMT-e1" d="M 1822 413 
Q 1381 72 1269 19 
Q 1100 -59 909 -59 
Q 613 -59 420 144 
Q 228 347 228 678 
Q 228 888 322 1041 
Q 450 1253 767 1440 
Q 1084 1628 1822 1897 
L 1822 2009 
Q 1822 2438 1686 2597 
Q 1550 2756 1291 2756 
Q 1094 2756 978 2650 
Q 859 2544 859 2406 
L 866 2225 
Q 866 2081 792 2003 
Q 719 1925 600 1925 
Q 484 1925 411 2006 
Q 338 2088 338 2228 
Q 338 2497 613 2722 
Q 888 2947 1384 2947 
Q 1766 2947 2009 2819 
Q 2194 2722 2281 2516 
Q 2338 2381 2338 1966 
L 2338 994 
Q 2338 584 2353 492 
Q 2369 400 2405 369 
Q 2441 338 2488 338 
Q 2538 338 2575 359 
Q 2641 400 2828 588 
L 2828 413 
Q 2478 -56 2159 -56 
Q 2006 -56 1915 50 
Q 1825 156 1822 413 
z
M 1822 616 
L 1822 1706 
Q 1350 1519 1213 1441 
Q 966 1303 859 1153 
Q 753 1003 753 825 
Q 753 600 887 451 
Q 1022 303 1197 303 
Q 1434 303 1822 616 
z
M 2134 4344 
L 1212 3266 
L 1106 3266 
L 1434 4344 
L 2134 4344 
z
" transform="scale(0.015625)"/>
      <path id="TimesNewRomanPSMT-75" d="M 2709 2863 
L 2709 1128 
Q 2709 631 2732 520 
Q 2756 409 2807 365 
Q 2859 322 2928 322 
Q 3025 322 3147 375 
L 3191 266 
L 2334 -88 
L 2194 -88 
L 2194 519 
Q 1825 119 1631 15 
Q 1438 -88 1222 -88 
Q 981 -88 804 51 
Q 628 191 559 409 
Q 491 628 491 1028 
L 491 2306 
Q 491 2509 447 2587 
Q 403 2666 317 2708 
Q 231 2750 6 2747 
L 6 2863 
L 1009 2863 
L 1009 947 
Q 1009 547 1148 422 
Q 1288 297 1484 297 
Q 1619 297 1789 381 
Q 1959 466 2194 703 
L 2194 2325 
Q 2194 2569 2105 2655 
Q 2016 2741 1734 2747 
L 1734 2863 
L 2709 2863 
z
" transform="scale(0.015625)"/>
      <path id="TimesNewRomanPSMT-6c" d="M 1184 4444 
L 1184 647 
Q 1184 378 1223 290 
Q 1263 203 1344 158 
Q 1425 113 1647 113 
L 1647 0 
L 244 0 
L 244 113 
Q 441 113 512 153 
Q 584 194 625 287 
Q 666 381 666 647 
L 666 3247 
Q 666 3731 644 3842 
Q 622 3953 573 3993 
Q 525 4034 450 4034 
Q 369 4034 244 3984 
L 191 4094 
L 1044 4444 
L 1184 4444 
z
" transform="scale(0.015625)"/>
      <path id="TimesNewRomanPSMT-63" d="M 2631 1088 
Q 2516 522 2178 217 
Q 1841 -88 1431 -88 
Q 944 -88 581 321 
Q 219 731 219 1428 
Q 219 2103 620 2525 
Q 1022 2947 1584 2947 
Q 2006 2947 2278 2723 
Q 2550 2500 2550 2259 
Q 2550 2141 2473 2067 
Q 2397 1994 2259 1994 
Q 2075 1994 1981 2113 
Q 1928 2178 1911 2362 
Q 1894 2547 1784 2644 
Q 1675 2738 1481 2738 
Q 1169 2738 978 2506 
Q 725 2200 725 1697 
Q 725 1184 976 792 
Q 1228 400 1656 400 
Q 1963 400 2206 609 
Q 2378 753 2541 1131 
L 2631 1088 
z
" transform="scale(0.015625)"/>
      <path id="TimesNewRomanPSMT-61" d="M 1822 413 
Q 1381 72 1269 19 
Q 1100 -59 909 -59 
Q 613 -59 420 144 
Q 228 347 228 678 
Q 228 888 322 1041 
Q 450 1253 767 1440 
Q 1084 1628 1822 1897 
L 1822 2009 
Q 1822 2438 1686 2597 
Q 1550 2756 1291 2756 
Q 1094 2756 978 2650 
Q 859 2544 859 2406 
L 866 2225 
Q 866 2081 792 2003 
Q 719 1925 600 1925 
Q 484 1925 411 2006 
Q 338 2088 338 2228 
Q 338 2497 613 2722 
Q 888 2947 1384 2947 
Q 1766 2947 2009 2819 
Q 2194 2722 2281 2516 
Q 2338 2381 2338 1966 
L 2338 994 
Q 2338 584 2353 492 
Q 2369 400 2405 369 
Q 2441 338 2488 338 
Q 2538 338 2575 359 
Q 2641 400 2828 588 
L 2828 413 
Q 2478 -56 2159 -56 
Q 2006 -56 1915 50 
Q 1825 156 1822 413 
z
M 1822 616 
L 1822 1706 
Q 1350 1519 1213 1441 
Q 966 1303 859 1153 
Q 753 1003 753 825 
Q 753 600 887 451 
Q 1022 303 1197 303 
Q 1434 303 1822 616 
z
" transform="scale(0.015625)"/>
      <path id="TimesNewRomanPSMT-20" transform="scale(0.015625)"/>
      <path id="TimesNewRomanPSMT-28" d="M 1988 -1253 
L 1988 -1369 
Q 1516 -1131 1200 -813 
Q 750 -359 506 256 
Q 263 872 263 1534 
Q 263 2503 741 3301 
Q 1219 4100 1988 4444 
L 1988 4313 
Q 1603 4100 1356 3731 
Q 1109 3363 987 2797 
Q 866 2231 866 1616 
Q 866 947 969 400 
Q 1050 -31 1165 -292 
Q 1281 -553 1476 -793 
Q 1672 -1034 1988 -1253 
z
" transform="scale(0.015625)"/>
      <path id="TimesNewRomanPSMT-35" d="M 2778 4238 
L 2534 3706 
L 1259 3706 
L 981 3138 
Q 1809 3016 2294 2522 
Q 2709 2097 2709 1522 
Q 2709 1188 2573 903 
Q 2438 619 2231 419 
Q 2025 219 1772 97 
Q 1413 -75 1034 -75 
Q 653 -75 479 54 
Q 306 184 306 341 
Q 306 428 378 495 
Q 450 563 559 563 
Q 641 563 702 538 
Q 763 513 909 409 
Q 1144 247 1384 247 
Q 1750 247 2026 523 
Q 2303 800 2303 1197 
Q 2303 1581 2056 1914 
Q 1809 2247 1375 2428 
Q 1034 2569 447 2591 
L 1259 4238 
L 2778 4238 
z
" transform="scale(0.015625)"/>
      <path id="TimesNewRomanPSMT-2e" d="M 800 606 
Q 947 606 1047 504 
Q 1147 403 1147 259 
Q 1147 116 1045 14 
Q 944 -88 800 -88 
Q 656 -88 554 14 
Q 453 116 453 259 
Q 453 406 554 506 
Q 656 606 800 606 
z
" transform="scale(0.015625)"/>
      <path id="TimesNewRomanPSMT-33" d="M 325 3431 
Q 506 3859 782 4092 
Q 1059 4325 1472 4325 
Q 1981 4325 2253 3994 
Q 2459 3747 2459 3466 
Q 2459 3003 1878 2509 
Q 2269 2356 2469 2072 
Q 2669 1788 2669 1403 
Q 2669 853 2319 450 
Q 1863 -75 997 -75 
Q 569 -75 414 31 
Q 259 138 259 259 
Q 259 350 332 419 
Q 406 488 509 488 
Q 588 488 669 463 
Q 722 447 909 348 
Q 1097 250 1169 231 
Q 1284 197 1416 197 
Q 1734 197 1970 444 
Q 2206 691 2206 1028 
Q 2206 1275 2097 1509 
Q 2016 1684 1919 1775 
Q 1784 1900 1550 2001 
Q 1316 2103 1072 2103 
L 972 2103 
L 972 2197 
Q 1219 2228 1467 2375 
Q 1716 2522 1828 2728 
Q 1941 2934 1941 3181 
Q 1941 3503 1739 3701 
Q 1538 3900 1238 3900 
Q 753 3900 428 3381 
L 325 3431 
z
" transform="scale(0.015625)"/>
      <path id="TimesNewRomanPSMT-30" d="M 231 2094 
Q 231 2819 450 3342 
Q 669 3866 1031 4122 
Q 1313 4325 1613 4325 
Q 2100 4325 2488 3828 
Q 2972 3213 2972 2159 
Q 2972 1422 2759 906 
Q 2547 391 2217 158 
Q 1888 -75 1581 -75 
Q 975 -75 572 641 
Q 231 1244 231 2094 
z
M 844 2016 
Q 844 1141 1059 588 
Q 1238 122 1591 122 
Q 1759 122 1940 273 
Q 2122 425 2216 781 
Q 2359 1319 2359 2297 
Q 2359 3022 2209 3506 
Q 2097 3866 1919 4016 
Q 1791 4119 1609 4119 
Q 1397 4119 1231 3928 
Q 1006 3669 925 3112 
Q 844 2556 844 2016 
z
" transform="scale(0.015625)"/>
      <path id="TimesNewRomanPSMT-25" d="M 4350 4334 
L 1263 -175 
L 984 -175 
L 4072 4334 
L 4350 4334 
z
M 1138 4334 
Q 1559 4334 1792 3984 
Q 2025 3634 2025 3181 
Q 2025 2638 1762 2341 
Q 1500 2044 1131 2044 
Q 884 2044 678 2180 
Q 472 2316 348 2584 
Q 225 2853 225 3181 
Q 225 3509 350 3786 
Q 475 4063 692 4198 
Q 909 4334 1138 4334 
z
M 1128 4159 
Q 969 4159 845 3971 
Q 722 3784 722 3184 
Q 722 2750 791 2522 
Q 844 2350 956 2256 
Q 1022 2200 1119 2200 
Q 1269 2200 1375 2363 
Q 1531 2603 1531 3166 
Q 1531 3759 1378 4000 
Q 1278 4159 1128 4159 
z
M 4206 2103 
Q 4428 2103 4648 1962 
Q 4869 1822 4989 1553 
Q 5109 1284 5109 963 
Q 5109 409 4843 117 
Q 4578 -175 4216 -175 
Q 3988 -175 3773 -34 
Q 3559 106 3436 367 
Q 3313 628 3313 963 
Q 3313 1291 3436 1562 
Q 3559 1834 3773 1968 
Q 3988 2103 4206 2103 
z
M 4209 1938 
Q 4059 1938 3950 1769 
Q 3809 1550 3809 941 
Q 3809 381 3953 159 
Q 4059 0 4209 0 
Q 4353 0 4466 172 
Q 4616 400 4616 956 
Q 4616 1544 4466 1778 
Q 4363 1938 4209 1938 
z
" transform="scale(0.015625)"/>
      <path id="TimesNewRomanPSMT-29" d="M 144 4313 
L 144 4444 
Q 619 4209 934 3891 
Q 1381 3434 1625 2820 
Q 1869 2206 1869 1541 
Q 1869 572 1392 -226 
Q 916 -1025 144 -1369 
L 144 -1253 
Q 528 -1038 776 -670 
Q 1025 -303 1145 264 
Q 1266 831 1266 1447 
Q 1266 2113 1163 2663 
Q 1084 3094 967 3353 
Q 850 3613 656 3853 
Q 463 4094 144 4313 
z
" transform="scale(0.015625)"/>
     </defs>
     <use xlink:href="#TimesNewRomanPSMT-48"/>
     <use xlink:href="#TimesNewRomanPSMT-69" x="72.216797"/>
     <use xlink:href="#TimesNewRomanPSMT-64" x="100"/>
     <use xlink:href="#TimesNewRomanPSMT-72" x="150"/>
     <use xlink:href="#TimesNewRomanPSMT-e1" x="183.300781"/>
     <use xlink:href="#TimesNewRomanPSMT-75" x="227.685547"/>
     <use xlink:href="#TimesNewRomanPSMT-6c" x="277.685547"/>
     <use xlink:href="#TimesNewRomanPSMT-69" x="305.46875"/>
     <use xlink:href="#TimesNewRomanPSMT-63" x="333.251953"/>
     <use xlink:href="#TimesNewRomanPSMT-61" x="377.636719"/>
     <use xlink:href="#TimesNewRomanPSMT-20" x="422.021484"/>
     <use xlink:href="#TimesNewRomanPSMT-28" x="447.021484"/>
     <use xlink:href="#TimesNewRomanPSMT-35" x="480.322266"/>
     <use xlink:href="#TimesNewRomanPSMT-35" x="530.322266"/>
     <use xlink:href="#TimesNewRomanPSMT-2e" x="580.322266"/>
     <use xlink:href="#TimesNewRomanPSMT-33" x="605.322266"/>
     <use xlink:href="#TimesNewRomanPSMT-30" x="655.322266"/>
     <use xlink:href="#TimesNewRomanPSMT-25" x="705.322266"/>
     <use xlink:href="#TimesNewRomanPSMT-29" x="788.623047"/>
    </g>
   </g>
   <g id="text_2">
    <!-- 55.3% -->
    <g transform="translate(333.410801 385.818125) scale(0.14 -0.14)">
     <defs>
      <path id="TimesNewRomanPS-BoldMT-35" d="M 975 4238 
L 2959 4238 
L 2644 3431 
L 975 3431 
L 816 3009 
Q 1894 2969 2475 2472 
Q 2953 2063 2953 1453 
Q 2953 1063 2731 689 
Q 2509 316 2106 114 
Q 1703 -88 1222 -88 
Q 703 -88 425 106 
Q 231 244 231 419 
Q 231 553 332 656 
Q 434 759 569 759 
Q 691 759 816 709 
Q 941 659 1244 447 
Q 1434 316 1572 266 
Q 1669 228 1791 228 
Q 2047 228 2226 415 
Q 2406 603 2406 866 
Q 2406 1416 1856 1759 
Q 1306 2103 469 2103 
Q 384 2103 216 2100 
L 975 4238 
z
" transform="scale(0.015625)"/>
      <path id="TimesNewRomanPS-BoldMT-2e" d="M 800 963 
Q 1019 963 1170 809 
Q 1322 656 1322 441 
Q 1322 225 1169 73 
Q 1016 -78 800 -78 
Q 584 -78 432 73 
Q 281 225 281 441 
Q 281 656 432 809 
Q 584 963 800 963 
z
" transform="scale(0.015625)"/>
      <path id="TimesNewRomanPS-BoldMT-33" d="M 947 2125 
L 947 2234 
Q 1303 2338 1440 2427 
Q 1578 2516 1678 2698 
Q 1778 2881 1778 3069 
Q 1778 3328 1589 3514 
Q 1400 3700 1119 3700 
Q 681 3700 375 3238 
L 259 3278 
Q 484 3800 836 4062 
Q 1188 4325 1619 4325 
Q 2059 4325 2345 4056 
Q 2631 3788 2631 3428 
Q 2631 3194 2498 2976 
Q 2366 2759 2081 2594 
Q 2447 2416 2639 2155 
Q 2831 1894 2831 1500 
Q 2831 838 2351 373 
Q 1872 -91 1066 -91 
Q 528 -91 281 88 
Q 103 213 103 409 
Q 103 553 206 654 
Q 309 756 444 756 
Q 547 756 638 713 
Q 688 688 992 439 
Q 1297 191 1563 191 
Q 1794 191 1959 373 
Q 2125 556 2125 838 
Q 2125 1266 1825 1627 
Q 1525 1988 947 2125 
z
" transform="scale(0.015625)"/>
      <path id="TimesNewRomanPS-BoldMT-25" d="M 4916 4334 
L 1906 -178 
L 1488 -178 
L 4494 4334 
L 4916 4334 
z
M 1494 4334 
Q 1938 4334 2242 4020 
Q 2547 3706 2547 3209 
Q 2547 2700 2240 2383 
Q 1934 2066 1481 2066 
Q 1034 2066 739 2372 
Q 444 2678 444 3178 
Q 444 3694 747 4014 
Q 1050 4334 1494 4334 
z
M 1494 4169 
Q 1425 4169 1381 4128 
Q 1303 4056 1264 3879 
Q 1225 3703 1225 3150 
Q 1225 2709 1278 2469 
Q 1309 2331 1384 2263 
Q 1431 2222 1494 2222 
Q 1563 2222 1603 2259 
Q 1675 2325 1709 2472 
Q 1763 2709 1763 3138 
Q 1763 3663 1713 3897 
Q 1678 4059 1600 4134 
Q 1563 4169 1494 4169 
z
M 4894 2097 
Q 5347 2097 5651 1786 
Q 5956 1475 5956 972 
Q 5956 463 5647 144 
Q 5338 -175 4900 -175 
Q 4466 -175 4161 144 
Q 3856 463 3856 963 
Q 3856 1466 4153 1781 
Q 4450 2097 4894 2097 
z
M 4903 1934 
Q 4841 1934 4797 1897 
Q 4722 1828 4681 1658 
Q 4641 1488 4641 1006 
Q 4641 494 4688 269 
Q 4722 109 4803 38 
Q 4844 0 4909 0 
Q 4969 0 5006 34 
Q 5084 106 5122 269 
Q 5175 497 5175 959 
Q 5175 1447 5125 1672 
Q 5088 1834 5013 1900 
Q 4975 1934 4903 1934 
z
" transform="scale(0.015625)"/>
     </defs>
     <use xlink:href="#TimesNewRomanPS-BoldMT-35"/>
     <use xlink:href="#TimesNewRomanPS-BoldMT-35" x="50"/>
     <use xlink:href="#TimesNewRomanPS-BoldMT-2e" x="100"/>
     <use xlink:href="#TimesNewRomanPS-BoldMT-33" x="125"/>
     <use xlink:href="#TimesNewRomanPS-BoldMT-25" x="175"/>
    </g>
   </g>
   <g id="patch_15">
    <path d="M 635.955807 262.094517 
L 576.998101 266.461082 
" style="fill: none; stroke: #000000; stroke-linecap: round"/>
   </g>
   <g id="text_3">
    <!-- Eólica (14.10%) -->
    <g transform="translate(639.95275 265.20745) scale(0.14 -0.14)">
     <defs>
      <path id="TimesNewRomanPSMT-45" d="M 1338 4006 
L 1338 2331 
L 2269 2331 
Q 2631 2331 2753 2441 
Q 2916 2584 2934 2947 
L 3050 2947 
L 3050 1472 
L 2934 1472 
Q 2891 1781 2847 1869 
Q 2791 1978 2662 2040 
Q 2534 2103 2269 2103 
L 1338 2103 
L 1338 706 
Q 1338 425 1363 364 
Q 1388 303 1450 267 
Q 1513 231 1688 231 
L 2406 231 
Q 2766 231 2928 281 
Q 3091 331 3241 478 
Q 3434 672 3638 1063 
L 3763 1063 
L 3397 0 
L 131 0 
L 131 116 
L 281 116 
Q 431 116 566 188 
Q 666 238 702 338 
Q 738 438 738 747 
L 738 3500 
Q 738 3903 656 3997 
Q 544 4122 281 4122 
L 131 4122 
L 131 4238 
L 3397 4238 
L 3444 3309 
L 3322 3309 
Q 3256 3644 3176 3769 
Q 3097 3894 2941 3959 
Q 2816 4006 2500 4006 
L 1338 4006 
z
" transform="scale(0.015625)"/>
      <path id="TimesNewRomanPSMT-f3" d="M 1600 2947 
Q 2250 2947 2644 2453 
Q 2978 2031 2978 1484 
Q 2978 1100 2793 706 
Q 2609 313 2286 112 
Q 1963 -88 1566 -88 
Q 919 -88 538 428 
Q 216 863 216 1403 
Q 216 1797 411 2186 
Q 606 2575 925 2761 
Q 1244 2947 1600 2947 
z
M 1503 2744 
Q 1338 2744 1170 2645 
Q 1003 2547 900 2300 
Q 797 2053 797 1666 
Q 797 1041 1045 587 
Q 1294 134 1700 134 
Q 2003 134 2200 384 
Q 2397 634 2397 1244 
Q 2397 2006 2069 2444 
Q 1847 2744 1503 2744 
z
M 2262 4344 
L 1340 3266 
L 1234 3266 
L 1562 4344 
L 2262 4344 
z
" transform="scale(0.015625)"/>
      <path id="TimesNewRomanPSMT-31" d="M 750 3822 
L 1781 4325 
L 1884 4325 
L 1884 747 
Q 1884 391 1914 303 
Q 1944 216 2037 169 
Q 2131 122 2419 116 
L 2419 0 
L 825 0 
L 825 116 
Q 1125 122 1212 167 
Q 1300 213 1334 289 
Q 1369 366 1369 747 
L 1369 3034 
Q 1369 3497 1338 3628 
Q 1316 3728 1258 3775 
Q 1200 3822 1119 3822 
Q 1003 3822 797 3725 
L 750 3822 
z
" transform="scale(0.015625)"/>
      <path id="TimesNewRomanPSMT-34" d="M 2978 1563 
L 2978 1119 
L 2409 1119 
L 2409 0 
L 1894 0 
L 1894 1119 
L 100 1119 
L 100 1519 
L 2066 4325 
L 2409 4325 
L 2409 1563 
L 2978 1563 
z
M 1894 1563 
L 1894 3666 
L 406 1563 
L 1894 1563 
z
" transform="scale(0.015625)"/>
     </defs>
     <use xlink:href="#TimesNewRomanPSMT-45"/>
     <use xlink:href="#TimesNewRomanPSMT-f3" x="61.083984"/>
     <use xlink:href="#TimesNewRomanPSMT-6c" x="111.083984"/>
     <use xlink:href="#TimesNewRomanPSMT-69" x="138.867188"/>
     <use xlink:href="#TimesNewRomanPSMT-63" x="166.650391"/>
     <use xlink:href="#TimesNewRomanPSMT-61" x="211.035156"/>
     <use xlink:href="#TimesNewRomanPSMT-20" x="255.419922"/>
     <use xlink:href="#TimesNewRomanPSMT-28" x="280.419922"/>
     <use xlink:href="#TimesNewRomanPSMT-31" x="313.720703"/>
     <use xlink:href="#TimesNewRomanPSMT-34" x="363.720703"/>
     <use xlink:href="#TimesNewRomanPSMT-2e" x="413.720703"/>
     <use xlink:href="#TimesNewRomanPSMT-31" x="438.720703"/>
     <use xlink:href="#TimesNewRomanPSMT-30" x="488.720703"/>
     <use xlink:href="#TimesNewRomanPSMT-25" x="538.720703"/>
     <use xlink:href="#TimesNewRomanPSMT-29" x="622.021484"/>
    </g>
   </g>
   <g id="text_4">
    <!-- 14.1% -->
    <g transform="translate(515.540359 272.725068) scale(0.14 -0.14)">
     <defs>
      <path id="TimesNewRomanPS-BoldMT-31" d="M 2084 4325 
L 2084 859 
Q 2084 469 2118 361 
Q 2153 253 2262 184 
Q 2372 116 2613 116 
L 2709 116 
L 2709 0 
L 478 0 
L 478 116 
L 591 116 
Q 863 116 978 178 
Q 1094 241 1134 350 
Q 1175 459 1175 859 
L 1175 3056 
Q 1175 3350 1147 3423 
Q 1119 3497 1042 3548 
Q 966 3600 866 3600 
Q 706 3600 478 3500 
L 422 3613 
L 1981 4325 
L 2084 4325 
z
" transform="scale(0.015625)"/>
      <path id="TimesNewRomanPS-BoldMT-34" d="M 159 1597 
L 2172 4325 
L 2553 4325 
L 2553 1597 
L 2941 1597 
L 2941 950 
L 2553 950 
L 2553 0 
L 1694 0 
L 1694 950 
L 159 950 
L 159 1597 
z
M 463 1597 
L 1694 1597 
L 1694 3269 
L 463 1597 
z
" transform="scale(0.015625)"/>
     </defs>
     <use xlink:href="#TimesNewRomanPS-BoldMT-31"/>
     <use xlink:href="#TimesNewRomanPS-BoldMT-34" x="50"/>
     <use xlink:href="#TimesNewRomanPS-BoldMT-2e" x="100"/>
     <use xlink:href="#TimesNewRomanPS-BoldMT-31" x="125"/>
     <use xlink:href="#TimesNewRomanPS-BoldMT-25" x="175"/>
    </g>
   </g>
   <g id="patch_16">
    <path d="M 635.950942 115.243846 
L 570.117528 115.243846 
L 526.937322 160.450936 
" style="fill: none; stroke: #000000; stroke-linecap: round"/>
   </g>
   <g id="text_5">
    <!-- Solar (9.30%) -->
    <g transform="translate(639.95275 118.607127) scale(0.14 -0.14)">
     <defs>
      <path id="TimesNewRomanPSMT-53" d="M 2934 4334 
L 2934 2869 
L 2819 2869 
Q 2763 3291 2617 3541 
Q 2472 3791 2203 3937 
Q 1934 4084 1647 4084 
Q 1322 4084 1109 3886 
Q 897 3688 897 3434 
Q 897 3241 1031 3081 
Q 1225 2847 1953 2456 
Q 2547 2138 2764 1967 
Q 2981 1797 3098 1565 
Q 3216 1334 3216 1081 
Q 3216 600 2842 251 
Q 2469 -97 1881 -97 
Q 1697 -97 1534 -69 
Q 1438 -53 1133 45 
Q 828 144 747 144 
Q 669 144 623 97 
Q 578 50 556 -97 
L 441 -97 
L 441 1356 
L 556 1356 
Q 638 900 775 673 
Q 913 447 1195 297 
Q 1478 147 1816 147 
Q 2206 147 2432 353 
Q 2659 559 2659 841 
Q 2659 997 2573 1156 
Q 2488 1316 2306 1453 
Q 2184 1547 1640 1851 
Q 1097 2156 867 2337 
Q 638 2519 519 2737 
Q 400 2956 400 3219 
Q 400 3675 750 4004 
Q 1100 4334 1641 4334 
Q 1978 4334 2356 4169 
Q 2531 4091 2603 4091 
Q 2684 4091 2736 4139 
Q 2788 4188 2819 4334 
L 2934 4334 
z
" transform="scale(0.015625)"/>
      <path id="TimesNewRomanPSMT-6f" d="M 1600 2947 
Q 2250 2947 2644 2453 
Q 2978 2031 2978 1484 
Q 2978 1100 2793 706 
Q 2609 313 2286 112 
Q 1963 -88 1566 -88 
Q 919 -88 538 428 
Q 216 863 216 1403 
Q 216 1797 411 2186 
Q 606 2575 925 2761 
Q 1244 2947 1600 2947 
z
M 1503 2744 
Q 1338 2744 1170 2645 
Q 1003 2547 900 2300 
Q 797 2053 797 1666 
Q 797 1041 1045 587 
Q 1294 134 1700 134 
Q 2003 134 2200 384 
Q 2397 634 2397 1244 
Q 2397 2006 2069 2444 
Q 1847 2744 1503 2744 
z
" transform="scale(0.015625)"/>
      <path id="TimesNewRomanPSMT-39" d="M 338 -88 
L 338 28 
Q 744 34 1094 217 
Q 1444 400 1770 856 
Q 2097 1313 2225 1859 
Q 1734 1544 1338 1544 
Q 891 1544 572 1889 
Q 253 2234 253 2806 
Q 253 3363 572 3797 
Q 956 4325 1575 4325 
Q 2097 4325 2469 3894 
Q 2925 3359 2925 2575 
Q 2925 1869 2578 1258 
Q 2231 647 1613 244 
Q 1109 -88 516 -88 
L 338 -88 
z
M 2275 2091 
Q 2331 2497 2331 2741 
Q 2331 3044 2228 3395 
Q 2125 3747 1936 3934 
Q 1747 4122 1506 4122 
Q 1228 4122 1018 3872 
Q 809 3622 809 3128 
Q 809 2469 1088 2097 
Q 1291 1828 1588 1828 
Q 1731 1828 1928 1897 
Q 2125 1966 2275 2091 
z
" transform="scale(0.015625)"/>
     </defs>
     <use xlink:href="#TimesNewRomanPSMT-53"/>
     <use xlink:href="#TimesNewRomanPSMT-6f" x="55.615234"/>
     <use xlink:href="#TimesNewRomanPSMT-6c" x="105.615234"/>
     <use xlink:href="#TimesNewRomanPSMT-61" x="133.398438"/>
     <use xlink:href="#TimesNewRomanPSMT-72" x="177.783203"/>
     <use xlink:href="#TimesNewRomanPSMT-20" x="211.083984"/>
     <use xlink:href="#TimesNewRomanPSMT-28" x="236.083984"/>
     <use xlink:href="#TimesNewRomanPSMT-39" x="269.384766"/>
     <use xlink:href="#TimesNewRomanPSMT-2e" x="319.384766"/>
     <use xlink:href="#TimesNewRomanPSMT-33" x="344.384766"/>
     <use xlink:href="#TimesNewRomanPSMT-30" x="394.384766"/>
     <use xlink:href="#TimesNewRomanPSMT-25" x="444.384766"/>
     <use xlink:href="#TimesNewRomanPSMT-29" x="527.685547"/>
    </g>
   </g>
   <g id="text_6">
    <!-- 9.3% -->
    <g transform="translate(481.959024 194.189181) scale(0.14 -0.14)">
     <defs>
      <path id="TimesNewRomanPS-BoldMT-39" d="M 197 -88 
L 197 0 
Q 716 119 1077 350 
Q 1438 581 1648 922 
Q 1859 1263 1944 1706 
Q 1750 1606 1614 1567 
Q 1478 1528 1328 1528 
Q 847 1528 526 1875 
Q 206 2222 206 2825 
Q 206 3244 379 3592 
Q 553 3941 875 4133 
Q 1197 4325 1544 4325 
Q 1916 4325 2247 4112 
Q 2578 3900 2775 3497 
Q 2972 3094 2972 2578 
Q 2972 1909 2651 1296 
Q 2331 684 1697 314 
Q 1063 -56 197 -88 
z
M 1991 1969 
Q 2022 2319 2022 2584 
Q 2022 3153 1891 3644 
Q 1816 3916 1669 4044 
Q 1591 4113 1466 4113 
Q 1309 4113 1222 3978 
Q 1100 3794 1100 3275 
Q 1100 2409 1306 2081 
Q 1441 1869 1669 1869 
Q 1791 1869 1991 1969 
z
" transform="scale(0.015625)"/>
     </defs>
     <use xlink:href="#TimesNewRomanPS-BoldMT-39"/>
     <use xlink:href="#TimesNewRomanPS-BoldMT-2e" x="50"/>
     <use xlink:href="#TimesNewRomanPS-BoldMT-33" x="75"/>
     <use xlink:href="#TimesNewRomanPS-BoldMT-25" x="125"/>
    </g>
   </g>
   <g id="patch_17">
    <path d="M 635.949428 61.083327 
L 475.011198 61.083327 
L 458.163358 121.285997 
" style="fill: none; stroke: #000000; stroke-linecap: round"/>
   </g>
   <g id="text_7">
    <!-- Gás natural (6.30%) -->
    <g transform="translate(639.95275 64.446609) scale(0.14 -0.14)">
     <defs>
      <path id="TimesNewRomanPSMT-47" d="M 3928 4334 
L 4038 2997 
L 3928 2997 
Q 3763 3497 3500 3750 
Q 3122 4116 2528 4116 
Q 1719 4116 1297 3475 
Q 944 2934 944 2188 
Q 944 1581 1178 1081 
Q 1413 581 1792 348 
Q 2172 116 2572 116 
Q 2806 116 3025 175 
Q 3244 234 3447 350 
L 3447 1575 
Q 3447 1894 3398 1992 
Q 3350 2091 3248 2142 
Q 3147 2194 2891 2194 
L 2891 2313 
L 4531 2313 
L 4531 2194 
L 4453 2194 
Q 4209 2194 4119 2031 
Q 4056 1916 4056 1575 
L 4056 278 
Q 3697 84 3347 -6 
Q 2997 -97 2569 -97 
Q 1341 -97 703 691 
Q 225 1281 225 2053 
Q 225 2613 494 3125 
Q 813 3734 1369 4063 
Q 1834 4334 2469 4334 
Q 2700 4334 2889 4296 
Q 3078 4259 3425 4131 
Q 3600 4066 3659 4066 
Q 3719 4066 3761 4120 
Q 3803 4175 3813 4334 
L 3928 4334 
z
" transform="scale(0.015625)"/>
      <path id="TimesNewRomanPSMT-73" d="M 2050 2947 
L 2050 1972 
L 1947 1972 
Q 1828 2431 1642 2597 
Q 1456 2763 1169 2763 
Q 950 2763 815 2647 
Q 681 2531 681 2391 
Q 681 2216 781 2091 
Q 878 1963 1175 1819 
L 1631 1597 
Q 2266 1288 2266 781 
Q 2266 391 1970 151 
Q 1675 -88 1309 -88 
Q 1047 -88 709 6 
Q 606 38 541 38 
Q 469 38 428 -44 
L 325 -44 
L 325 978 
L 428 978 
Q 516 541 762 319 
Q 1009 97 1316 97 
Q 1531 97 1667 223 
Q 1803 350 1803 528 
Q 1803 744 1651 891 
Q 1500 1038 1047 1263 
Q 594 1488 453 1669 
Q 313 1847 313 2119 
Q 313 2472 555 2709 
Q 797 2947 1181 2947 
Q 1350 2947 1591 2875 
Q 1750 2828 1803 2828 
Q 1853 2828 1881 2850 
Q 1909 2872 1947 2947 
L 2050 2947 
z
" transform="scale(0.015625)"/>
      <path id="TimesNewRomanPSMT-6e" d="M 1034 2341 
Q 1538 2947 1994 2947 
Q 2228 2947 2397 2830 
Q 2566 2713 2666 2444 
Q 2734 2256 2734 1869 
L 2734 647 
Q 2734 375 2778 278 
Q 2813 200 2889 156 
Q 2966 113 3172 113 
L 3172 0 
L 1756 0 
L 1756 113 
L 1816 113 
Q 2016 113 2095 173 
Q 2175 234 2206 353 
Q 2219 400 2219 647 
L 2219 1819 
Q 2219 2209 2117 2386 
Q 2016 2563 1775 2563 
Q 1403 2563 1034 2156 
L 1034 647 
Q 1034 356 1069 288 
Q 1113 197 1189 155 
Q 1266 113 1500 113 
L 1500 0 
L 84 0 
L 84 113 
L 147 113 
Q 366 113 442 223 
Q 519 334 519 647 
L 519 1709 
Q 519 2225 495 2337 
Q 472 2450 423 2490 
Q 375 2531 294 2531 
Q 206 2531 84 2484 
L 38 2597 
L 900 2947 
L 1034 2947 
L 1034 2341 
z
" transform="scale(0.015625)"/>
      <path id="TimesNewRomanPSMT-74" d="M 1031 3803 
L 1031 2863 
L 1700 2863 
L 1700 2644 
L 1031 2644 
L 1031 788 
Q 1031 509 1111 412 
Q 1191 316 1316 316 
Q 1419 316 1516 380 
Q 1613 444 1666 569 
L 1788 569 
Q 1678 263 1478 108 
Q 1278 -47 1066 -47 
Q 922 -47 784 33 
Q 647 113 581 261 
Q 516 409 516 719 
L 516 2644 
L 63 2644 
L 63 2747 
Q 234 2816 414 2980 
Q 594 3144 734 3369 
Q 806 3488 934 3803 
L 1031 3803 
z
" transform="scale(0.015625)"/>
      <path id="TimesNewRomanPSMT-36" d="M 2869 4325 
L 2869 4209 
Q 2456 4169 2195 4045 
Q 1934 3922 1679 3669 
Q 1425 3416 1258 3105 
Q 1091 2794 978 2366 
Q 1428 2675 1881 2675 
Q 2316 2675 2634 2325 
Q 2953 1975 2953 1425 
Q 2953 894 2631 456 
Q 2244 -75 1606 -75 
Q 1172 -75 869 213 
Q 275 772 275 1663 
Q 275 2231 503 2743 
Q 731 3256 1154 3653 
Q 1578 4050 1965 4187 
Q 2353 4325 2688 4325 
L 2869 4325 
z
M 925 2138 
Q 869 1716 869 1456 
Q 869 1156 980 804 
Q 1091 453 1309 247 
Q 1469 100 1697 100 
Q 1969 100 2183 356 
Q 2397 613 2397 1088 
Q 2397 1622 2184 2012 
Q 1972 2403 1581 2403 
Q 1463 2403 1327 2353 
Q 1191 2303 925 2138 
z
" transform="scale(0.015625)"/>
     </defs>
     <use xlink:href="#TimesNewRomanPSMT-47"/>
     <use xlink:href="#TimesNewRomanPSMT-e1" x="72.216797"/>
     <use xlink:href="#TimesNewRomanPSMT-73" x="116.601562"/>
     <use xlink:href="#TimesNewRomanPSMT-20" x="155.517578"/>
     <use xlink:href="#TimesNewRomanPSMT-6e" x="180.517578"/>
     <use xlink:href="#TimesNewRomanPSMT-61" x="230.517578"/>
     <use xlink:href="#TimesNewRomanPSMT-74" x="274.902344"/>
     <use xlink:href="#TimesNewRomanPSMT-75" x="302.685547"/>
     <use xlink:href="#TimesNewRomanPSMT-72" x="352.685547"/>
     <use xlink:href="#TimesNewRomanPSMT-61" x="385.986328"/>
     <use xlink:href="#TimesNewRomanPSMT-6c" x="430.371094"/>
     <use xlink:href="#TimesNewRomanPSMT-20" x="458.154297"/>
     <use xlink:href="#TimesNewRomanPSMT-28" x="483.154297"/>
     <use xlink:href="#TimesNewRomanPSMT-36" x="516.455078"/>
     <use xlink:href="#TimesNewRomanPSMT-2e" x="566.455078"/>
     <use xlink:href="#TimesNewRomanPSMT-33" x="591.455078"/>
     <use xlink:href="#TimesNewRomanPSMT-30" x="641.455078"/>
     <use xlink:href="#TimesNewRomanPSMT-25" x="691.455078"/>
     <use xlink:href="#TimesNewRomanPSMT-29" x="774.755859"/>
    </g>
   </g>
   <g id="text_8">
    <!-- 6.3% -->
    <g style="fill: #ffffff" transform="translate(431.009204 165.174617) scale(0.14 -0.14)">
     <defs>
      <path id="TimesNewRomanPS-BoldMT-36" d="M 3006 4325 
L 3006 4238 
Q 2441 4094 2098 3867 
Q 1756 3641 1557 3317 
Q 1359 2994 1250 2516 
Q 1388 2609 1478 2638 
Q 1681 2700 1888 2700 
Q 2363 2700 2680 2354 
Q 2997 2009 2997 1413 
Q 2997 994 2825 644 
Q 2653 294 2337 103 
Q 2022 -88 1663 -88 
Q 1272 -88 940 126 
Q 609 341 423 753 
Q 238 1166 238 1650 
Q 238 2363 580 2977 
Q 922 3591 1551 3955 
Q 2181 4319 3006 4325 
z
M 1209 2263 
Q 1184 1831 1184 1631 
Q 1184 1200 1267 797 
Q 1350 394 1494 231 
Q 1597 116 1738 116 
Q 1881 116 1993 283 
Q 2106 450 2106 963 
Q 2106 1825 1897 2153 
Q 1763 2366 1534 2366 
Q 1409 2366 1209 2263 
z
" transform="scale(0.015625)"/>
     </defs>
     <use xlink:href="#TimesNewRomanPS-BoldMT-36"/>
     <use xlink:href="#TimesNewRomanPS-BoldMT-2e" x="50"/>
     <use xlink:href="#TimesNewRomanPS-BoldMT-33" x="75"/>
     <use xlink:href="#TimesNewRomanPS-BoldMT-25" x="125"/>
    </g>
   </g>
   <g id="patch_18">
    <path d="M 192.370722 53.426985 
L 396.423812 53.426985 
L 401.33469 115.749488 
" style="fill: none; stroke: #000000; stroke-linecap: round"/>
   </g>
   <g id="text_9">
    <!-- Bagaço de cana (4.90%) -->
    <g transform="translate(51.542812 56.777141) scale(0.14 -0.14)">
     <defs>
      <path id="TimesNewRomanPSMT-42" d="M 2956 2163 
Q 3397 2069 3616 1863 
Q 3919 1575 3919 1159 
Q 3919 844 3719 555 
Q 3519 266 3170 133 
Q 2822 0 2106 0 
L 106 0 
L 106 116 
L 266 116 
Q 531 116 647 284 
Q 719 394 719 750 
L 719 3488 
Q 719 3881 628 3984 
Q 506 4122 266 4122 
L 106 4122 
L 106 4238 
L 1938 4238 
Q 2450 4238 2759 4163 
Q 3228 4050 3475 3764 
Q 3722 3478 3722 3106 
Q 3722 2788 3528 2536 
Q 3334 2284 2956 2163 
z
M 1319 2331 
Q 1434 2309 1582 2298 
Q 1731 2288 1909 2288 
Q 2366 2288 2595 2386 
Q 2825 2484 2947 2687 
Q 3069 2891 3069 3131 
Q 3069 3503 2766 3765 
Q 2463 4028 1881 4028 
Q 1569 4028 1319 3959 
L 1319 2331 
z
M 1319 306 
Q 1681 222 2034 222 
Q 2600 222 2897 476 
Q 3194 731 3194 1106 
Q 3194 1353 3059 1581 
Q 2925 1809 2622 1940 
Q 2319 2072 1872 2072 
Q 1678 2072 1540 2065 
Q 1403 2059 1319 2044 
L 1319 306 
z
" transform="scale(0.015625)"/>
      <path id="TimesNewRomanPSMT-67" d="M 966 1044 
Q 703 1172 562 1401 
Q 422 1631 422 1909 
Q 422 2334 742 2640 
Q 1063 2947 1563 2947 
Q 1972 2947 2272 2747 
L 2878 2747 
Q 3013 2747 3034 2739 
Q 3056 2731 3066 2713 
Q 3084 2684 3084 2613 
Q 3084 2531 3069 2500 
Q 3059 2484 3036 2475 
Q 3013 2466 2878 2466 
L 2506 2466 
Q 2681 2241 2681 1891 
Q 2681 1491 2375 1206 
Q 2069 922 1553 922 
Q 1341 922 1119 984 
Q 981 866 932 777 
Q 884 688 884 625 
Q 884 572 936 522 
Q 988 472 1138 450 
Q 1225 438 1575 428 
Q 2219 413 2409 384 
Q 2700 344 2873 169 
Q 3047 -6 3047 -263 
Q 3047 -616 2716 -925 
Q 2228 -1381 1444 -1381 
Q 841 -1381 425 -1109 
Q 191 -953 191 -784 
Q 191 -709 225 -634 
Q 278 -519 444 -313 
Q 466 -284 763 25 
Q 600 122 533 198 
Q 466 275 466 372 
Q 466 481 555 628 
Q 644 775 966 1044 
z
M 1509 2797 
Q 1278 2797 1122 2612 
Q 966 2428 966 2047 
Q 966 1553 1178 1281 
Q 1341 1075 1591 1075 
Q 1828 1075 1981 1253 
Q 2134 1431 2134 1813 
Q 2134 2309 1919 2591 
Q 1759 2797 1509 2797 
z
M 934 0 
Q 788 -159 713 -296 
Q 638 -434 638 -550 
Q 638 -700 819 -813 
Q 1131 -1006 1722 -1006 
Q 2284 -1006 2551 -807 
Q 2819 -609 2819 -384 
Q 2819 -222 2659 -153 
Q 2497 -84 2016 -72 
Q 1313 -53 934 0 
z
" transform="scale(0.015625)"/>
      <path id="TimesNewRomanPSMT-e7" d="M 2631 1088 
Q 2516 522 2178 217 
Q 1841 -88 1431 -88 
Q 944 -88 581 321 
Q 219 731 219 1428 
Q 219 2103 620 2525 
Q 1022 2947 1584 2947 
Q 2006 2947 2278 2723 
Q 2550 2500 2550 2259 
Q 2550 2141 2473 2067 
Q 2397 1994 2259 1994 
Q 2075 1994 1981 2113 
Q 1928 2178 1911 2362 
Q 1894 2547 1784 2644 
Q 1675 2738 1481 2738 
Q 1169 2738 978 2506 
Q 725 2200 725 1697 
Q 725 1184 976 792 
Q 1228 400 1656 400 
Q 1963 400 2206 609 
Q 2378 753 2541 1131 
L 2631 1088 
z
M 1472 50 
L 1660 50 
L 1503 -197 
Q 1700 -247 1797 -365 
Q 1894 -484 1894 -653 
Q 1894 -878 1706 -1048 
Q 1519 -1219 1222 -1219 
Q 1107 -1219 928 -1197 
L 928 -1063 
Q 1016 -1075 1078 -1075 
Q 1238 -1075 1347 -970 
Q 1457 -866 1457 -731 
Q 1457 -638 1385 -569 
Q 1313 -500 1207 -500 
Q 1175 -500 1125 -506 
L 1472 50 
z
" transform="scale(0.015625)"/>
      <path id="TimesNewRomanPSMT-65" d="M 681 1784 
Q 678 1147 991 784 
Q 1303 422 1725 422 
Q 2006 422 2214 576 
Q 2422 731 2563 1106 
L 2659 1044 
Q 2594 616 2278 264 
Q 1963 -88 1488 -88 
Q 972 -88 605 314 
Q 238 716 238 1394 
Q 238 2128 614 2539 
Q 991 2950 1559 2950 
Q 2041 2950 2350 2633 
Q 2659 2316 2659 1784 
L 681 1784 
z
M 681 1966 
L 2006 1966 
Q 1991 2241 1941 2353 
Q 1863 2528 1708 2628 
Q 1553 2728 1384 2728 
Q 1125 2728 920 2526 
Q 716 2325 681 1966 
z
" transform="scale(0.015625)"/>
     </defs>
     <use xlink:href="#TimesNewRomanPSMT-42"/>
     <use xlink:href="#TimesNewRomanPSMT-61" x="66.699219"/>
     <use xlink:href="#TimesNewRomanPSMT-67" x="111.083984"/>
     <use xlink:href="#TimesNewRomanPSMT-61" x="161.083984"/>
     <use xlink:href="#TimesNewRomanPSMT-e7" x="205.46875"/>
     <use xlink:href="#TimesNewRomanPSMT-6f" x="249.853516"/>
     <use xlink:href="#TimesNewRomanPSMT-20" x="299.853516"/>
     <use xlink:href="#TimesNewRomanPSMT-64" x="324.853516"/>
     <use xlink:href="#TimesNewRomanPSMT-65" x="374.853516"/>
     <use xlink:href="#TimesNewRomanPSMT-20" x="419.238281"/>
     <use xlink:href="#TimesNewRomanPSMT-63" x="444.238281"/>
     <use xlink:href="#TimesNewRomanPSMT-61" x="488.623047"/>
     <use xlink:href="#TimesNewRomanPSMT-6e" x="533.007812"/>
     <use xlink:href="#TimesNewRomanPSMT-61" x="583.007812"/>
     <use xlink:href="#TimesNewRomanPSMT-20" x="627.392578"/>
     <use xlink:href="#TimesNewRomanPSMT-28" x="652.392578"/>
     <use xlink:href="#TimesNewRomanPSMT-34" x="685.693359"/>
     <use xlink:href="#TimesNewRomanPSMT-2e" x="735.693359"/>
     <use xlink:href="#TimesNewRomanPSMT-39" x="760.693359"/>
     <use xlink:href="#TimesNewRomanPSMT-30" x="810.693359"/>
     <use xlink:href="#TimesNewRomanPSMT-25" x="860.693359"/>
     <use xlink:href="#TimesNewRomanPSMT-29" x="943.994141"/>
    </g>
   </g>
   <g id="patch_19">
    <path d="M 192.363402 63.123407 
L 346.44224 63.123407 
L 365.191661 122.761234 
" style="fill: none; stroke: #000000; stroke-linecap: round"/>
   </g>
   <g id="text_10">
    <!-- Licor preto (lixívia) (2.30%) -->
    <g transform="translate(28.206562 66.486689) scale(0.14 -0.14)">
     <defs>
      <path id="TimesNewRomanPSMT-4c" d="M 3669 1172 
L 3772 1150 
L 3409 0 
L 128 0 
L 128 116 
L 288 116 
Q 556 116 672 291 
Q 738 391 738 753 
L 738 3488 
Q 738 3884 650 3984 
Q 528 4122 288 4122 
L 128 4122 
L 128 4238 
L 2047 4238 
L 2047 4122 
Q 1709 4125 1573 4059 
Q 1438 3994 1388 3894 
Q 1338 3794 1338 3416 
L 1338 753 
Q 1338 494 1388 397 
Q 1425 331 1503 300 
Q 1581 269 1991 269 
L 2300 269 
Q 2788 269 2984 341 
Q 3181 413 3343 595 
Q 3506 778 3669 1172 
z
" transform="scale(0.015625)"/>
      <path id="TimesNewRomanPSMT-70" d="M -6 2578 
L 875 2934 
L 994 2934 
L 994 2266 
Q 1216 2644 1439 2795 
Q 1663 2947 1909 2947 
Q 2341 2947 2628 2609 
Q 2981 2197 2981 1534 
Q 2981 794 2556 309 
Q 2206 -88 1675 -88 
Q 1444 -88 1275 -22 
Q 1150 25 994 166 
L 994 -706 
Q 994 -1000 1030 -1079 
Q 1066 -1159 1155 -1206 
Q 1244 -1253 1478 -1253 
L 1478 -1369 
L -22 -1369 
L -22 -1253 
L 56 -1253 
Q 228 -1256 350 -1188 
Q 409 -1153 442 -1076 
Q 475 -1000 475 -688 
L 475 2019 
Q 475 2297 450 2372 
Q 425 2447 370 2484 
Q 316 2522 222 2522 
Q 147 2522 31 2478 
L -6 2578 
z
M 994 2081 
L 994 1013 
Q 994 666 1022 556 
Q 1066 375 1236 237 
Q 1406 100 1666 100 
Q 1978 100 2172 344 
Q 2425 663 2425 1241 
Q 2425 1897 2138 2250 
Q 1938 2494 1663 2494 
Q 1513 2494 1366 2419 
Q 1253 2363 994 2081 
z
" transform="scale(0.015625)"/>
      <path id="TimesNewRomanPSMT-78" d="M 84 2863 
L 1431 2863 
L 1431 2747 
Q 1303 2747 1251 2703 
Q 1200 2659 1200 2588 
Q 1200 2513 1309 2356 
Q 1344 2306 1413 2200 
L 1616 1875 
L 1850 2200 
Q 2075 2509 2075 2591 
Q 2075 2656 2022 2701 
Q 1969 2747 1850 2747 
L 1850 2863 
L 2819 2863 
L 2819 2747 
Q 2666 2738 2553 2663 
Q 2400 2556 2134 2200 
L 1744 1678 
L 2456 653 
Q 2719 275 2831 198 
Q 2944 122 3122 113 
L 3122 0 
L 1772 0 
L 1772 113 
Q 1913 113 1991 175 
Q 2050 219 2050 291 
Q 2050 363 1850 653 
L 1431 1266 
L 972 653 
Q 759 369 759 316 
Q 759 241 829 180 
Q 900 119 1041 113 
L 1041 0 
L 106 0 
L 106 113 
Q 219 128 303 191 
Q 422 281 703 653 
L 1303 1450 
L 759 2238 
Q 528 2575 401 2661 
Q 275 2747 84 2747 
L 84 2863 
z
" transform="scale(0.015625)"/>
      <path id="TimesNewRomanPSMT-ed" d="M 1184 2947 
L 1184 647 
Q 1184 378 1225 289 
Q 1266 200 1342 156 
Q 1419 113 1622 113 
L 1622 0 
L 231 0 
L 231 113 
Q 441 113 512 153 
Q 584 194 626 287 
Q 669 381 669 647 
L 669 1750 
Q 669 2216 641 2353 
Q 619 2453 572 2492 
Q 525 2531 444 2531 
Q 356 2531 231 2484 
L 188 2597 
L 1050 2947 
L 1184 2947 
z
M 1558 4344 
L 636 3266 
L 530 3266 
L 858 4344 
L 1558 4344 
z
" transform="scale(0.015625)"/>
      <path id="TimesNewRomanPSMT-76" d="M 53 2863 
L 1400 2863 
L 1400 2747 
L 1313 2747 
Q 1191 2747 1127 2687 
Q 1063 2628 1063 2528 
Q 1063 2419 1128 2269 
L 1794 688 
L 2463 2328 
Q 2534 2503 2534 2594 
Q 2534 2638 2509 2666 
Q 2475 2713 2422 2730 
Q 2369 2747 2206 2747 
L 2206 2863 
L 3141 2863 
L 3141 2747 
Q 2978 2734 2916 2681 
Q 2806 2588 2719 2369 
L 1703 -88 
L 1575 -88 
L 553 2328 
Q 484 2497 421 2570 
Q 359 2644 263 2694 
Q 209 2722 53 2747 
L 53 2863 
z
" transform="scale(0.015625)"/>
      <path id="TimesNewRomanPSMT-32" d="M 2934 816 
L 2638 0 
L 138 0 
L 138 116 
Q 1241 1122 1691 1759 
Q 2141 2397 2141 2925 
Q 2141 3328 1894 3587 
Q 1647 3847 1303 3847 
Q 991 3847 742 3664 
Q 494 3481 375 3128 
L 259 3128 
Q 338 3706 661 4015 
Q 984 4325 1469 4325 
Q 1984 4325 2329 3994 
Q 2675 3663 2675 3213 
Q 2675 2891 2525 2569 
Q 2294 2063 1775 1497 
Q 997 647 803 472 
L 1909 472 
Q 2247 472 2383 497 
Q 2519 522 2628 598 
Q 2738 675 2819 816 
L 2934 816 
z
" transform="scale(0.015625)"/>
     </defs>
     <use xlink:href="#TimesNewRomanPSMT-4c"/>
     <use xlink:href="#TimesNewRomanPSMT-69" x="61.083984"/>
     <use xlink:href="#TimesNewRomanPSMT-63" x="88.867188"/>
     <use xlink:href="#TimesNewRomanPSMT-6f" x="133.251953"/>
     <use xlink:href="#TimesNewRomanPSMT-72" x="183.251953"/>
     <use xlink:href="#TimesNewRomanPSMT-20" x="216.552734"/>
     <use xlink:href="#TimesNewRomanPSMT-70" x="241.552734"/>
     <use xlink:href="#TimesNewRomanPSMT-72" x="291.552734"/>
     <use xlink:href="#TimesNewRomanPSMT-65" x="324.853516"/>
     <use xlink:href="#TimesNewRomanPSMT-74" x="369.238281"/>
     <use xlink:href="#TimesNewRomanPSMT-6f" x="397.021484"/>
     <use xlink:href="#TimesNewRomanPSMT-20" x="447.021484"/>
     <use xlink:href="#TimesNewRomanPSMT-28" x="472.021484"/>
     <use xlink:href="#TimesNewRomanPSMT-6c" x="505.322266"/>
     <use xlink:href="#TimesNewRomanPSMT-69" x="533.105469"/>
     <use xlink:href="#TimesNewRomanPSMT-78" x="560.888672"/>
     <use xlink:href="#TimesNewRomanPSMT-ed" x="610.888672"/>
     <use xlink:href="#TimesNewRomanPSMT-76" x="638.671875"/>
     <use xlink:href="#TimesNewRomanPSMT-69" x="688.671875"/>
     <use xlink:href="#TimesNewRomanPSMT-61" x="716.455078"/>
     <use xlink:href="#TimesNewRomanPSMT-29" x="760.839844"/>
     <use xlink:href="#TimesNewRomanPSMT-20" x="794.140625"/>
     <use xlink:href="#TimesNewRomanPSMT-28" x="819.140625"/>
     <use xlink:href="#TimesNewRomanPSMT-32" x="852.441406"/>
     <use xlink:href="#TimesNewRomanPSMT-2e" x="902.441406"/>
     <use xlink:href="#TimesNewRomanPSMT-33" x="927.441406"/>
     <use xlink:href="#TimesNewRomanPSMT-30" x="977.441406"/>
     <use xlink:href="#TimesNewRomanPSMT-25" x="1027.441406"/>
     <use xlink:href="#TimesNewRomanPSMT-29" x="1110.742188"/>
    </g>
   </g>
   <g id="patch_20">
    <path d="M 192.365106 74.495589 
L 317.436622 74.495589 
L 344.216912 130.984767 
" style="fill: none; stroke: #000000; stroke-linecap: round"/>
   </g>
   <g id="text_11">
    <!-- Nuclear (2.10%) -->
    <g transform="translate(95.078437 77.85887) scale(0.14 -0.14)">
     <defs>
      <path id="TimesNewRomanPSMT-4e" d="M -84 4238 
L 1066 4238 
L 3656 1059 
L 3656 3503 
Q 3656 3894 3569 3991 
Q 3453 4122 3203 4122 
L 3056 4122 
L 3056 4238 
L 4531 4238 
L 4531 4122 
L 4381 4122 
Q 4113 4122 4000 3959 
Q 3931 3859 3931 3503 
L 3931 -69 
L 3819 -69 
L 1025 3344 
L 1025 734 
Q 1025 344 1109 247 
Q 1228 116 1475 116 
L 1625 116 
L 1625 0 
L 150 0 
L 150 116 
L 297 116 
Q 569 116 681 278 
Q 750 378 750 734 
L 750 3681 
Q 566 3897 470 3965 
Q 375 4034 191 4094 
Q 100 4122 -84 4122 
L -84 4238 
z
" transform="scale(0.015625)"/>
     </defs>
     <use xlink:href="#TimesNewRomanPSMT-4e"/>
     <use xlink:href="#TimesNewRomanPSMT-75" x="72.216797"/>
     <use xlink:href="#TimesNewRomanPSMT-63" x="122.216797"/>
     <use xlink:href="#TimesNewRomanPSMT-6c" x="166.601562"/>
     <use xlink:href="#TimesNewRomanPSMT-65" x="194.384766"/>
     <use xlink:href="#TimesNewRomanPSMT-61" x="238.769531"/>
     <use xlink:href="#TimesNewRomanPSMT-72" x="283.154297"/>
     <use xlink:href="#TimesNewRomanPSMT-20" x="316.455078"/>
     <use xlink:href="#TimesNewRomanPSMT-28" x="341.455078"/>
     <use xlink:href="#TimesNewRomanPSMT-32" x="374.755859"/>
     <use xlink:href="#TimesNewRomanPSMT-2e" x="424.755859"/>
     <use xlink:href="#TimesNewRomanPSMT-31" x="449.755859"/>
     <use xlink:href="#TimesNewRomanPSMT-30" x="499.755859"/>
     <use xlink:href="#TimesNewRomanPSMT-25" x="549.755859"/>
     <use xlink:href="#TimesNewRomanPSMT-29" x="633.056641"/>
    </g>
   </g>
   <g id="patch_21">
    <path d="M 192.370878 86.701521 
L 295.050637 86.701521 
L 328.029001 139.811207 
" style="fill: none; stroke: #000000; stroke-linecap: round"/>
   </g>
   <g id="text_12">
    <!-- Importação líquida (1.50%) -->
    <g transform="translate(33.255312 90.064803) scale(0.14 -0.14)">
     <defs>
      <path id="TimesNewRomanPSMT-49" d="M 1975 116 
L 1975 0 
L 159 0 
L 159 116 
L 309 116 
Q 572 116 691 269 
Q 766 369 766 750 
L 766 3488 
Q 766 3809 725 3913 
Q 694 3991 597 4047 
Q 459 4122 309 4122 
L 159 4122 
L 159 4238 
L 1975 4238 
L 1975 4122 
L 1822 4122 
Q 1563 4122 1444 3969 
Q 1366 3869 1366 3488 
L 1366 750 
Q 1366 428 1406 325 
Q 1438 247 1538 191 
Q 1672 116 1822 116 
L 1975 116 
z
" transform="scale(0.015625)"/>
      <path id="TimesNewRomanPSMT-6d" d="M 1050 2338 
Q 1363 2650 1419 2697 
Q 1559 2816 1721 2881 
Q 1884 2947 2044 2947 
Q 2313 2947 2506 2790 
Q 2700 2634 2766 2338 
Q 3088 2713 3309 2830 
Q 3531 2947 3766 2947 
Q 3994 2947 4170 2830 
Q 4347 2713 4450 2447 
Q 4519 2266 4519 1878 
L 4519 647 
Q 4519 378 4559 278 
Q 4591 209 4675 161 
Q 4759 113 4950 113 
L 4950 0 
L 3538 0 
L 3538 113 
L 3597 113 
Q 3781 113 3884 184 
Q 3956 234 3988 344 
Q 4000 397 4000 647 
L 4000 1878 
Q 4000 2228 3916 2372 
Q 3794 2572 3525 2572 
Q 3359 2572 3192 2489 
Q 3025 2406 2788 2181 
L 2781 2147 
L 2788 2013 
L 2788 647 
Q 2788 353 2820 281 
Q 2853 209 2943 161 
Q 3034 113 3253 113 
L 3253 0 
L 1806 0 
L 1806 113 
Q 2044 113 2133 169 
Q 2222 225 2256 338 
Q 2272 391 2272 647 
L 2272 1878 
Q 2272 2228 2169 2381 
Q 2031 2581 1784 2581 
Q 1616 2581 1450 2491 
Q 1191 2353 1050 2181 
L 1050 647 
Q 1050 366 1089 281 
Q 1128 197 1204 155 
Q 1281 113 1516 113 
L 1516 0 
L 100 0 
L 100 113 
Q 297 113 375 155 
Q 453 197 493 289 
Q 534 381 534 647 
L 534 1741 
Q 534 2213 506 2350 
Q 484 2453 437 2492 
Q 391 2531 309 2531 
Q 222 2531 100 2484 
L 53 2597 
L 916 2947 
L 1050 2947 
L 1050 2338 
z
" transform="scale(0.015625)"/>
      <path id="TimesNewRomanPSMT-e3" d="M 1822 413 
Q 1381 72 1269 19 
Q 1100 -59 909 -59 
Q 613 -59 420 144 
Q 228 347 228 678 
Q 228 888 322 1041 
Q 450 1253 767 1440 
Q 1084 1628 1822 1897 
L 1822 2009 
Q 1822 2438 1686 2597 
Q 1550 2756 1291 2756 
Q 1094 2756 978 2650 
Q 859 2544 859 2406 
L 866 2225 
Q 866 2081 792 2003 
Q 719 1925 600 1925 
Q 484 1925 411 2006 
Q 338 2088 338 2228 
Q 338 2497 613 2722 
Q 888 2947 1384 2947 
Q 1766 2947 2009 2819 
Q 2194 2722 2281 2516 
Q 2338 2381 2338 1966 
L 2338 994 
Q 2338 584 2353 492 
Q 2369 400 2405 369 
Q 2441 338 2488 338 
Q 2538 338 2575 359 
Q 2641 400 2828 588 
L 2828 413 
Q 2478 -56 2159 -56 
Q 2006 -56 1915 50 
Q 1825 156 1822 413 
z
M 1822 616 
L 1822 1706 
Q 1350 1519 1213 1441 
Q 966 1303 859 1153 
Q 753 1003 753 825 
Q 753 600 887 451 
Q 1022 303 1197 303 
Q 1434 303 1822 616 
z
M 537 3428 
L 437 3428 
Q 449 3856 615 4047 
Q 781 4238 1024 4238 
Q 1152 4238 1259 4197 
Q 1399 4144 1657 3973 
Q 1915 3803 2040 3803 
Q 2140 3803 2216 3887 
Q 2293 3972 2337 4238 
L 2434 4238 
Q 2437 3947 2357 3776 
Q 2277 3606 2132 3511 
Q 1987 3416 1840 3416 
Q 1593 3416 1227 3666 
Q 1031 3800 962 3828 
Q 893 3856 827 3856 
Q 699 3856 624 3744 
Q 590 3691 537 3428 
z
" transform="scale(0.015625)"/>
      <path id="TimesNewRomanPSMT-71" d="M 2734 2947 
L 2734 -734 
Q 2734 -1009 2771 -1087 
Q 2809 -1166 2889 -1209 
Q 2969 -1253 3200 -1253 
L 3200 -1369 
L 1756 -1369 
L 1756 -1253 
L 1816 -1253 
Q 1991 -1253 2081 -1203 
Q 2144 -1169 2181 -1080 
Q 2219 -991 2219 -734 
L 2219 497 
Q 1934 159 1721 35 
Q 1509 -88 1281 -88 
Q 866 -88 539 290 
Q 213 669 213 1303 
Q 213 2031 644 2489 
Q 1075 2947 1684 2947 
Q 1863 2947 2013 2897 
Q 2163 2847 2281 2747 
Q 2463 2834 2628 2947 
L 2734 2947 
z
M 2219 694 
L 2219 2038 
Q 2219 2272 2158 2406 
Q 2097 2541 1940 2634 
Q 1784 2728 1588 2728 
Q 1238 2728 988 2431 
Q 738 2134 738 1531 
Q 738 953 992 653 
Q 1247 353 1606 353 
Q 1791 353 1934 433 
Q 2078 513 2219 694 
z
" transform="scale(0.015625)"/>
     </defs>
     <use xlink:href="#TimesNewRomanPSMT-49"/>
     <use xlink:href="#TimesNewRomanPSMT-6d" x="33.300781"/>
     <use xlink:href="#TimesNewRomanPSMT-70" x="111.083984"/>
     <use xlink:href="#TimesNewRomanPSMT-6f" x="161.083984"/>
     <use xlink:href="#TimesNewRomanPSMT-72" x="211.083984"/>
     <use xlink:href="#TimesNewRomanPSMT-74" x="244.384766"/>
     <use xlink:href="#TimesNewRomanPSMT-61" x="272.167969"/>
     <use xlink:href="#TimesNewRomanPSMT-e7" x="316.552734"/>
     <use xlink:href="#TimesNewRomanPSMT-e3" x="360.9375"/>
     <use xlink:href="#TimesNewRomanPSMT-6f" x="405.322266"/>
     <use xlink:href="#TimesNewRomanPSMT-20" x="455.322266"/>
     <use xlink:href="#TimesNewRomanPSMT-6c" x="480.322266"/>
     <use xlink:href="#TimesNewRomanPSMT-ed" x="508.105469"/>
     <use xlink:href="#TimesNewRomanPSMT-71" x="535.888672"/>
     <use xlink:href="#TimesNewRomanPSMT-75" x="585.888672"/>
     <use xlink:href="#TimesNewRomanPSMT-69" x="635.888672"/>
     <use xlink:href="#TimesNewRomanPSMT-64" x="663.671875"/>
     <use xlink:href="#TimesNewRomanPSMT-61" x="713.671875"/>
     <use xlink:href="#TimesNewRomanPSMT-20" x="758.056641"/>
     <use xlink:href="#TimesNewRomanPSMT-28" x="783.056641"/>
     <use xlink:href="#TimesNewRomanPSMT-31" x="816.357422"/>
     <use xlink:href="#TimesNewRomanPSMT-2e" x="866.357422"/>
     <use xlink:href="#TimesNewRomanPSMT-35" x="891.357422"/>
     <use xlink:href="#TimesNewRomanPSMT-30" x="941.357422"/>
     <use xlink:href="#TimesNewRomanPSMT-25" x="991.357422"/>
     <use xlink:href="#TimesNewRomanPSMT-29" x="1074.658203"/>
    </g>
   </g>
   <g id="patch_22">
    <path d="M 192.364149 98.749211 
L 277.544348 98.749211 
L 315.369729 148.523218 
" style="fill: none; stroke: #000000; stroke-linecap: round"/>
   </g>
   <g id="text_13">
    <!-- Outras não renováveis* (1.50%) -->
    <g transform="translate(7.2 102.112492) scale(0.14 -0.14)">
     <defs>
      <path id="TimesNewRomanPSMT-4f" d="M 2341 4334 
Q 3166 4334 3770 3707 
Q 4375 3081 4375 2144 
Q 4375 1178 3765 540 
Q 3156 -97 2291 -97 
Q 1416 -97 820 525 
Q 225 1147 225 2134 
Q 225 3144 913 3781 
Q 1509 4334 2341 4334 
z
M 2281 4106 
Q 1713 4106 1369 3684 
Q 941 3159 941 2147 
Q 941 1109 1384 550 
Q 1725 125 2284 125 
Q 2881 125 3270 590 
Q 3659 1056 3659 2059 
Q 3659 3147 3231 3681 
Q 2888 4106 2281 4106 
z
" transform="scale(0.015625)"/>
      <path id="TimesNewRomanPSMT-2a" d="M 1544 3263 
Q 1531 3478 1456 3691 
Q 1350 3997 1350 4113 
Q 1350 4275 1426 4359 
Q 1503 4444 1616 4444 
Q 1713 4444 1784 4359 
Q 1856 4275 1856 4119 
Q 1856 3978 1773 3726 
Q 1691 3475 1672 3263 
Q 1844 3372 1981 3528 
Q 2194 3775 2297 3834 
Q 2400 3894 2506 3894 
Q 2609 3894 2679 3823 
Q 2750 3753 2750 3656 
Q 2750 3541 2647 3450 
Q 2544 3359 2131 3269 
Q 1891 3216 1731 3147 
Q 1894 3063 2128 3019 
Q 2506 2950 2623 2847 
Q 2741 2744 2741 2622 
Q 2741 2528 2670 2459 
Q 2600 2391 2506 2391 
Q 2413 2391 2298 2456 
Q 2184 2522 1991 2750 
Q 1863 2903 1672 3038 
Q 1678 2859 1744 2650 
Q 1856 2281 1856 2147 
Q 1856 2022 1781 1936 
Q 1706 1850 1622 1850 
Q 1506 1850 1413 1941 
Q 1347 2006 1347 2150 
Q 1347 2300 1419 2511 
Q 1491 2722 1509 2801 
Q 1528 2881 1544 3038 
Q 1359 2916 1222 2766 
Q 994 2509 878 2441 
Q 797 2391 709 2391 
Q 603 2391 528 2462 
Q 453 2534 453 2622 
Q 453 2700 517 2786 
Q 581 2872 709 2928 
Q 794 2966 1094 3028 
Q 1288 3069 1472 3147 
Q 1303 3231 1069 3278 
Q 684 3359 594 3425 
Q 453 3528 453 3675 
Q 453 3759 523 3829 
Q 594 3900 688 3900 
Q 791 3900 906 3834 
Q 1022 3769 1194 3570 
Q 1366 3372 1544 3263 
z
" transform="scale(0.015625)"/>
     </defs>
     <use xlink:href="#TimesNewRomanPSMT-4f"/>
     <use xlink:href="#TimesNewRomanPSMT-75" x="72.216797"/>
     <use xlink:href="#TimesNewRomanPSMT-74" x="122.216797"/>
     <use xlink:href="#TimesNewRomanPSMT-72" x="150"/>
     <use xlink:href="#TimesNewRomanPSMT-61" x="183.300781"/>
     <use xlink:href="#TimesNewRomanPSMT-73" x="227.685547"/>
     <use xlink:href="#TimesNewRomanPSMT-20" x="266.601562"/>
     <use xlink:href="#TimesNewRomanPSMT-6e" x="291.601562"/>
     <use xlink:href="#TimesNewRomanPSMT-e3" x="341.601562"/>
     <use xlink:href="#TimesNewRomanPSMT-6f" x="385.986328"/>
     <use xlink:href="#TimesNewRomanPSMT-20" x="435.986328"/>
     <use xlink:href="#TimesNewRomanPSMT-72" x="460.986328"/>
     <use xlink:href="#TimesNewRomanPSMT-65" x="494.287109"/>
     <use xlink:href="#TimesNewRomanPSMT-6e" x="538.671875"/>
     <use xlink:href="#TimesNewRomanPSMT-6f" x="588.671875"/>
     <use xlink:href="#TimesNewRomanPSMT-76" x="638.671875"/>
     <use xlink:href="#TimesNewRomanPSMT-e1" x="688.671875"/>
     <use xlink:href="#TimesNewRomanPSMT-76" x="733.056641"/>
     <use xlink:href="#TimesNewRomanPSMT-65" x="783.056641"/>
     <use xlink:href="#TimesNewRomanPSMT-69" x="827.441406"/>
     <use xlink:href="#TimesNewRomanPSMT-73" x="855.224609"/>
     <use xlink:href="#TimesNewRomanPSMT-2a" x="894.140625"/>
     <use xlink:href="#TimesNewRomanPSMT-20" x="944.140625"/>
     <use xlink:href="#TimesNewRomanPSMT-28" x="969.140625"/>
     <use xlink:href="#TimesNewRomanPSMT-31" x="1002.441406"/>
     <use xlink:href="#TimesNewRomanPSMT-2e" x="1052.441406"/>
     <use xlink:href="#TimesNewRomanPSMT-35" x="1077.441406"/>
     <use xlink:href="#TimesNewRomanPSMT-30" x="1127.441406"/>
     <use xlink:href="#TimesNewRomanPSMT-25" x="1177.441406"/>
     <use xlink:href="#TimesNewRomanPSMT-29" x="1260.742188"/>
    </g>
   </g>
   <g id="patch_23">
    <path d="M 192.366304 111.432848 
L 262.294055 111.432848 
L 304.341828 157.695099 
" style="fill: none; stroke: #000000; stroke-linecap: round"/>
   </g>
   <g id="text_14">
    <!-- Carvão vapor (1.30%) -->
    <g transform="translate(63.578437 114.796129) scale(0.14 -0.14)">
     <defs>
      <path id="TimesNewRomanPSMT-43" d="M 3853 4334 
L 3950 2894 
L 3853 2894 
Q 3659 3541 3300 3825 
Q 2941 4109 2438 4109 
Q 2016 4109 1675 3895 
Q 1334 3681 1139 3212 
Q 944 2744 944 2047 
Q 944 1472 1128 1050 
Q 1313 628 1683 403 
Q 2053 178 2528 178 
Q 2941 178 3256 354 
Q 3572 531 3950 1056 
L 4047 994 
Q 3728 428 3303 165 
Q 2878 -97 2294 -97 
Q 1241 -97 663 684 
Q 231 1266 231 2053 
Q 231 2688 515 3219 
Q 800 3750 1298 4042 
Q 1797 4334 2388 4334 
Q 2847 4334 3294 4109 
Q 3425 4041 3481 4041 
Q 3566 4041 3628 4100 
Q 3709 4184 3744 4334 
L 3853 4334 
z
" transform="scale(0.015625)"/>
     </defs>
     <use xlink:href="#TimesNewRomanPSMT-43"/>
     <use xlink:href="#TimesNewRomanPSMT-61" x="66.699219"/>
     <use xlink:href="#TimesNewRomanPSMT-72" x="111.083984"/>
     <use xlink:href="#TimesNewRomanPSMT-76" x="144.384766"/>
     <use xlink:href="#TimesNewRomanPSMT-e3" x="194.384766"/>
     <use xlink:href="#TimesNewRomanPSMT-6f" x="238.769531"/>
     <use xlink:href="#TimesNewRomanPSMT-20" x="288.769531"/>
     <use xlink:href="#TimesNewRomanPSMT-76" x="313.769531"/>
     <use xlink:href="#TimesNewRomanPSMT-61" x="363.769531"/>
     <use xlink:href="#TimesNewRomanPSMT-70" x="408.154297"/>
     <use xlink:href="#TimesNewRomanPSMT-6f" x="458.154297"/>
     <use xlink:href="#TimesNewRomanPSMT-72" x="508.154297"/>
     <use xlink:href="#TimesNewRomanPSMT-20" x="541.455078"/>
     <use xlink:href="#TimesNewRomanPSMT-28" x="566.455078"/>
     <use xlink:href="#TimesNewRomanPSMT-31" x="599.755859"/>
     <use xlink:href="#TimesNewRomanPSMT-2e" x="649.755859"/>
     <use xlink:href="#TimesNewRomanPSMT-33" x="674.755859"/>
     <use xlink:href="#TimesNewRomanPSMT-30" x="724.755859"/>
     <use xlink:href="#TimesNewRomanPSMT-25" x="774.755859"/>
     <use xlink:href="#TimesNewRomanPSMT-29" x="858.056641"/>
    </g>
   </g>
   <g id="patch_24">
    <path d="M 192.36372 122.308431 
L 251.128292 122.308431 
L 296.267563 165.559528 
" style="fill: none; stroke: #000000; stroke-linecap: round"/>
   </g>
   <g id="text_15">
    <!-- Outras renováveis** (0.90%) -->
    <g transform="translate(23.914687 125.671712) scale(0.14 -0.14)">
     <use xlink:href="#TimesNewRomanPSMT-4f"/>
     <use xlink:href="#TimesNewRomanPSMT-75" x="72.216797"/>
     <use xlink:href="#TimesNewRomanPSMT-74" x="122.216797"/>
     <use xlink:href="#TimesNewRomanPSMT-72" x="150"/>
     <use xlink:href="#TimesNewRomanPSMT-61" x="183.300781"/>
     <use xlink:href="#TimesNewRomanPSMT-73" x="227.685547"/>
     <use xlink:href="#TimesNewRomanPSMT-20" x="266.601562"/>
     <use xlink:href="#TimesNewRomanPSMT-72" x="291.601562"/>
     <use xlink:href="#TimesNewRomanPSMT-65" x="324.902344"/>
     <use xlink:href="#TimesNewRomanPSMT-6e" x="369.287109"/>
     <use xlink:href="#TimesNewRomanPSMT-6f" x="419.287109"/>
     <use xlink:href="#TimesNewRomanPSMT-76" x="469.287109"/>
     <use xlink:href="#TimesNewRomanPSMT-e1" x="519.287109"/>
     <use xlink:href="#TimesNewRomanPSMT-76" x="563.671875"/>
     <use xlink:href="#TimesNewRomanPSMT-65" x="613.671875"/>
     <use xlink:href="#TimesNewRomanPSMT-69" x="658.056641"/>
     <use xlink:href="#TimesNewRomanPSMT-73" x="685.839844"/>
     <use xlink:href="#TimesNewRomanPSMT-2a" x="724.755859"/>
     <use xlink:href="#TimesNewRomanPSMT-2a" x="774.755859"/>
     <use xlink:href="#TimesNewRomanPSMT-20" x="824.755859"/>
     <use xlink:href="#TimesNewRomanPSMT-28" x="849.755859"/>
     <use xlink:href="#TimesNewRomanPSMT-30" x="883.056641"/>
     <use xlink:href="#TimesNewRomanPSMT-2e" x="933.056641"/>
     <use xlink:href="#TimesNewRomanPSMT-39" x="958.056641"/>
     <use xlink:href="#TimesNewRomanPSMT-30" x="1008.056641"/>
     <use xlink:href="#TimesNewRomanPSMT-25" x="1058.056641"/>
     <use xlink:href="#TimesNewRomanPSMT-29" x="1141.357422"/>
    </g>
   </g>
   <g id="patch_25">
    <path d="M 192.367993 130.153714 
L 243.957632 130.153714 
L 291.082264 171.232665 
" style="fill: none; stroke: #000000; stroke-linecap: round"/>
   </g>
   <g id="text_16">
    <!-- Óleo diesel (0.60%) -->
    <g transform="translate(76.012187 134.80762) scale(0.14 -0.14)">
     <defs>
      <path id="TimesNewRomanPSMT-d3" d="M 2341 4334 
Q 3166 4334 3770 3707 
Q 4375 3081 4375 2144 
Q 4375 1178 3765 540 
Q 3156 -97 2291 -97 
Q 1416 -97 820 525 
Q 225 1147 225 2134 
Q 225 3144 913 3781 
Q 1509 4334 2341 4334 
z
M 2281 4106 
Q 1713 4106 1369 3684 
Q 941 3159 941 2147 
Q 941 1109 1384 550 
Q 1725 125 2284 125 
Q 2881 125 3270 590 
Q 3659 1056 3659 2059 
Q 3659 3147 3231 3681 
Q 2888 4106 2281 4106 
z
M 2990 5624 
L 2068 4546 
L 1962 4546 
L 2290 5624 
L 2990 5624 
z
" transform="scale(0.015625)"/>
     </defs>
     <use xlink:href="#TimesNewRomanPSMT-d3"/>
     <use xlink:href="#TimesNewRomanPSMT-6c" x="72.216797"/>
     <use xlink:href="#TimesNewRomanPSMT-65" x="100"/>
     <use xlink:href="#TimesNewRomanPSMT-6f" x="144.384766"/>
     <use xlink:href="#TimesNewRomanPSMT-20" x="194.384766"/>
     <use xlink:href="#TimesNewRomanPSMT-64" x="219.384766"/>
     <use xlink:href="#TimesNewRomanPSMT-69" x="269.384766"/>
     <use xlink:href="#TimesNewRomanPSMT-65" x="297.167969"/>
     <use xlink:href="#TimesNewRomanPSMT-73" x="341.552734"/>
     <use xlink:href="#TimesNewRomanPSMT-65" x="380.46875"/>
     <use xlink:href="#TimesNewRomanPSMT-6c" x="424.853516"/>
     <use xlink:href="#TimesNewRomanPSMT-20" x="452.636719"/>
     <use xlink:href="#TimesNewRomanPSMT-28" x="477.636719"/>
     <use xlink:href="#TimesNewRomanPSMT-30" x="510.9375"/>
     <use xlink:href="#TimesNewRomanPSMT-2e" x="560.9375"/>
     <use xlink:href="#TimesNewRomanPSMT-36" x="585.9375"/>
     <use xlink:href="#TimesNewRomanPSMT-30" x="635.9375"/>
     <use xlink:href="#TimesNewRomanPSMT-25" x="685.9375"/>
     <use xlink:href="#TimesNewRomanPSMT-29" x="769.238281"/>
    </g>
   </g>
   <g id="text_17">
    <!-- Figura 2 - Oferta Interna de Energia Elétrica por Fonte, em 2024 -->
    <g transform="translate(233.517 16.92125) scale(0.14 -0.14)">
     <defs>
      <path id="TimesNewRomanPSMT-46" d="M 1309 4006 
L 1309 2341 
L 2081 2341 
Q 2347 2341 2470 2458 
Q 2594 2575 2634 2922 
L 2750 2922 
L 2750 1488 
L 2634 1488 
Q 2631 1734 2570 1850 
Q 2509 1966 2401 2023 
Q 2294 2081 2081 2081 
L 1309 2081 
L 1309 750 
Q 1309 428 1350 325 
Q 1381 247 1481 191 
Q 1619 116 1769 116 
L 1922 116 
L 1922 0 
L 103 0 
L 103 116 
L 253 116 
Q 516 116 634 269 
Q 709 369 709 750 
L 709 3488 
Q 709 3809 669 3913 
Q 638 3991 541 4047 
Q 406 4122 253 4122 
L 103 4122 
L 103 4238 
L 3256 4238 
L 3297 3306 
L 3188 3306 
Q 3106 3603 2998 3742 
Q 2891 3881 2733 3943 
Q 2575 4006 2244 4006 
L 1309 4006 
z
" transform="scale(0.015625)"/>
      <path id="TimesNewRomanPSMT-2d" d="M 259 1672 
L 1875 1672 
L 1875 1200 
L 259 1200 
L 259 1672 
z
" transform="scale(0.015625)"/>
      <path id="TimesNewRomanPSMT-66" d="M 1319 2638 
L 1319 756 
Q 1319 356 1406 250 
Q 1522 113 1716 113 
L 1975 113 
L 1975 0 
L 266 0 
L 266 113 
L 394 113 
Q 519 113 622 175 
Q 725 238 764 344 
Q 803 450 803 756 
L 803 2638 
L 247 2638 
L 247 2863 
L 803 2863 
L 803 3050 
Q 803 3478 940 3775 
Q 1078 4072 1361 4255 
Q 1644 4438 1997 4438 
Q 2325 4438 2600 4225 
Q 2781 4084 2781 3909 
Q 2781 3816 2700 3733 
Q 2619 3650 2525 3650 
Q 2453 3650 2373 3701 
Q 2294 3753 2178 3923 
Q 2063 4094 1966 4153 
Q 1869 4213 1750 4213 
Q 1606 4213 1506 4136 
Q 1406 4059 1362 3898 
Q 1319 3738 1319 3069 
L 1319 2863 
L 2056 2863 
L 2056 2638 
L 1319 2638 
z
" transform="scale(0.015625)"/>
      <path id="TimesNewRomanPSMT-e9" d="M 681 1784 
Q 678 1147 991 784 
Q 1303 422 1725 422 
Q 2006 422 2214 576 
Q 2422 731 2563 1106 
L 2659 1044 
Q 2594 616 2278 264 
Q 1963 -88 1488 -88 
Q 972 -88 605 314 
Q 238 716 238 1394 
Q 238 2128 614 2539 
Q 991 2950 1559 2950 
Q 2041 2950 2350 2633 
Q 2659 2316 2659 1784 
L 681 1784 
z
M 681 1966 
L 2006 1966 
Q 1991 2241 1941 2353 
Q 1863 2528 1708 2628 
Q 1553 2728 1384 2728 
Q 1125 2728 920 2526 
Q 716 2325 681 1966 
z
M 2174 4344 
L 1252 3266 
L 1146 3266 
L 1474 4344 
L 2174 4344 
z
" transform="scale(0.015625)"/>
      <path id="TimesNewRomanPSMT-2c" d="M 344 -1066 
L 344 -928 
Q 666 -822 842 -598 
Q 1019 -375 1019 -125 
Q 1019 -66 991 -25 
Q 969 3 947 3 
Q 913 3 797 -59 
Q 741 -88 678 -88 
Q 525 -88 434 3 
Q 344 94 344 253 
Q 344 406 461 515 
Q 578 625 747 625 
Q 953 625 1114 445 
Q 1275 266 1275 -31 
Q 1275 -353 1051 -629 
Q 828 -906 344 -1066 
z
" transform="scale(0.015625)"/>
     </defs>
     <use xlink:href="#TimesNewRomanPSMT-46"/>
     <use xlink:href="#TimesNewRomanPSMT-69" x="55.615234"/>
     <use xlink:href="#TimesNewRomanPSMT-67" x="83.398438"/>
     <use xlink:href="#TimesNewRomanPSMT-75" x="133.398438"/>
     <use xlink:href="#TimesNewRomanPSMT-72" x="183.398438"/>
     <use xlink:href="#TimesNewRomanPSMT-61" x="216.699219"/>
     <use xlink:href="#TimesNewRomanPSMT-20" x="261.083984"/>
     <use xlink:href="#TimesNewRomanPSMT-32" x="286.083984"/>
     <use xlink:href="#TimesNewRomanPSMT-20" x="336.083984"/>
     <use xlink:href="#TimesNewRomanPSMT-2d" x="361.083984"/>
     <use xlink:href="#TimesNewRomanPSMT-20" x="394.384766"/>
     <use xlink:href="#TimesNewRomanPSMT-4f" x="419.384766"/>
     <use xlink:href="#TimesNewRomanPSMT-66" x="491.601562"/>
     <use xlink:href="#TimesNewRomanPSMT-65" x="524.902344"/>
     <use xlink:href="#TimesNewRomanPSMT-72" x="569.287109"/>
     <use xlink:href="#TimesNewRomanPSMT-74" x="602.587891"/>
     <use xlink:href="#TimesNewRomanPSMT-61" x="630.371094"/>
     <use xlink:href="#TimesNewRomanPSMT-20" x="674.755859"/>
     <use xlink:href="#TimesNewRomanPSMT-49" x="699.755859"/>
     <use xlink:href="#TimesNewRomanPSMT-6e" x="733.056641"/>
     <use xlink:href="#TimesNewRomanPSMT-74" x="783.056641"/>
     <use xlink:href="#TimesNewRomanPSMT-65" x="810.839844"/>
     <use xlink:href="#TimesNewRomanPSMT-72" x="855.224609"/>
     <use xlink:href="#TimesNewRomanPSMT-6e" x="888.525391"/>
     <use xlink:href="#TimesNewRomanPSMT-61" x="938.525391"/>
     <use xlink:href="#TimesNewRomanPSMT-20" x="982.910156"/>
     <use xlink:href="#TimesNewRomanPSMT-64" x="1007.910156"/>
     <use xlink:href="#TimesNewRomanPSMT-65" x="1057.910156"/>
     <use xlink:href="#TimesNewRomanPSMT-20" x="1102.294922"/>
     <use xlink:href="#TimesNewRomanPSMT-45" x="1127.294922"/>
     <use xlink:href="#TimesNewRomanPSMT-6e" x="1188.378906"/>
     <use xlink:href="#TimesNewRomanPSMT-65" x="1238.378906"/>
     <use xlink:href="#TimesNewRomanPSMT-72" x="1282.763672"/>
     <use xlink:href="#TimesNewRomanPSMT-67" x="1314.314453"/>
     <use xlink:href="#TimesNewRomanPSMT-69" x="1364.314453"/>
     <use xlink:href="#TimesNewRomanPSMT-61" x="1392.097656"/>
     <use xlink:href="#TimesNewRomanPSMT-20" x="1436.482422"/>
     <use xlink:href="#TimesNewRomanPSMT-45" x="1461.482422"/>
     <use xlink:href="#TimesNewRomanPSMT-6c" x="1522.566406"/>
     <use xlink:href="#TimesNewRomanPSMT-e9" x="1550.349609"/>
     <use xlink:href="#TimesNewRomanPSMT-74" x="1594.734375"/>
     <use xlink:href="#TimesNewRomanPSMT-72" x="1622.517578"/>
     <use xlink:href="#TimesNewRomanPSMT-69" x="1655.818359"/>
     <use xlink:href="#TimesNewRomanPSMT-63" x="1683.601562"/>
     <use xlink:href="#TimesNewRomanPSMT-61" x="1727.986328"/>
     <use xlink:href="#TimesNewRomanPSMT-20" x="1772.371094"/>
     <use xlink:href="#TimesNewRomanPSMT-70" x="1797.371094"/>
     <use xlink:href="#TimesNewRomanPSMT-6f" x="1847.371094"/>
     <use xlink:href="#TimesNewRomanPSMT-72" x="1897.371094"/>
     <use xlink:href="#TimesNewRomanPSMT-20" x="1930.671875"/>
     <use xlink:href="#TimesNewRomanPSMT-46" x="1955.671875"/>
     <use xlink:href="#TimesNewRomanPSMT-6f" x="2011.287109"/>
     <use xlink:href="#TimesNewRomanPSMT-6e" x="2061.287109"/>
     <use xlink:href="#TimesNewRomanPSMT-74" x="2111.287109"/>
     <use xlink:href="#TimesNewRomanPSMT-65" x="2139.070312"/>
     <use xlink:href="#TimesNewRomanPSMT-2c" x="2183.455078"/>
     <use xlink:href="#TimesNewRomanPSMT-20" x="2208.455078"/>
     <use xlink:href="#TimesNewRomanPSMT-65" x="2233.455078"/>
     <use xlink:href="#TimesNewRomanPSMT-6d" x="2277.839844"/>
     <use xlink:href="#TimesNewRomanPSMT-20" x="2355.623047"/>
     <use xlink:href="#TimesNewRomanPSMT-32" x="2380.623047"/>
     <use xlink:href="#TimesNewRomanPSMT-30" x="2430.623047"/>
     <use xlink:href="#TimesNewRomanPSMT-32" x="2480.623047"/>
     <use xlink:href="#TimesNewRomanPSMT-34" x="2530.623047"/>
    </g>
   </g>
  </g>
  <g id="text_18">
   <!-- Fonte: Elaboração própria a partir de EPE (2025) -->
   <g transform="translate(270.872938 508.92125) scale(0.14 -0.14)">
    <defs>
     <path id="TimesNewRomanPS-ItalicMT-46" d="M 2081 4013 
L 1581 2334 
L 2138 2334 
Q 2513 2334 2698 2450 
Q 2884 2566 3081 2944 
L 3200 2944 
L 2759 1400 
L 2634 1400 
Q 2681 1588 2681 1709 
Q 2681 1900 2554 2004 
Q 2428 2109 2081 2109 
L 1519 2109 
L 1150 831 
Q 1050 491 1050 378 
Q 1050 263 1136 200 
Q 1222 138 1556 116 
L 1519 0 
L -156 0 
L -116 116 
Q 128 122 209 159 
Q 334 213 394 303 
Q 478 431 594 831 
L 1341 3384 
Q 1431 3694 1431 3869 
Q 1431 3950 1390 4008 
Q 1350 4066 1270 4094 
Q 1191 4122 953 4122 
L 991 4238 
L 4278 4238 
L 3966 3166 
L 3847 3166 
Q 3881 3359 3881 3484 
Q 3881 3691 3767 3811 
Q 3653 3931 3475 3981 
Q 3350 4013 2916 4013 
L 2081 4013 
z
" transform="scale(0.015625)"/>
     <path id="TimesNewRomanPS-ItalicMT-6f" d="M 2959 1850 
Q 2959 1381 2711 922 
Q 2463 463 2019 194 
Q 1575 -75 1156 -75 
Q 728 -75 458 198 
Q 188 472 188 906 
Q 188 1366 452 1828 
Q 716 2291 1158 2559 
Q 1600 2828 2013 2828 
Q 2425 2828 2692 2556 
Q 2959 2284 2959 1850 
z
M 2441 2066 
Q 2441 2356 2298 2511 
Q 2156 2666 1931 2666 
Q 1472 2666 1086 2008 
Q 700 1350 700 700 
Q 700 403 850 242 
Q 1000 81 1228 81 
Q 1669 81 2055 736 
Q 2441 1391 2441 2066 
z
" transform="scale(0.015625)"/>
     <path id="TimesNewRomanPS-ItalicMT-6e" d="M 1413 2828 
L 997 1406 
Q 1581 2278 1892 2553 
Q 2203 2828 2491 2828 
Q 2647 2828 2748 2725 
Q 2850 2622 2850 2456 
Q 2850 2269 2759 1956 
L 2378 641 
Q 2313 413 2313 363 
Q 2313 319 2338 289 
Q 2363 259 2391 259 
Q 2428 259 2481 300 
Q 2647 431 2844 700 
L 2941 641 
Q 2650 225 2391 47 
Q 2209 -75 2066 -75 
Q 1950 -75 1881 -4 
Q 1813 66 1813 184 
Q 1813 334 1919 700 
L 2281 1956 
Q 2350 2191 2350 2322 
Q 2350 2384 2309 2423 
Q 2269 2463 2209 2463 
Q 2122 2463 2000 2388 
Q 1769 2247 1519 1923 
Q 1269 1600 991 1097 
Q 844 831 747 516 
L 591 0 
L 122 0 
L 691 1956 
Q 791 2309 791 2381 
Q 791 2450 736 2501 
Q 681 2553 600 2553 
Q 563 2553 469 2541 
L 350 2522 
L 331 2634 
L 1413 2828 
z
" transform="scale(0.015625)"/>
     <path id="TimesNewRomanPS-ItalicMT-74" d="M 1663 3603 
L 1419 2753 
L 1909 2753 
L 1856 2556 
L 1369 2556 
L 831 713 
Q 744 416 744 328 
Q 744 275 769 247 
Q 794 219 828 219 
Q 906 219 1034 328 
Q 1109 391 1369 713 
L 1472 634 
Q 1184 216 928 44 
Q 753 -75 575 -75 
Q 438 -75 350 11 
Q 263 97 263 231 
Q 263 400 363 747 
L 884 2556 
L 413 2556 
L 444 2678 
Q 788 2772 1016 2958 
Q 1244 3144 1525 3603 
L 1663 3603 
z
" transform="scale(0.015625)"/>
     <path id="TimesNewRomanPS-ItalicMT-65" d="M 763 1178 
Q 741 1022 741 919 
Q 741 641 937 445 
Q 1134 250 1416 250 
Q 1641 250 1848 342 
Q 2056 434 2466 750 
L 2531 659 
Q 1791 -75 1119 -75 
Q 663 -75 431 212 
Q 200 500 200 847 
Q 200 1313 487 1800 
Q 775 2288 1209 2558 
Q 1644 2828 2103 2828 
Q 2434 2828 2593 2693 
Q 2753 2559 2753 2375 
Q 2753 2116 2547 1878 
Q 2275 1569 1747 1378 
Q 1397 1250 763 1178 
z
M 784 1331 
Q 1247 1384 1538 1513 
Q 1922 1684 2114 1923 
Q 2306 2163 2306 2378 
Q 2306 2509 2223 2590 
Q 2141 2672 1988 2672 
Q 1669 2672 1311 2333 
Q 953 1994 784 1331 
z
" transform="scale(0.015625)"/>
     <path id="TimesNewRomanPS-ItalicMT-3a" d="M 1359 2831 
Q 1491 2831 1584 2739 
Q 1678 2647 1678 2516 
Q 1678 2384 1584 2290 
Q 1491 2197 1359 2197 
Q 1228 2197 1134 2290 
Q 1041 2384 1041 2516 
Q 1041 2647 1134 2739 
Q 1228 2831 1359 2831 
z
M 697 569 
Q 828 569 918 476 
Q 1009 384 1009 253 
Q 1009 125 917 33 
Q 825 -59 697 -59 
Q 566 -59 473 33 
Q 381 125 381 253 
Q 381 384 473 476 
Q 566 569 697 569 
z
" transform="scale(0.015625)"/>
     <path id="TimesNewRomanPS-ItalicMT-20" transform="scale(0.015625)"/>
     <path id="TimesNewRomanPS-ItalicMT-45" d="M 2072 4009 
L 1588 2334 
L 1984 2334 
Q 2409 2334 2600 2464 
Q 2791 2594 2928 2944 
L 3044 2944 
L 2609 1406 
L 2484 1406 
Q 2541 1600 2541 1738 
Q 2541 1872 2486 1953 
Q 2431 2034 2336 2073 
Q 2241 2113 1934 2113 
L 1531 2113 
L 1122 709 
Q 1063 506 1063 400 
Q 1063 319 1141 256 
Q 1194 213 1406 213 
L 1781 213 
Q 2391 213 2758 428 
Q 3125 644 3416 1178 
L 3531 1178 
L 3131 0 
L -144 0 
L -103 116 
Q 141 122 225 159 
Q 350 216 406 303 
Q 491 431 606 841 
L 1350 3397 
Q 1438 3706 1438 3869 
Q 1438 3988 1355 4055 
Q 1272 4122 1031 4122 
L 966 4122 
L 1003 4238 
L 4047 4238 
L 3784 3216 
L 3669 3216 
Q 3691 3359 3691 3456 
Q 3691 3622 3609 3734 
Q 3503 3878 3300 3953 
Q 3150 4009 2609 4009 
L 2072 4009 
z
" transform="scale(0.015625)"/>
     <path id="TimesNewRomanPS-ItalicMT-6c" d="M 1903 4444 
L 834 725 
Q 756 447 756 384 
Q 756 338 786 306 
Q 816 275 859 275 
Q 919 275 988 328 
Q 1150 456 1328 725 
L 1422 628 
Q 1125 209 875 44 
Q 691 -75 525 -75 
Q 406 -75 326 6 
Q 247 88 247 194 
Q 247 306 347 656 
L 1194 3588 
Q 1297 3947 1297 4000 
Q 1297 4075 1237 4123 
Q 1178 4172 1053 4172 
Q 981 4172 834 4150 
L 834 4266 
L 1903 4444 
z
" transform="scale(0.015625)"/>
     <path id="TimesNewRomanPS-ItalicMT-61" d="M 3003 2828 
L 2394 709 
L 2325 425 
Q 2316 384 2316 356 
Q 2316 306 2347 269 
Q 2372 241 2409 241 
Q 2450 241 2516 291 
Q 2638 381 2841 666 
L 2947 591 
Q 2731 266 2503 95 
Q 2275 -75 2081 -75 
Q 1947 -75 1880 -8 
Q 1813 59 1813 188 
Q 1813 341 1881 591 
L 1947 825 
Q 1538 291 1194 78 
Q 947 -75 709 -75 
Q 481 -75 315 114 
Q 150 303 150 634 
Q 150 1131 448 1682 
Q 747 2234 1206 2566 
Q 1566 2828 1884 2828 
Q 2075 2828 2201 2728 
Q 2328 2628 2394 2397 
L 2506 2753 
L 3003 2828 
z
M 1891 2666 
Q 1691 2666 1466 2478 
Q 1147 2213 898 1691 
Q 650 1169 650 747 
Q 650 534 756 411 
Q 863 288 1000 288 
Q 1341 288 1741 791 
Q 2275 1459 2275 2163 
Q 2275 2428 2172 2547 
Q 2069 2666 1891 2666 
z
" transform="scale(0.015625)"/>
     <path id="TimesNewRomanPS-ItalicMT-62" d="M 1847 4444 
L 1231 2284 
Q 1531 2597 1754 2712 
Q 1978 2828 2222 2828 
Q 2566 2828 2784 2600 
Q 3003 2372 3003 1981 
Q 3003 1478 2715 979 
Q 2428 481 1993 203 
Q 1559 -75 1138 -75 
Q 666 -75 169 278 
L 1119 3550 
Q 1228 3928 1228 3994 
Q 1228 4075 1178 4116 
Q 1106 4172 966 4172 
Q 900 4172 766 4150 
L 766 4269 
L 1847 4444 
z
M 638 244 
Q 950 72 1188 72 
Q 1463 72 1758 273 
Q 2053 475 2270 953 
Q 2488 1431 2488 1919 
Q 2488 2206 2345 2368 
Q 2203 2531 2009 2531 
Q 1719 2531 1441 2298 
Q 1163 2066 1044 1650 
L 638 244 
z
" transform="scale(0.015625)"/>
     <path id="TimesNewRomanPS-ItalicMT-72" d="M 334 2653 
L 1413 2828 
L 963 1309 
Q 1509 2244 1956 2616 
Q 2209 2828 2369 2828 
Q 2472 2828 2531 2767 
Q 2591 2706 2591 2591 
Q 2591 2384 2484 2197 
Q 2409 2056 2269 2056 
Q 2197 2056 2145 2103 
Q 2094 2150 2081 2247 
Q 2075 2306 2053 2325 
Q 2028 2350 1994 2350 
Q 1941 2350 1894 2325 
Q 1813 2281 1647 2081 
Q 1388 1775 1084 1288 
Q 953 1081 859 822 
Q 728 466 709 394 
L 609 0 
L 131 0 
L 709 1941 
Q 809 2278 809 2422 
Q 809 2478 763 2516 
Q 700 2566 597 2566 
Q 531 2566 356 2538 
L 334 2653 
z
" transform="scale(0.015625)"/>
     <path id="TimesNewRomanPS-ItalicMT-e7" d="M 2472 681 
Q 2147 291 1815 108 
Q 1484 -75 1116 -75 
Q 672 -75 423 175 
Q 175 425 175 847 
Q 175 1325 442 1787 
Q 709 2250 1161 2539 
Q 1613 2828 2047 2828 
Q 2388 2828 2556 2686 
Q 2725 2544 2725 2338 
Q 2725 2144 2606 2006 
Q 2519 1900 2391 1900 
Q 2294 1900 2230 1962 
Q 2166 2025 2166 2119 
Q 2166 2178 2189 2228 
Q 2213 2278 2286 2348 
Q 2359 2419 2375 2450 
Q 2391 2481 2391 2516 
Q 2391 2581 2331 2625 
Q 2241 2688 2075 2688 
Q 1769 2688 1469 2472 
Q 1169 2256 956 1859 
Q 700 1378 700 897 
Q 700 578 881 392 
Q 1063 206 1375 206 
Q 1616 206 1852 326 
Q 2088 447 2381 763 
L 2472 681 
z
M 1400 94 
L 1259 -144 
Q 1444 -184 1544 -306 
Q 1644 -428 1644 -600 
Q 1644 -809 1469 -959 
Q 1231 -1156 913 -1156 
Q 741 -1156 472 -1088 
L 509 -984 
Q 666 -1022 778 -1022 
Q 978 -1022 1089 -926 
Q 1200 -831 1200 -697 
Q 1200 -581 1134 -525 
Q 1047 -453 872 -450 
L 1216 94 
L 1400 94 
z
" transform="scale(0.015625)"/>
     <path id="TimesNewRomanPS-ItalicMT-e3" d="M 3003 2828 
L 2394 709 
L 2325 425 
Q 2316 384 2316 356 
Q 2316 306 2347 269 
Q 2372 241 2409 241 
Q 2450 241 2516 291 
Q 2638 381 2841 666 
L 2947 591 
Q 2731 266 2503 95 
Q 2275 -75 2081 -75 
Q 1947 -75 1880 -8 
Q 1813 59 1813 188 
Q 1813 341 1881 591 
L 1947 825 
Q 1538 291 1194 78 
Q 947 -75 709 -75 
Q 481 -75 315 114 
Q 150 303 150 634 
Q 150 1131 448 1682 
Q 747 2234 1206 2566 
Q 1566 2828 1884 2828 
Q 2075 2828 2201 2728 
Q 2328 2628 2394 2397 
L 2506 2753 
L 3003 2828 
z
M 1891 2666 
Q 1691 2666 1466 2478 
Q 1147 2213 898 1691 
Q 650 1169 650 747 
Q 650 534 756 411 
Q 863 288 1000 288 
Q 1341 288 1741 791 
Q 2275 1459 2275 2163 
Q 2275 2428 2172 2547 
Q 2069 2666 1891 2666 
z
M 3052 4263 
L 3145 4263 
Q 3155 3869 2980 3656 
Q 2805 3444 2570 3444 
Q 2342 3444 2043 3634 
Q 1745 3825 1677 3856 
Q 1624 3881 1555 3881 
Q 1439 3881 1369 3800 
Q 1299 3719 1255 3456 
L 1155 3456 
Q 1177 3894 1342 4081 
Q 1508 4269 1742 4269 
Q 1970 4269 2300 4050 
Q 2630 3831 2752 3831 
Q 2861 3831 2930 3913 
Q 3020 4016 3052 4263 
z
" transform="scale(0.015625)"/>
     <path id="TimesNewRomanPS-ItalicMT-70" d="M 1416 2828 
L 1200 2109 
Q 1541 2509 1808 2668 
Q 2075 2828 2353 2828 
Q 2631 2828 2828 2608 
Q 3025 2388 3025 2034 
Q 3025 1347 2465 636 
Q 1906 -75 1163 -75 
Q 1006 -75 886 -40 
Q 766 -6 616 81 
L 388 -725 
Q 319 -963 319 -1034 
Q 319 -1103 355 -1151 
Q 391 -1200 472 -1226 
Q 553 -1253 794 -1253 
L 766 -1369 
L -706 -1369 
L -675 -1253 
Q -384 -1241 -282 -1153 
Q -181 -1066 -69 -669 
L 722 2069 
Q 794 2328 794 2391 
Q 794 2475 745 2522 
Q 697 2569 597 2569 
Q 506 2569 344 2547 
L 344 2669 
L 1416 2828 
z
M 688 328 
Q 881 97 1209 97 
Q 1372 97 1540 187 
Q 1709 278 1870 456 
Q 2031 634 2159 867 
Q 2288 1100 2389 1415 
Q 2491 1731 2491 2041 
Q 2491 2291 2377 2423 
Q 2263 2556 2109 2556 
Q 1772 2556 1442 2168 
Q 1113 1781 959 1263 
L 688 328 
z
" transform="scale(0.015625)"/>
     <path id="TimesNewRomanPS-ItalicMT-f3" d="M 2959 1850 
Q 2959 1381 2711 922 
Q 2463 463 2019 194 
Q 1575 -75 1156 -75 
Q 728 -75 458 198 
Q 188 472 188 906 
Q 188 1366 452 1828 
Q 716 2291 1158 2559 
Q 1600 2828 2013 2828 
Q 2425 2828 2692 2556 
Q 2959 2284 2959 1850 
z
M 2441 2066 
Q 2441 2356 2298 2511 
Q 2156 2666 1931 2666 
Q 1472 2666 1086 2008 
Q 700 1350 700 700 
Q 700 403 850 242 
Q 1000 81 1228 81 
Q 1669 81 2055 736 
Q 2441 1391 2441 2066 
z
M 2839 4381 
L 1920 3309 
L 1814 3309 
L 2136 4381 
L 2839 4381 
z
" transform="scale(0.015625)"/>
     <path id="TimesNewRomanPS-ItalicMT-69" d="M 1431 4069 
Q 1563 4069 1653 3978 
Q 1744 3888 1744 3756 
Q 1744 3628 1651 3536 
Q 1559 3444 1431 3444 
Q 1303 3444 1211 3536 
Q 1119 3628 1119 3756 
Q 1119 3888 1209 3978 
Q 1300 4069 1431 4069 
z
M 1472 2828 
L 853 638 
Q 791 416 791 372 
Q 791 322 820 290 
Q 850 259 891 259 
Q 938 259 1003 309 
Q 1181 450 1363 709 
L 1472 638 
Q 1259 313 972 91 
Q 759 -75 566 -75 
Q 438 -75 356 1 
Q 275 78 275 194 
Q 275 309 353 578 
L 759 1978 
Q 859 2322 859 2409 
Q 859 2478 811 2522 
Q 763 2566 678 2566 
Q 609 2566 394 2531 
L 394 2653 
L 1472 2828 
z
" transform="scale(0.015625)"/>
     <path id="TimesNewRomanPS-ItalicMT-64" d="M 3463 4444 
L 2388 756 
Q 2300 456 2300 363 
Q 2300 331 2326 303 
Q 2353 275 2381 275 
Q 2422 275 2478 316 
Q 2584 391 2834 691 
L 2941 625 
Q 2716 313 2486 119 
Q 2256 -75 2056 -75 
Q 1950 -75 1881 0 
Q 1813 75 1813 213 
Q 1813 391 1906 691 
L 2028 1078 
Q 1575 378 1203 109 
Q 947 -75 713 -75 
Q 475 -75 298 136 
Q 122 347 122 709 
Q 122 1175 419 1703 
Q 716 2231 1203 2563 
Q 1588 2828 1909 2828 
Q 2078 2828 2200 2759 
Q 2322 2691 2441 2531 
L 2747 3619 
Q 2781 3734 2803 3803 
Q 2841 3928 2841 4009 
Q 2841 4075 2794 4119 
Q 2728 4172 2625 4172 
Q 2553 4172 2388 4150 
L 2388 4266 
L 3463 4444 
z
M 2303 2225 
Q 2303 2425 2187 2547 
Q 2072 2669 1894 2669 
Q 1500 2669 1073 2019 
Q 647 1369 647 775 
Q 647 541 750 417 
Q 853 294 997 294 
Q 1322 294 1812 997 
Q 2303 1700 2303 2225 
z
" transform="scale(0.015625)"/>
     <path id="TimesNewRomanPS-ItalicMT-50" d="M 1000 4238 
L 2669 4238 
Q 3325 4238 3650 3955 
Q 3975 3672 3975 3266 
Q 3975 2944 3769 2641 
Q 3563 2338 3156 2148 
Q 2750 1959 2278 1959 
Q 1984 1959 1531 2066 
L 1194 909 
Q 1075 497 1075 366 
Q 1075 266 1159 200 
Q 1244 134 1563 116 
L 1531 0 
L -153 0 
L -119 116 
Q 213 116 342 230 
Q 472 344 622 859 
L 1322 3272 
Q 1447 3706 1447 3853 
Q 1447 3963 1358 4034 
Q 1269 4106 966 4122 
L 1000 4238 
z
M 1584 2263 
Q 1938 2172 2153 2172 
Q 2494 2172 2773 2312 
Q 3053 2453 3211 2734 
Q 3369 3016 3369 3319 
Q 3369 3634 3175 3818 
Q 2981 4003 2588 4003 
Q 2375 4003 2072 3950 
L 1584 2263 
z
" transform="scale(0.015625)"/>
     <path id="TimesNewRomanPS-ItalicMT-28" d="M 1203 -1319 
L 1097 -1369 
Q 725 -659 563 -116 
Q 438 309 438 741 
Q 438 1747 903 2544 
Q 1475 3519 2756 4444 
L 2831 4334 
Q 2253 3906 1888 3375 
Q 1431 2713 1140 1775 
Q 850 838 850 69 
Q 850 -519 1203 -1319 
z
" transform="scale(0.015625)"/>
     <path id="TimesNewRomanPS-ItalicMT-32" d="M 2209 0 
L 100 0 
L 100 116 
Q 1713 1528 2231 2331 
Q 2472 2703 2472 3113 
Q 2472 3438 2272 3642 
Q 2072 3847 1753 3847 
Q 1313 3847 1028 3425 
L 919 3475 
Q 1078 3878 1384 4101 
Q 1691 4325 2047 4325 
Q 2450 4325 2725 4048 
Q 3000 3772 3000 3378 
Q 3000 3103 2903 2869 
Q 2753 2503 2350 2050 
Q 1738 1356 716 453 
L 1778 453 
Q 2034 453 2200 559 
Q 2366 666 2438 844 
L 2563 844 
L 2209 0 
z
" transform="scale(0.015625)"/>
     <path id="TimesNewRomanPS-ItalicMT-30" d="M 2213 4325 
Q 2613 4325 2886 3990 
Q 3159 3656 3159 2934 
Q 3159 2316 2956 1672 
Q 2753 1028 2384 556 
Q 2091 184 1769 19 
Q 1581 -75 1334 -75 
Q 928 -75 654 259 
Q 381 594 381 1319 
Q 381 2034 656 2756 
Q 978 3600 1478 4038 
Q 1806 4325 2213 4325 
z
M 2216 4163 
Q 2034 4163 1848 4020 
Q 1663 3878 1464 3428 
Q 1266 2978 1084 2269 
Q 850 1341 850 688 
Q 850 363 990 202 
Q 1131 41 1331 41 
Q 1522 41 1656 166 
Q 2016 503 2272 1319 
Q 2688 2653 2688 3488 
Q 2688 3834 2547 3998 
Q 2406 4163 2216 4163 
z
" transform="scale(0.015625)"/>
     <path id="TimesNewRomanPS-ItalicMT-35" d="M 1650 4238 
L 3066 4238 
L 2922 3722 
L 1650 3722 
L 1416 3200 
Q 1922 3119 2203 2884 
Q 2638 2519 2638 1863 
Q 2638 1428 2477 1076 
Q 2316 725 2083 487 
Q 1850 250 1584 113 
Q 1222 -75 853 -75 
Q 538 -75 353 63 
Q 228 156 228 300 
Q 228 413 309 492 
Q 391 572 509 572 
Q 675 572 878 406 
Q 1003 303 1084 269 
Q 1150 241 1241 241 
Q 1594 241 1891 592 
Q 2188 944 2188 1506 
Q 2188 1897 2030 2172 
Q 1872 2447 1628 2559 
Q 1384 2672 978 2716 
L 1650 4238 
z
" transform="scale(0.015625)"/>
     <path id="TimesNewRomanPS-ItalicMT-29" d="M 931 4384 
L 1038 4444 
Q 1409 3738 1569 3194 
Q 1697 2769 1697 2338 
Q 1697 1328 1231 534 
Q 656 -444 -622 -1369 
L -697 -1272 
Q -119 -841 247 -313 
Q 703 350 993 1289 
Q 1284 2228 1284 2997 
Q 1284 3584 931 4384 
z
" transform="scale(0.015625)"/>
    </defs>
    <use xlink:href="#TimesNewRomanPS-ItalicMT-46"/>
    <use xlink:href="#TimesNewRomanPS-ItalicMT-6f" x="61.083984"/>
    <use xlink:href="#TimesNewRomanPS-ItalicMT-6e" x="111.083984"/>
    <use xlink:href="#TimesNewRomanPS-ItalicMT-74" x="161.083984"/>
    <use xlink:href="#TimesNewRomanPS-ItalicMT-65" x="188.867188"/>
    <use xlink:href="#TimesNewRomanPS-ItalicMT-3a" x="233.251953"/>
    <use xlink:href="#TimesNewRomanPS-ItalicMT-20" x="266.552734"/>
    <use xlink:href="#TimesNewRomanPS-ItalicMT-45" x="291.552734"/>
    <use xlink:href="#TimesNewRomanPS-ItalicMT-6c" x="352.636719"/>
    <use xlink:href="#TimesNewRomanPS-ItalicMT-61" x="380.419922"/>
    <use xlink:href="#TimesNewRomanPS-ItalicMT-62" x="430.419922"/>
    <use xlink:href="#TimesNewRomanPS-ItalicMT-6f" x="480.419922"/>
    <use xlink:href="#TimesNewRomanPS-ItalicMT-72" x="530.419922"/>
    <use xlink:href="#TimesNewRomanPS-ItalicMT-61" x="569.335938"/>
    <use xlink:href="#TimesNewRomanPS-ItalicMT-e7" x="619.335938"/>
    <use xlink:href="#TimesNewRomanPS-ItalicMT-e3" x="663.720703"/>
    <use xlink:href="#TimesNewRomanPS-ItalicMT-6f" x="713.720703"/>
    <use xlink:href="#TimesNewRomanPS-ItalicMT-20" x="763.720703"/>
    <use xlink:href="#TimesNewRomanPS-ItalicMT-70" x="788.720703"/>
    <use xlink:href="#TimesNewRomanPS-ItalicMT-72" x="838.720703"/>
    <use xlink:href="#TimesNewRomanPS-ItalicMT-f3" x="877.636719"/>
    <use xlink:href="#TimesNewRomanPS-ItalicMT-70" x="927.636719"/>
    <use xlink:href="#TimesNewRomanPS-ItalicMT-72" x="977.636719"/>
    <use xlink:href="#TimesNewRomanPS-ItalicMT-69" x="1016.552734"/>
    <use xlink:href="#TimesNewRomanPS-ItalicMT-61" x="1044.335938"/>
    <use xlink:href="#TimesNewRomanPS-ItalicMT-20" x="1094.335938"/>
    <use xlink:href="#TimesNewRomanPS-ItalicMT-61" x="1119.335938"/>
    <use xlink:href="#TimesNewRomanPS-ItalicMT-20" x="1169.335938"/>
    <use xlink:href="#TimesNewRomanPS-ItalicMT-70" x="1194.335938"/>
    <use xlink:href="#TimesNewRomanPS-ItalicMT-61" x="1244.335938"/>
    <use xlink:href="#TimesNewRomanPS-ItalicMT-72" x="1294.335938"/>
    <use xlink:href="#TimesNewRomanPS-ItalicMT-74" x="1333.251953"/>
    <use xlink:href="#TimesNewRomanPS-ItalicMT-69" x="1361.035156"/>
    <use xlink:href="#TimesNewRomanPS-ItalicMT-72" x="1388.818359"/>
    <use xlink:href="#TimesNewRomanPS-ItalicMT-20" x="1427.734375"/>
    <use xlink:href="#TimesNewRomanPS-ItalicMT-64" x="1452.734375"/>
    <use xlink:href="#TimesNewRomanPS-ItalicMT-65" x="1502.734375"/>
    <use xlink:href="#TimesNewRomanPS-ItalicMT-20" x="1547.119141"/>
    <use xlink:href="#TimesNewRomanPS-ItalicMT-45" x="1572.119141"/>
    <use xlink:href="#TimesNewRomanPS-ItalicMT-50" x="1633.203125"/>
    <use xlink:href="#TimesNewRomanPS-ItalicMT-45" x="1694.287109"/>
    <use xlink:href="#TimesNewRomanPS-ItalicMT-20" x="1755.371094"/>
    <use xlink:href="#TimesNewRomanPS-ItalicMT-28" x="1780.371094"/>
    <use xlink:href="#TimesNewRomanPS-ItalicMT-32" x="1813.671875"/>
    <use xlink:href="#TimesNewRomanPS-ItalicMT-30" x="1863.671875"/>
    <use xlink:href="#TimesNewRomanPS-ItalicMT-32" x="1913.671875"/>
    <use xlink:href="#TimesNewRomanPS-ItalicMT-35" x="1963.671875"/>
    <use xlink:href="#TimesNewRomanPS-ItalicMT-29" x="2013.671875"/>
   </g>
  </g>
 </g>
</svg>
