<?xml version="1.0" encoding="utf-8" standalone="no"?>
<!DOCTYPE svg PUBLIC "-//W3C//DTD SVG 1.1//EN"
  "http://www.w3.org/Graphics/SVG/1.1/DTD/svg11.dtd">
<svg xmlns:xlink="http://www.w3.org/1999/xlink" width="760.2815pt" height="447.465359pt" viewBox="0 0 760.2815 447.465359" xmlns="http://www.w3.org/2000/svg" version="1.1">
 <metadata>
  <rdf:RDF xmlns:dc="http://purl.org/dc/elements/1.1/" xmlns:cc="http://creativecommons.org/ns#" xmlns:rdf="http://www.w3.org/1999/02/22-rdf-syntax-ns#">
   <cc:Work>
    <dc:type rdf:resource="http://purl.org/dc/dcmitype/StillImage"/>
    <dc:date>2026-01-20T08:42:12.282008</dc:date>
    <dc:format>image/svg+xml</dc:format>
    <dc:creator>
     <cc:Agent>
      <dc:title>Matplotlib v3.9.2, https://matplotlib.org/</dc:title>
     </cc:Agent>
    </dc:creator>
   </cc:Work>
  </rdf:RDF>
 </metadata>
 <defs>
  <style type="text/css">*{stroke-linejoin: round; stroke-linecap: butt}</style>
 </defs>
 <g id="figure_1">
  <g id="patch_1">
   <path d="M 0 447.465359 
L 760.2815 447.465359 
L 760.2815 0 
L 0 0 
z
" style="fill: #ffffff"/>
  </g>
  <g id="axes_1">
   <g id="patch_2">
    <path d="M 290.613102 134.996573 
C 275.560884 152.935109 264.594579 173.938554 258.478592 196.542868 
C 252.362606 219.147183 251.242421 242.814665 255.19612 265.89558 
C 259.14982 288.976494 268.083355 310.9218 281.374015 330.201808 
C 294.664675 349.481815 311.996309 365.637898 332.160818 377.543901 
C 352.325327 389.449905 374.843046 396.822613 398.144385 399.148113 
C 421.445724 401.473614 444.976399 398.696589 467.09621 391.01061 
C 489.216022 383.324631 509.398793 370.912529 526.237689 354.639486 
C 543.076585 338.366443 556.171049 318.619557 564.608335 296.775277 
L 474.339784 261.909326 
C 470.96487 270.647038 465.727084 278.545793 458.991526 285.05501 
C 452.255967 291.564227 444.182859 296.529068 435.334934 299.603459 
C 426.487009 302.677851 417.07474 303.788661 407.754204 302.858461 
C 398.433669 301.928261 389.426581 298.979177 381.360777 294.216776 
C 373.294973 289.454375 366.36232 282.991941 361.046056 275.279939 
C 355.729792 267.567936 352.156378 258.789813 350.574898 249.557447 
C 348.993418 240.325082 349.441492 230.858089 351.887887 221.816363 
C 354.334282 212.774637 358.720803 204.373259 364.741691 197.197845 
z
" style="fill: #ffd700; stroke: #ffffff; stroke-linejoin: miter"/>
   </g>
   <g id="patch_3">
    <path d="M 564.608335 296.775277 
C 573.214791 274.493013 576.764503 250.574529 575.000229 226.753158 
C 573.235954 202.931787 566.201367 179.797205 554.406251 159.025936 
L 470.258951 206.80959 
C 474.976997 215.118097 477.790832 224.37193 478.496541 233.900479 
C 479.202251 243.429027 477.782366 252.996421 474.339784 261.909326 
z
" style="fill: #f1c40f; stroke: #ffffff; stroke-linejoin: miter"/>
   </g>
   <g id="patch_4">
    <path d="M 554.406251 159.025936 
C 546.64424 145.356988 536.925405 132.895955 525.558449 122.038642 
C 514.191492 111.181329 501.298051 102.043918 487.287665 94.916645 
L 443.411516 181.165874 
C 449.015671 184.016783 454.173047 187.671747 458.719829 192.014672 
C 463.266612 196.357598 467.154146 201.342011 470.258951 206.80959 
z
" style="fill: #f9e79f; stroke: #ffffff; stroke-linejoin: miter"/>
   </g>
   <g id="patch_5">
    <path d="M 487.287665 94.916645 
C 477.805832 90.093109 467.86997 86.219533 457.625356 83.352557 
C 447.380742 80.485581 436.877553 78.639246 426.269361 77.840548 
L 419.004194 174.335435 
C 423.247471 174.654914 427.448747 175.393448 431.546592 176.540238 
C 435.644438 177.687029 439.618783 179.236459 443.411516 181.165874 
z
" style="fill: #424949; stroke: #ffffff; stroke-linejoin: miter"/>
   </g>
   <g id="patch_6">
    <path d="M 426.269361 77.840548 
C 418.021194 77.219538 409.73746 77.233978 401.491509 77.883741 
C 393.245557 78.533504 385.061796 79.816666 377.012689 81.721866 
L 399.301526 175.887962 
C 402.521168 175.125882 405.794673 174.612617 409.093053 174.352712 
C 412.391434 174.092807 415.704927 174.08703 419.004194 174.335435 
z
" style="fill: #d4ac0d; stroke: #ffffff; stroke-linejoin: miter"/>
   </g>
   <g id="patch_7">
    <path d="M 377.012689 81.721866 
C 373.235986 82.615801 369.492781 83.645768 365.790386 84.809757 
C 362.08799 85.973746 358.428816 87.270998 354.820011 88.698979 
L 390.424454 178.678807 
C 391.867976 178.107615 393.331646 177.588714 394.812604 177.123118 
C 396.293562 176.657523 397.790844 176.245536 399.301526 175.887962 
z
" style="fill: #fcf3cf; stroke: #ffffff; stroke-linejoin: miter"/>
   </g>
   <g id="patch_8">
    <path d="M 354.820011 88.698979 
C 351.525075 90.002764 348.274002 91.414786 345.072087 92.932744 
C 341.870171 94.450703 338.719153 96.073774 335.624161 97.799314 
L 382.746115 182.318941 
C 383.984111 181.628725 385.244519 180.979497 386.525285 180.372313 
C 387.806051 179.76513 389.10648 179.200321 390.424454 178.678807 
z
" style="fill: #1b2631; stroke: #ffffff; stroke-linejoin: miter"/>
   </g>
   <g id="patch_9">
    <path d="M 335.624161 97.799314 
C 333.413551 99.031788 331.232259 100.316128 329.082098 101.651267 
C 326.931937 102.986406 324.813502 104.371973 322.728553 105.806818 
L 377.587871 185.521943 
C 378.421851 184.948005 379.269225 184.393778 380.129289 183.859722 
C 380.989354 183.325667 381.861871 182.811931 382.746115 182.318941 
z
" style="fill: #bdc3c7; stroke: #ffffff; stroke-linejoin: miter"/>
   </g>
   <g id="patch_10">
    <path d="M 322.728553 105.806818 
C 320.643605 107.241663 318.592721 108.725388 316.577606 110.25676 
C 314.56249 111.788132 312.583702 113.366726 310.642884 114.991231 
L 372.753604 189.195708 
C 373.529931 188.545906 374.321446 187.914468 375.127492 187.301919 
C 375.933538 186.689371 376.753892 186.095881 377.587871 185.521943 
z
" style="fill: #7f8c8d; stroke: #ffffff; stroke-linejoin: miter"/>
   </g>
   <g id="patch_11">
    <path d="M 310.642884 114.991231 
C 308.960862 116.39912 307.307736 117.841176 305.684539 119.3165 
C 304.061342 120.791824 302.468412 122.300109 300.906742 123.840414 
L 368.859147 192.735381 
C 369.483815 192.119259 370.120987 191.515945 370.770266 190.925816 
C 371.419545 190.335686 372.080795 189.758863 372.753604 189.195708 
z
" style="stroke: #ffffff; stroke-linejoin: miter"/>
   </g>
   <g id="patch_12">
    <path d="M 300.906742 123.840414 
C 299.825606 124.906759 298.759583 125.98832 297.708994 127.084774 
C 296.658405 128.181228 295.623354 129.292464 294.60415 130.418152 
L 366.33811 195.366476 
C 366.745792 194.916201 367.159812 194.471706 367.580048 194.033125 
C 368.000283 193.594544 368.426692 193.161919 368.859147 192.735381 
z
" style="fill: #f7dc6f; stroke: #ffffff; stroke-linejoin: miter"/>
   </g>
   <g id="patch_13">
    <path d="M 294.60415 130.418152 
C 293.924688 131.168603 293.252306 131.925435 292.587094 132.688547 
C 291.921883 133.45166 291.263871 134.221018 290.613146 134.996521 
L 364.741708 197.197824 
C 365.001998 196.887623 365.265203 196.579879 365.531288 196.274634 
C 365.797372 195.96939 366.066325 195.666657 366.33811 195.366476 
z
" style="fill: #2c3e50; stroke: #ffffff; stroke-linejoin: miter"/>
   </g>
   <g id="matplotlib.axis_1"/>
   <g id="matplotlib.axis_2"/>
   <g id="patch_14">
    <path d="M 192.366356 433.095318 
L 299.360845 433.095318 
L 331.145828 379.26293 
" style="fill: none; stroke: #000000; stroke-linecap: round"/>
   </g>
   <g id="text_1">
    <!-- Hidráulica (55.30%) -->
    <g transform="translate(73.299687 436.458599) scale(0.14 -0.14)">
     <defs>
      <path id="TimesNewRomanPSMT-48" d="M 1316 2272 
L 3284 2272 
L 3284 3484 
Q 3284 3809 3244 3913 
Q 3213 3991 3113 4047 
Q 2978 4122 2828 4122 
L 2678 4122 
L 2678 4238 
L 4491 4238 
L 4491 4122 
L 4341 4122 
Q 4191 4122 4056 4050 
Q 3956 4000 3920 3898 
Q 3884 3797 3884 3484 
L 3884 750 
Q 3884 428 3925 325 
Q 3956 247 4053 191 
Q 4191 116 4341 116 
L 4491 116 
L 4491 0 
L 2678 0 
L 2678 116 
L 2828 116 
Q 3088 116 3206 269 
Q 3284 369 3284 750 
L 3284 2041 
L 1316 2041 
L 1316 750 
Q 1316 428 1356 325 
Q 1388 247 1488 191 
Q 1622 116 1772 116 
L 1925 116 
L 1925 0 
L 109 0 
L 109 116 
L 259 116 
Q 522 116 641 269 
Q 716 369 716 750 
L 716 3484 
Q 716 3809 675 3913 
Q 644 3991 547 4047 
Q 409 4122 259 4122 
L 109 4122 
L 109 4238 
L 1925 4238 
L 1925 4122 
L 1772 4122 
Q 1622 4122 1488 4050 
Q 1391 4000 1353 3898 
Q 1316 3797 1316 3484 
L 1316 2272 
z
" transform="scale(0.015625)"/>
      <path id="TimesNewRomanPSMT-69" d="M 928 4444 
Q 1059 4444 1151 4351 
Q 1244 4259 1244 4128 
Q 1244 3997 1151 3903 
Q 1059 3809 928 3809 
Q 797 3809 703 3903 
Q 609 3997 609 4128 
Q 609 4259 701 4351 
Q 794 4444 928 4444 
z
M 1188 2947 
L 1188 647 
Q 1188 378 1227 289 
Q 1266 200 1342 156 
Q 1419 113 1622 113 
L 1622 0 
L 231 0 
L 231 113 
Q 441 113 512 153 
Q 584 194 626 287 
Q 669 381 669 647 
L 669 1750 
Q 669 2216 641 2353 
Q 619 2453 572 2492 
Q 525 2531 444 2531 
Q 356 2531 231 2484 
L 188 2597 
L 1050 2947 
L 1188 2947 
z
" transform="scale(0.015625)"/>
      <path id="TimesNewRomanPSMT-64" d="M 2222 322 
Q 2013 103 1813 7 
Q 1613 -88 1381 -88 
Q 913 -88 563 304 
Q 213 697 213 1313 
Q 213 1928 600 2439 
Q 988 2950 1597 2950 
Q 1975 2950 2222 2709 
L 2222 3238 
Q 2222 3728 2198 3840 
Q 2175 3953 2125 3993 
Q 2075 4034 2000 4034 
Q 1919 4034 1784 3984 
L 1744 4094 
L 2597 4444 
L 2738 4444 
L 2738 1134 
Q 2738 631 2761 520 
Q 2784 409 2836 365 
Q 2888 322 2956 322 
Q 3041 322 3181 375 
L 3216 266 
L 2366 -88 
L 2222 -88 
L 2222 322 
z
M 2222 541 
L 2222 2016 
Q 2203 2228 2109 2403 
Q 2016 2578 1861 2667 
Q 1706 2756 1559 2756 
Q 1284 2756 1069 2509 
Q 784 2184 784 1559 
Q 784 928 1059 592 
Q 1334 256 1672 256 
Q 1956 256 2222 541 
z
" transform="scale(0.015625)"/>
      <path id="TimesNewRomanPSMT-72" d="M 1038 2947 
L 1038 2303 
Q 1397 2947 1775 2947 
Q 1947 2947 2059 2842 
Q 2172 2738 2172 2600 
Q 2172 2478 2090 2393 
Q 2009 2309 1897 2309 
Q 1788 2309 1652 2417 
Q 1516 2525 1450 2525 
Q 1394 2525 1328 2463 
Q 1188 2334 1038 2041 
L 1038 669 
Q 1038 431 1097 309 
Q 1138 225 1241 169 
Q 1344 113 1538 113 
L 1538 0 
L 72 0 
L 72 113 
Q 291 113 397 181 
Q 475 231 506 341 
Q 522 394 522 644 
L 522 1753 
Q 522 2253 501 2348 
Q 481 2444 426 2487 
Q 372 2531 291 2531 
Q 194 2531 72 2484 
L 41 2597 
L 906 2947 
L 1038 2947 
z
" transform="scale(0.015625)"/>
      <path id="TimesNewRomanPSMT-e1" d="M 1822 413 
Q 1381 72 1269 19 
Q 1100 -59 909 -59 
Q 613 -59 420 144 
Q 228 347 228 678 
Q 228 888 322 1041 
Q 450 1253 767 1440 
Q 1084 1628 1822 1897 
L 1822 2009 
Q 1822 2438 1686 2597 
Q 1550 2756 1291 2756 
Q 1094 2756 978 2650 
Q 859 2544 859 2406 
L 866 2225 
Q 866 2081 792 2003 
Q 719 1925 600 1925 
Q 484 1925 411 2006 
Q 338 2088 338 2228 
Q 338 2497 613 2722 
Q 888 2947 1384 2947 
Q 1766 2947 2009 2819 
Q 2194 2722 2281 2516 
Q 2338 2381 2338 1966 
L 2338 994 
Q 2338 584 2353 492 
Q 2369 400 2405 369 
Q 2441 338 2488 338 
Q 2538 338 2575 359 
Q 2641 400 2828 588 
L 2828 413 
Q 2478 -56 2159 -56 
Q 2006 -56 1915 50 
Q 1825 156 1822 413 
z
M 1822 616 
L 1822 1706 
Q 1350 1519 1213 1441 
Q 966 1303 859 1153 
Q 753 1003 753 825 
Q 753 600 887 451 
Q 1022 303 1197 303 
Q 1434 303 1822 616 
z
M 2134 4344 
L 1212 3266 
L 1106 3266 
L 1434 4344 
L 2134 4344 
z
" transform="scale(0.015625)"/>
      <path id="TimesNewRomanPSMT-75" d="M 2709 2863 
L 2709 1128 
Q 2709 631 2732 520 
Q 2756 409 2807 365 
Q 2859 322 2928 322 
Q 3025 322 3147 375 
L 3191 266 
L 2334 -88 
L 2194 -88 
L 2194 519 
Q 1825 119 1631 15 
Q 1438 -88 1222 -88 
Q 981 -88 804 51 
Q 628 191 559 409 
Q 491 628 491 1028 
L 491 2306 
Q 491 2509 447 2587 
Q 403 2666 317 2708 
Q 231 2750 6 2747 
L 6 2863 
L 1009 2863 
L 1009 947 
Q 1009 547 1148 422 
Q 1288 297 1484 297 
Q 1619 297 1789 381 
Q 1959 466 2194 703 
L 2194 2325 
Q 2194 2569 2105 2655 
Q 2016 2741 1734 2747 
L 1734 2863 
L 2709 2863 
z
" transform="scale(0.015625)"/>
      <path id="TimesNewRomanPSMT-6c" d="M 1184 4444 
L 1184 647 
Q 1184 378 1223 290 
Q 1263 203 1344 158 
Q 1425 113 1647 113 
L 1647 0 
L 244 0 
L 244 113 
Q 441 113 512 153 
Q 584 194 625 287 
Q 666 381 666 647 
L 666 3247 
Q 666 3731 644 3842 
Q 622 3953 573 3993 
Q 525 4034 450 4034 
Q 369 4034 244 3984 
L 191 4094 
L 1044 4444 
L 1184 4444 
z
" transform="scale(0.015625)"/>
      <path id="TimesNewRomanPSMT-63" d="M 2631 1088 
Q 2516 522 2178 217 
Q 1841 -88 1431 -88 
Q 944 -88 581 321 
Q 219 731 219 1428 
Q 219 2103 620 2525 
Q 1022 2947 1584 2947 
Q 2006 2947 2278 2723 
Q 2550 2500 2550 2259 
Q 2550 2141 2473 2067 
Q 2397 1994 2259 1994 
Q 2075 1994 1981 2113 
Q 1928 2178 1911 2362 
Q 1894 2547 1784 2644 
Q 1675 2738 1481 2738 
Q 1169 2738 978 2506 
Q 725 2200 725 1697 
Q 725 1184 976 792 
Q 1228 400 1656 400 
Q 1963 400 2206 609 
Q 2378 753 2541 1131 
L 2631 1088 
z
" transform="scale(0.015625)"/>
      <path id="TimesNewRomanPSMT-61" d="M 1822 413 
Q 1381 72 1269 19 
Q 1100 -59 909 -59 
Q 613 -59 420 144 
Q 228 347 228 678 
Q 228 888 322 1041 
Q 450 1253 767 1440 
Q 1084 1628 1822 1897 
L 1822 2009 
Q 1822 2438 1686 2597 
Q 1550 2756 1291 2756 
Q 1094 2756 978 2650 
Q 859 2544 859 2406 
L 866 2225 
Q 866 2081 792 2003 
Q 719 1925 600 1925 
Q 484 1925 411 2006 
Q 338 2088 338 2228 
Q 338 2497 613 2722 
Q 888 2947 1384 2947 
Q 1766 2947 2009 2819 
Q 2194 2722 2281 2516 
Q 2338 2381 2338 1966 
L 2338 994 
Q 2338 584 2353 492 
Q 2369 400 2405 369 
Q 2441 338 2488 338 
Q 2538 338 2575 359 
Q 2641 400 2828 588 
L 2828 413 
Q 2478 -56 2159 -56 
Q 2006 -56 1915 50 
Q 1825 156 1822 413 
z
M 1822 616 
L 1822 1706 
Q 1350 1519 1213 1441 
Q 966 1303 859 1153 
Q 753 1003 753 825 
Q 753 600 887 451 
Q 1022 303 1197 303 
Q 1434 303 1822 616 
z
" transform="scale(0.015625)"/>
      <path id="TimesNewRomanPSMT-20" transform="scale(0.015625)"/>
      <path id="TimesNewRomanPSMT-28" d="M 1988 -1253 
L 1988 -1369 
Q 1516 -1131 1200 -813 
Q 750 -359 506 256 
Q 263 872 263 1534 
Q 263 2503 741 3301 
Q 1219 4100 1988 4444 
L 1988 4313 
Q 1603 4100 1356 3731 
Q 1109 3363 987 2797 
Q 866 2231 866 1616 
Q 866 947 969 400 
Q 1050 -31 1165 -292 
Q 1281 -553 1476 -793 
Q 1672 -1034 1988 -1253 
z
" transform="scale(0.015625)"/>
      <path id="TimesNewRomanPSMT-35" d="M 2778 4238 
L 2534 3706 
L 1259 3706 
L 981 3138 
Q 1809 3016 2294 2522 
Q 2709 2097 2709 1522 
Q 2709 1188 2573 903 
Q 2438 619 2231 419 
Q 2025 219 1772 97 
Q 1413 -75 1034 -75 
Q 653 -75 479 54 
Q 306 184 306 341 
Q 306 428 378 495 
Q 450 563 559 563 
Q 641 563 702 538 
Q 763 513 909 409 
Q 1144 247 1384 247 
Q 1750 247 2026 523 
Q 2303 800 2303 1197 
Q 2303 1581 2056 1914 
Q 1809 2247 1375 2428 
Q 1034 2569 447 2591 
L 1259 4238 
L 2778 4238 
z
" transform="scale(0.015625)"/>
      <path id="TimesNewRomanPSMT-2e" d="M 800 606 
Q 947 606 1047 504 
Q 1147 403 1147 259 
Q 1147 116 1045 14 
Q 944 -88 800 -88 
Q 656 -88 554 14 
Q 453 116 453 259 
Q 453 406 554 506 
Q 656 606 800 606 
z
" transform="scale(0.015625)"/>
      <path id="TimesNewRomanPSMT-33" d="M 325 3431 
Q 506 3859 782 4092 
Q 1059 4325 1472 4325 
Q 1981 4325 2253 3994 
Q 2459 3747 2459 3466 
Q 2459 3003 1878 2509 
Q 2269 2356 2469 2072 
Q 2669 1788 2669 1403 
Q 2669 853 2319 450 
Q 1863 -75 997 -75 
Q 569 -75 414 31 
Q 259 138 259 259 
Q 259 350 332 419 
Q 406 488 509 488 
Q 588 488 669 463 
Q 722 447 909 348 
Q 1097 250 1169 231 
Q 1284 197 1416 197 
Q 1734 197 1970 444 
Q 2206 691 2206 1028 
Q 2206 1275 2097 1509 
Q 2016 1684 1919 1775 
Q 1784 1900 1550 2001 
Q 1316 2103 1072 2103 
L 972 2103 
L 972 2197 
Q 1219 2228 1467 2375 
Q 1716 2522 1828 2728 
Q 1941 2934 1941 3181 
Q 1941 3503 1739 3701 
Q 1538 3900 1238 3900 
Q 753 3900 428 3381 
L 325 3431 
z
" transform="scale(0.015625)"/>
      <path id="TimesNewRomanPSMT-30" d="M 231 2094 
Q 231 2819 450 3342 
Q 669 3866 1031 4122 
Q 1313 4325 1613 4325 
Q 2100 4325 2488 3828 
Q 2972 3213 2972 2159 
Q 2972 1422 2759 906 
Q 2547 391 2217 158 
Q 1888 -75 1581 -75 
Q 975 -75 572 641 
Q 231 1244 231 2094 
z
M 844 2016 
Q 844 1141 1059 588 
Q 1238 122 1591 122 
Q 1759 122 1940 273 
Q 2122 425 2216 781 
Q 2359 1319 2359 2297 
Q 2359 3022 2209 3506 
Q 2097 3866 1919 4016 
Q 1791 4119 1609 4119 
Q 1397 4119 1231 3928 
Q 1006 3669 925 3112 
Q 844 2556 844 2016 
z
" transform="scale(0.015625)"/>
      <path id="TimesNewRomanPSMT-25" d="M 4350 4334 
L 1263 -175 
L 984 -175 
L 4072 4334 
L 4350 4334 
z
M 1138 4334 
Q 1559 4334 1792 3984 
Q 2025 3634 2025 3181 
Q 2025 2638 1762 2341 
Q 1500 2044 1131 2044 
Q 884 2044 678 2180 
Q 472 2316 348 2584 
Q 225 2853 225 3181 
Q 225 3509 350 3786 
Q 475 4063 692 4198 
Q 909 4334 1138 4334 
z
M 1128 4159 
Q 969 4159 845 3971 
Q 722 3784 722 3184 
Q 722 2750 791 2522 
Q 844 2350 956 2256 
Q 1022 2200 1119 2200 
Q 1269 2200 1375 2363 
Q 1531 2603 1531 3166 
Q 1531 3759 1378 4000 
Q 1278 4159 1128 4159 
z
M 4206 2103 
Q 4428 2103 4648 1962 
Q 4869 1822 4989 1553 
Q 5109 1284 5109 963 
Q 5109 409 4843 117 
Q 4578 -175 4216 -175 
Q 3988 -175 3773 -34 
Q 3559 106 3436 367 
Q 3313 628 3313 963 
Q 3313 1291 3436 1562 
Q 3559 1834 3773 1968 
Q 3988 2103 4206 2103 
z
M 4209 1938 
Q 4059 1938 3950 1769 
Q 3809 1550 3809 941 
Q 3809 381 3953 159 
Q 4059 0 4209 0 
Q 4353 0 4466 172 
Q 4616 400 4616 956 
Q 4616 1544 4466 1778 
Q 4363 1938 4209 1938 
z
" transform="scale(0.015625)"/>
      <path id="TimesNewRomanPSMT-29" d="M 144 4313 
L 144 4444 
Q 619 4209 934 3891 
Q 1381 3434 1625 2820 
Q 1869 2206 1869 1541 
Q 1869 572 1392 -226 
Q 916 -1025 144 -1369 
L 144 -1253 
Q 528 -1038 776 -670 
Q 1025 -303 1145 264 
Q 1266 831 1266 1447 
Q 1266 2113 1163 2663 
Q 1084 3094 967 3353 
Q 850 3613 656 3853 
Q 463 4094 144 4313 
z
" transform="scale(0.015625)"/>
     </defs>
     <use xlink:href="#TimesNewRomanPSMT-48"/>
     <use xlink:href="#TimesNewRomanPSMT-69" x="72.216797"/>
     <use xlink:href="#TimesNewRomanPSMT-64" x="100"/>
     <use xlink:href="#TimesNewRomanPSMT-72" x="150"/>
     <use xlink:href="#TimesNewRomanPSMT-e1" x="183.300781"/>
     <use xlink:href="#TimesNewRomanPSMT-75" x="227.685547"/>
     <use xlink:href="#TimesNewRomanPSMT-6c" x="277.685547"/>
     <use xlink:href="#TimesNewRomanPSMT-69" x="305.46875"/>
     <use xlink:href="#TimesNewRomanPSMT-63" x="333.251953"/>
     <use xlink:href="#TimesNewRomanPSMT-61" x="377.636719"/>
     <use xlink:href="#TimesNewRomanPSMT-20" x="422.021484"/>
     <use xlink:href="#TimesNewRomanPSMT-28" x="447.021484"/>
     <use xlink:href="#TimesNewRomanPSMT-35" x="480.322266"/>
     <use xlink:href="#TimesNewRomanPSMT-35" x="530.322266"/>
     <use xlink:href="#TimesNewRomanPSMT-2e" x="580.322266"/>
     <use xlink:href="#TimesNewRomanPSMT-33" x="605.322266"/>
     <use xlink:href="#TimesNewRomanPSMT-30" x="655.322266"/>
     <use xlink:href="#TimesNewRomanPSMT-25" x="705.322266"/>
     <use xlink:href="#TimesNewRomanPSMT-29" x="788.623047"/>
    </g>
   </g>
   <g id="text_2">
    <!-- 55.3% -->
    <g transform="translate(333.410801 345.962235) scale(0.14 -0.14)">
     <defs>
      <path id="TimesNewRomanPS-BoldMT-35" d="M 975 4238 
L 2959 4238 
L 2644 3431 
L 975 3431 
L 816 3009 
Q 1894 2969 2475 2472 
Q 2953 2063 2953 1453 
Q 2953 1063 2731 689 
Q 2509 316 2106 114 
Q 1703 -88 1222 -88 
Q 703 -88 425 106 
Q 231 244 231 419 
Q 231 553 332 656 
Q 434 759 569 759 
Q 691 759 816 709 
Q 941 659 1244 447 
Q 1434 316 1572 266 
Q 1669 228 1791 228 
Q 2047 228 2226 415 
Q 2406 603 2406 866 
Q 2406 1416 1856 1759 
Q 1306 2103 469 2103 
Q 384 2103 216 2100 
L 975 4238 
z
" transform="scale(0.015625)"/>
      <path id="TimesNewRomanPS-BoldMT-2e" d="M 800 963 
Q 1019 963 1170 809 
Q 1322 656 1322 441 
Q 1322 225 1169 73 
Q 1016 -78 800 -78 
Q 584 -78 432 73 
Q 281 225 281 441 
Q 281 656 432 809 
Q 584 963 800 963 
z
" transform="scale(0.015625)"/>
      <path id="TimesNewRomanPS-BoldMT-33" d="M 947 2125 
L 947 2234 
Q 1303 2338 1440 2427 
Q 1578 2516 1678 2698 
Q 1778 2881 1778 3069 
Q 1778 3328 1589 3514 
Q 1400 3700 1119 3700 
Q 681 3700 375 3238 
L 259 3278 
Q 484 3800 836 4062 
Q 1188 4325 1619 4325 
Q 2059 4325 2345 4056 
Q 2631 3788 2631 3428 
Q 2631 3194 2498 2976 
Q 2366 2759 2081 2594 
Q 2447 2416 2639 2155 
Q 2831 1894 2831 1500 
Q 2831 838 2351 373 
Q 1872 -91 1066 -91 
Q 528 -91 281 88 
Q 103 213 103 409 
Q 103 553 206 654 
Q 309 756 444 756 
Q 547 756 638 713 
Q 688 688 992 439 
Q 1297 191 1563 191 
Q 1794 191 1959 373 
Q 2125 556 2125 838 
Q 2125 1266 1825 1627 
Q 1525 1988 947 2125 
z
" transform="scale(0.015625)"/>
      <path id="TimesNewRomanPS-BoldMT-25" d="M 4916 4334 
L 1906 -178 
L 1488 -178 
L 4494 4334 
L 4916 4334 
z
M 1494 4334 
Q 1938 4334 2242 4020 
Q 2547 3706 2547 3209 
Q 2547 2700 2240 2383 
Q 1934 2066 1481 2066 
Q 1034 2066 739 2372 
Q 444 2678 444 3178 
Q 444 3694 747 4014 
Q 1050 4334 1494 4334 
z
M 1494 4169 
Q 1425 4169 1381 4128 
Q 1303 4056 1264 3879 
Q 1225 3703 1225 3150 
Q 1225 2709 1278 2469 
Q 1309 2331 1384 2263 
Q 1431 2222 1494 2222 
Q 1563 2222 1603 2259 
Q 1675 2325 1709 2472 
Q 1763 2709 1763 3138 
Q 1763 3663 1713 3897 
Q 1678 4059 1600 4134 
Q 1563 4169 1494 4169 
z
M 4894 2097 
Q 5347 2097 5651 1786 
Q 5956 1475 5956 972 
Q 5956 463 5647 144 
Q 5338 -175 4900 -175 
Q 4466 -175 4161 144 
Q 3856 463 3856 963 
Q 3856 1466 4153 1781 
Q 4450 2097 4894 2097 
z
M 4903 1934 
Q 4841 1934 4797 1897 
Q 4722 1828 4681 1658 
Q 4641 1488 4641 1006 
Q 4641 494 4688 269 
Q 4722 109 4803 38 
Q 4844 0 4909 0 
Q 4969 0 5006 34 
Q 5084 106 5122 269 
Q 5175 497 5175 959 
Q 5175 1447 5125 1672 
Q 5088 1834 5013 1900 
Q 4975 1934 4903 1934 
z
" transform="scale(0.015625)"/>
     </defs>
     <use xlink:href="#TimesNewRomanPS-BoldMT-35"/>
     <use xlink:href="#TimesNewRomanPS-BoldMT-35" x="50"/>
     <use xlink:href="#TimesNewRomanPS-BoldMT-2e" x="100"/>
     <use xlink:href="#TimesNewRomanPS-BoldMT-33" x="125"/>
     <use xlink:href="#TimesNewRomanPS-BoldMT-25" x="175"/>
    </g>
   </g>
   <g id="patch_15">
    <path d="M 635.955807 222.238626 
L 576.998101 226.605191 
" style="fill: none; stroke: #000000; stroke-linecap: round"/>
   </g>
   <g id="text_3">
    <!-- Eólica (14.10%) -->
    <g transform="translate(639.95275 225.351559) scale(0.14 -0.14)">
     <defs>
      <path id="TimesNewRomanPSMT-45" d="M 1338 4006 
L 1338 2331 
L 2269 2331 
Q 2631 2331 2753 2441 
Q 2916 2584 2934 2947 
L 3050 2947 
L 3050 1472 
L 2934 1472 
Q 2891 1781 2847 1869 
Q 2791 1978 2662 2040 
Q 2534 2103 2269 2103 
L 1338 2103 
L 1338 706 
Q 1338 425 1363 364 
Q 1388 303 1450 267 
Q 1513 231 1688 231 
L 2406 231 
Q 2766 231 2928 281 
Q 3091 331 3241 478 
Q 3434 672 3638 1063 
L 3763 1063 
L 3397 0 
L 131 0 
L 131 116 
L 281 116 
Q 431 116 566 188 
Q 666 238 702 338 
Q 738 438 738 747 
L 738 3500 
Q 738 3903 656 3997 
Q 544 4122 281 4122 
L 131 4122 
L 131 4238 
L 3397 4238 
L 3444 3309 
L 3322 3309 
Q 3256 3644 3176 3769 
Q 3097 3894 2941 3959 
Q 2816 4006 2500 4006 
L 1338 4006 
z
" transform="scale(0.015625)"/>
      <path id="TimesNewRomanPSMT-f3" d="M 1600 2947 
Q 2250 2947 2644 2453 
Q 2978 2031 2978 1484 
Q 2978 1100 2793 706 
Q 2609 313 2286 112 
Q 1963 -88 1566 -88 
Q 919 -88 538 428 
Q 216 863 216 1403 
Q 216 1797 411 2186 
Q 606 2575 925 2761 
Q 1244 2947 1600 2947 
z
M 1503 2744 
Q 1338 2744 1170 2645 
Q 1003 2547 900 2300 
Q 797 2053 797 1666 
Q 797 1041 1045 587 
Q 1294 134 1700 134 
Q 2003 134 2200 384 
Q 2397 634 2397 1244 
Q 2397 2006 2069 2444 
Q 1847 2744 1503 2744 
z
M 2262 4344 
L 1340 3266 
L 1234 3266 
L 1562 4344 
L 2262 4344 
z
" transform="scale(0.015625)"/>
      <path id="TimesNewRomanPSMT-31" d="M 750 3822 
L 1781 4325 
L 1884 4325 
L 1884 747 
Q 1884 391 1914 303 
Q 1944 216 2037 169 
Q 2131 122 2419 116 
L 2419 0 
L 825 0 
L 825 116 
Q 1125 122 1212 167 
Q 1300 213 1334 289 
Q 1369 366 1369 747 
L 1369 3034 
Q 1369 3497 1338 3628 
Q 1316 3728 1258 3775 
Q 1200 3822 1119 3822 
Q 1003 3822 797 3725 
L 750 3822 
z
" transform="scale(0.015625)"/>
      <path id="TimesNewRomanPSMT-34" d="M 2978 1563 
L 2978 1119 
L 2409 1119 
L 2409 0 
L 1894 0 
L 1894 1119 
L 100 1119 
L 100 1519 
L 2066 4325 
L 2409 4325 
L 2409 1563 
L 2978 1563 
z
M 1894 1563 
L 1894 3666 
L 406 1563 
L 1894 1563 
z
" transform="scale(0.015625)"/>
     </defs>
     <use xlink:href="#TimesNewRomanPSMT-45"/>
     <use xlink:href="#TimesNewRomanPSMT-f3" x="61.083984"/>
     <use xlink:href="#TimesNewRomanPSMT-6c" x="111.083984"/>
     <use xlink:href="#TimesNewRomanPSMT-69" x="138.867188"/>
     <use xlink:href="#TimesNewRomanPSMT-63" x="166.650391"/>
     <use xlink:href="#TimesNewRomanPSMT-61" x="211.035156"/>
     <use xlink:href="#TimesNewRomanPSMT-20" x="255.419922"/>
     <use xlink:href="#TimesNewRomanPSMT-28" x="280.419922"/>
     <use xlink:href="#TimesNewRomanPSMT-31" x="313.720703"/>
     <use xlink:href="#TimesNewRomanPSMT-34" x="363.720703"/>
     <use xlink:href="#TimesNewRomanPSMT-2e" x="413.720703"/>
     <use xlink:href="#TimesNewRomanPSMT-31" x="438.720703"/>
     <use xlink:href="#TimesNewRomanPSMT-30" x="488.720703"/>
     <use xlink:href="#TimesNewRomanPSMT-25" x="538.720703"/>
     <use xlink:href="#TimesNewRomanPSMT-29" x="622.021484"/>
    </g>
   </g>
   <g id="text_4">
    <!-- 14.1% -->
    <g transform="translate(515.540359 232.869177) scale(0.14 -0.14)">
     <defs>
      <path id="TimesNewRomanPS-BoldMT-31" d="M 2084 4325 
L 2084 859 
Q 2084 469 2118 361 
Q 2153 253 2262 184 
Q 2372 116 2613 116 
L 2709 116 
L 2709 0 
L 478 0 
L 478 116 
L 591 116 
Q 863 116 978 178 
Q 1094 241 1134 350 
Q 1175 459 1175 859 
L 1175 3056 
Q 1175 3350 1147 3423 
Q 1119 3497 1042 3548 
Q 966 3600 866 3600 
Q 706 3600 478 3500 
L 422 3613 
L 1981 4325 
L 2084 4325 
z
" transform="scale(0.015625)"/>
      <path id="TimesNewRomanPS-BoldMT-34" d="M 159 1597 
L 2172 4325 
L 2553 4325 
L 2553 1597 
L 2941 1597 
L 2941 950 
L 2553 950 
L 2553 0 
L 1694 0 
L 1694 950 
L 159 950 
L 159 1597 
z
M 463 1597 
L 1694 1597 
L 1694 3269 
L 463 1597 
z
" transform="scale(0.015625)"/>
     </defs>
     <use xlink:href="#TimesNewRomanPS-BoldMT-31"/>
     <use xlink:href="#TimesNewRomanPS-BoldMT-34" x="50"/>
     <use xlink:href="#TimesNewRomanPS-BoldMT-2e" x="100"/>
     <use xlink:href="#TimesNewRomanPS-BoldMT-31" x="125"/>
     <use xlink:href="#TimesNewRomanPS-BoldMT-25" x="175"/>
    </g>
   </g>
   <g id="patch_16">
    <path d="M 635.950942 75.387955 
L 570.117528 75.387955 
L 526.937322 120.595045 
" style="fill: none; stroke: #000000; stroke-linecap: round"/>
   </g>
   <g id="text_5">
    <!-- Solar (9.30%) -->
    <g transform="translate(639.95275 78.751236) scale(0.14 -0.14)">
     <defs>
      <path id="TimesNewRomanPSMT-53" d="M 2934 4334 
L 2934 2869 
L 2819 2869 
Q 2763 3291 2617 3541 
Q 2472 3791 2203 3937 
Q 1934 4084 1647 4084 
Q 1322 4084 1109 3886 
Q 897 3688 897 3434 
Q 897 3241 1031 3081 
Q 1225 2847 1953 2456 
Q 2547 2138 2764 1967 
Q 2981 1797 3098 1565 
Q 3216 1334 3216 1081 
Q 3216 600 2842 251 
Q 2469 -97 1881 -97 
Q 1697 -97 1534 -69 
Q 1438 -53 1133 45 
Q 828 144 747 144 
Q 669 144 623 97 
Q 578 50 556 -97 
L 441 -97 
L 441 1356 
L 556 1356 
Q 638 900 775 673 
Q 913 447 1195 297 
Q 1478 147 1816 147 
Q 2206 147 2432 353 
Q 2659 559 2659 841 
Q 2659 997 2573 1156 
Q 2488 1316 2306 1453 
Q 2184 1547 1640 1851 
Q 1097 2156 867 2337 
Q 638 2519 519 2737 
Q 400 2956 400 3219 
Q 400 3675 750 4004 
Q 1100 4334 1641 4334 
Q 1978 4334 2356 4169 
Q 2531 4091 2603 4091 
Q 2684 4091 2736 4139 
Q 2788 4188 2819 4334 
L 2934 4334 
z
" transform="scale(0.015625)"/>
      <path id="TimesNewRomanPSMT-6f" d="M 1600 2947 
Q 2250 2947 2644 2453 
Q 2978 2031 2978 1484 
Q 2978 1100 2793 706 
Q 2609 313 2286 112 
Q 1963 -88 1566 -88 
Q 919 -88 538 428 
Q 216 863 216 1403 
Q 216 1797 411 2186 
Q 606 2575 925 2761 
Q 1244 2947 1600 2947 
z
M 1503 2744 
Q 1338 2744 1170 2645 
Q 1003 2547 900 2300 
Q 797 2053 797 1666 
Q 797 1041 1045 587 
Q 1294 134 1700 134 
Q 2003 134 2200 384 
Q 2397 634 2397 1244 
Q 2397 2006 2069 2444 
Q 1847 2744 1503 2744 
z
" transform="scale(0.015625)"/>
      <path id="TimesNewRomanPSMT-39" d="M 338 -88 
L 338 28 
Q 744 34 1094 217 
Q 1444 400 1770 856 
Q 2097 1313 2225 1859 
Q 1734 1544 1338 1544 
Q 891 1544 572 1889 
Q 253 2234 253 2806 
Q 253 3363 572 3797 
Q 956 4325 1575 4325 
Q 2097 4325 2469 3894 
Q 2925 3359 2925 2575 
Q 2925 1869 2578 1258 
Q 2231 647 1613 244 
Q 1109 -88 516 -88 
L 338 -88 
z
M 2275 2091 
Q 2331 2497 2331 2741 
Q 2331 3044 2228 3395 
Q 2125 3747 1936 3934 
Q 1747 4122 1506 4122 
Q 1228 4122 1018 3872 
Q 809 3622 809 3128 
Q 809 2469 1088 2097 
Q 1291 1828 1588 1828 
Q 1731 1828 1928 1897 
Q 2125 1966 2275 2091 
z
" transform="scale(0.015625)"/>
     </defs>
     <use xlink:href="#TimesNewRomanPSMT-53"/>
     <use xlink:href="#TimesNewRomanPSMT-6f" x="55.615234"/>
     <use xlink:href="#TimesNewRomanPSMT-6c" x="105.615234"/>
     <use xlink:href="#TimesNewRomanPSMT-61" x="133.398438"/>
     <use xlink:href="#TimesNewRomanPSMT-72" x="177.783203"/>
     <use xlink:href="#TimesNewRomanPSMT-20" x="211.083984"/>
     <use xlink:href="#TimesNewRomanPSMT-28" x="236.083984"/>
     <use xlink:href="#TimesNewRomanPSMT-39" x="269.384766"/>
     <use xlink:href="#TimesNewRomanPSMT-2e" x="319.384766"/>
     <use xlink:href="#TimesNewRomanPSMT-33" x="344.384766"/>
     <use xlink:href="#TimesNewRomanPSMT-30" x="394.384766"/>
     <use xlink:href="#TimesNewRomanPSMT-25" x="444.384766"/>
     <use xlink:href="#TimesNewRomanPSMT-29" x="527.685547"/>
    </g>
   </g>
   <g id="text_6">
    <!-- 9.3% -->
    <g transform="translate(481.959024 154.33329) scale(0.14 -0.14)">
     <defs>
      <path id="TimesNewRomanPS-BoldMT-39" d="M 197 -88 
L 197 0 
Q 716 119 1077 350 
Q 1438 581 1648 922 
Q 1859 1263 1944 1706 
Q 1750 1606 1614 1567 
Q 1478 1528 1328 1528 
Q 847 1528 526 1875 
Q 206 2222 206 2825 
Q 206 3244 379 3592 
Q 553 3941 875 4133 
Q 1197 4325 1544 4325 
Q 1916 4325 2247 4112 
Q 2578 3900 2775 3497 
Q 2972 3094 2972 2578 
Q 2972 1909 2651 1296 
Q 2331 684 1697 314 
Q 1063 -56 197 -88 
z
M 1991 1969 
Q 2022 2319 2022 2584 
Q 2022 3153 1891 3644 
Q 1816 3916 1669 4044 
Q 1591 4113 1466 4113 
Q 1309 4113 1222 3978 
Q 1100 3794 1100 3275 
Q 1100 2409 1306 2081 
Q 1441 1869 1669 1869 
Q 1791 1869 1991 1969 
z
" transform="scale(0.015625)"/>
     </defs>
     <use xlink:href="#TimesNewRomanPS-BoldMT-39"/>
     <use xlink:href="#TimesNewRomanPS-BoldMT-2e" x="50"/>
     <use xlink:href="#TimesNewRomanPS-BoldMT-33" x="75"/>
     <use xlink:href="#TimesNewRomanPS-BoldMT-25" x="125"/>
    </g>
   </g>
   <g id="patch_17">
    <path d="M 635.949428 21.227436 
L 475.011198 21.227436 
L 458.163358 81.430106 
" style="fill: none; stroke: #000000; stroke-linecap: round"/>
   </g>
   <g id="text_7">
    <!-- Gás natural (6.30%) -->
    <g transform="translate(639.95275 24.590718) scale(0.14 -0.14)">
     <defs>
      <path id="TimesNewRomanPSMT-47" d="M 3928 4334 
L 4038 2997 
L 3928 2997 
Q 3763 3497 3500 3750 
Q 3122 4116 2528 4116 
Q 1719 4116 1297 3475 
Q 944 2934 944 2188 
Q 944 1581 1178 1081 
Q 1413 581 1792 348 
Q 2172 116 2572 116 
Q 2806 116 3025 175 
Q 3244 234 3447 350 
L 3447 1575 
Q 3447 1894 3398 1992 
Q 3350 2091 3248 2142 
Q 3147 2194 2891 2194 
L 2891 2313 
L 4531 2313 
L 4531 2194 
L 4453 2194 
Q 4209 2194 4119 2031 
Q 4056 1916 4056 1575 
L 4056 278 
Q 3697 84 3347 -6 
Q 2997 -97 2569 -97 
Q 1341 -97 703 691 
Q 225 1281 225 2053 
Q 225 2613 494 3125 
Q 813 3734 1369 4063 
Q 1834 4334 2469 4334 
Q 2700 4334 2889 4296 
Q 3078 4259 3425 4131 
Q 3600 4066 3659 4066 
Q 3719 4066 3761 4120 
Q 3803 4175 3813 4334 
L 3928 4334 
z
" transform="scale(0.015625)"/>
      <path id="TimesNewRomanPSMT-73" d="M 2050 2947 
L 2050 1972 
L 1947 1972 
Q 1828 2431 1642 2597 
Q 1456 2763 1169 2763 
Q 950 2763 815 2647 
Q 681 2531 681 2391 
Q 681 2216 781 2091 
Q 878 1963 1175 1819 
L 1631 1597 
Q 2266 1288 2266 781 
Q 2266 391 1970 151 
Q 1675 -88 1309 -88 
Q 1047 -88 709 6 
Q 606 38 541 38 
Q 469 38 428 -44 
L 325 -44 
L 325 978 
L 428 978 
Q 516 541 762 319 
Q 1009 97 1316 97 
Q 1531 97 1667 223 
Q 1803 350 1803 528 
Q 1803 744 1651 891 
Q 1500 1038 1047 1263 
Q 594 1488 453 1669 
Q 313 1847 313 2119 
Q 313 2472 555 2709 
Q 797 2947 1181 2947 
Q 1350 2947 1591 2875 
Q 1750 2828 1803 2828 
Q 1853 2828 1881 2850 
Q 1909 2872 1947 2947 
L 2050 2947 
z
" transform="scale(0.015625)"/>
      <path id="TimesNewRomanPSMT-6e" d="M 1034 2341 
Q 1538 2947 1994 2947 
Q 2228 2947 2397 2830 
Q 2566 2713 2666 2444 
Q 2734 2256 2734 1869 
L 2734 647 
Q 2734 375 2778 278 
Q 2813 200 2889 156 
Q 2966 113 3172 113 
L 3172 0 
L 1756 0 
L 1756 113 
L 1816 113 
Q 2016 113 2095 173 
Q 2175 234 2206 353 
Q 2219 400 2219 647 
L 2219 1819 
Q 2219 2209 2117 2386 
Q 2016 2563 1775 2563 
Q 1403 2563 1034 2156 
L 1034 647 
Q 1034 356 1069 288 
Q 1113 197 1189 155 
Q 1266 113 1500 113 
L 1500 0 
L 84 0 
L 84 113 
L 147 113 
Q 366 113 442 223 
Q 519 334 519 647 
L 519 1709 
Q 519 2225 495 2337 
Q 472 2450 423 2490 
Q 375 2531 294 2531 
Q 206 2531 84 2484 
L 38 2597 
L 900 2947 
L 1034 2947 
L 1034 2341 
z
" transform="scale(0.015625)"/>
      <path id="TimesNewRomanPSMT-74" d="M 1031 3803 
L 1031 2863 
L 1700 2863 
L 1700 2644 
L 1031 2644 
L 1031 788 
Q 1031 509 1111 412 
Q 1191 316 1316 316 
Q 1419 316 1516 380 
Q 1613 444 1666 569 
L 1788 569 
Q 1678 263 1478 108 
Q 1278 -47 1066 -47 
Q 922 -47 784 33 
Q 647 113 581 261 
Q 516 409 516 719 
L 516 2644 
L 63 2644 
L 63 2747 
Q 234 2816 414 2980 
Q 594 3144 734 3369 
Q 806 3488 934 3803 
L 1031 3803 
z
" transform="scale(0.015625)"/>
      <path id="TimesNewRomanPSMT-36" d="M 2869 4325 
L 2869 4209 
Q 2456 4169 2195 4045 
Q 1934 3922 1679 3669 
Q 1425 3416 1258 3105 
Q 1091 2794 978 2366 
Q 1428 2675 1881 2675 
Q 2316 2675 2634 2325 
Q 2953 1975 2953 1425 
Q 2953 894 2631 456 
Q 2244 -75 1606 -75 
Q 1172 -75 869 213 
Q 275 772 275 1663 
Q 275 2231 503 2743 
Q 731 3256 1154 3653 
Q 1578 4050 1965 4187 
Q 2353 4325 2688 4325 
L 2869 4325 
z
M 925 2138 
Q 869 1716 869 1456 
Q 869 1156 980 804 
Q 1091 453 1309 247 
Q 1469 100 1697 100 
Q 1969 100 2183 356 
Q 2397 613 2397 1088 
Q 2397 1622 2184 2012 
Q 1972 2403 1581 2403 
Q 1463 2403 1327 2353 
Q 1191 2303 925 2138 
z
" transform="scale(0.015625)"/>
     </defs>
     <use xlink:href="#TimesNewRomanPSMT-47"/>
     <use xlink:href="#TimesNewRomanPSMT-e1" x="72.216797"/>
     <use xlink:href="#TimesNewRomanPSMT-73" x="116.601562"/>
     <use xlink:href="#TimesNewRomanPSMT-20" x="155.517578"/>
     <use xlink:href="#TimesNewRomanPSMT-6e" x="180.517578"/>
     <use xlink:href="#TimesNewRomanPSMT-61" x="230.517578"/>
     <use xlink:href="#TimesNewRomanPSMT-74" x="274.902344"/>
     <use xlink:href="#TimesNewRomanPSMT-75" x="302.685547"/>
     <use xlink:href="#TimesNewRomanPSMT-72" x="352.685547"/>
     <use xlink:href="#TimesNewRomanPSMT-61" x="385.986328"/>
     <use xlink:href="#TimesNewRomanPSMT-6c" x="430.371094"/>
     <use xlink:href="#TimesNewRomanPSMT-20" x="458.154297"/>
     <use xlink:href="#TimesNewRomanPSMT-28" x="483.154297"/>
     <use xlink:href="#TimesNewRomanPSMT-36" x="516.455078"/>
     <use xlink:href="#TimesNewRomanPSMT-2e" x="566.455078"/>
     <use xlink:href="#TimesNewRomanPSMT-33" x="591.455078"/>
     <use xlink:href="#TimesNewRomanPSMT-30" x="641.455078"/>
     <use xlink:href="#TimesNewRomanPSMT-25" x="691.455078"/>
     <use xlink:href="#TimesNewRomanPSMT-29" x="774.755859"/>
    </g>
   </g>
   <g id="text_8">
    <!-- 6.3% -->
    <g style="fill: #ffffff" transform="translate(431.009204 125.318726) scale(0.14 -0.14)">
     <defs>
      <path id="TimesNewRomanPS-BoldMT-36" d="M 3006 4325 
L 3006 4238 
Q 2441 4094 2098 3867 
Q 1756 3641 1557 3317 
Q 1359 2994 1250 2516 
Q 1388 2609 1478 2638 
Q 1681 2700 1888 2700 
Q 2363 2700 2680 2354 
Q 2997 2009 2997 1413 
Q 2997 994 2825 644 
Q 2653 294 2337 103 
Q 2022 -88 1663 -88 
Q 1272 -88 940 126 
Q 609 341 423 753 
Q 238 1166 238 1650 
Q 238 2363 580 2977 
Q 922 3591 1551 3955 
Q 2181 4319 3006 4325 
z
M 1209 2263 
Q 1184 1831 1184 1631 
Q 1184 1200 1267 797 
Q 1350 394 1494 231 
Q 1597 116 1738 116 
Q 1881 116 1993 283 
Q 2106 450 2106 963 
Q 2106 1825 1897 2153 
Q 1763 2366 1534 2366 
Q 1409 2366 1209 2263 
z
" transform="scale(0.015625)"/>
     </defs>
     <use xlink:href="#TimesNewRomanPS-BoldMT-36"/>
     <use xlink:href="#TimesNewRomanPS-BoldMT-2e" x="50"/>
     <use xlink:href="#TimesNewRomanPS-BoldMT-33" x="75"/>
     <use xlink:href="#TimesNewRomanPS-BoldMT-25" x="125"/>
    </g>
   </g>
   <g id="patch_18">
    <path d="M 192.370722 13.571094 
L 396.423812 13.571094 
L 401.33469 75.893597 
" style="fill: none; stroke: #000000; stroke-linecap: round"/>
   </g>
   <g id="text_9">
    <!-- Bagaço de cana (4.90%) -->
    <g transform="translate(51.542812 16.92125) scale(0.14 -0.14)">
     <defs>
      <path id="TimesNewRomanPSMT-42" d="M 2956 2163 
Q 3397 2069 3616 1863 
Q 3919 1575 3919 1159 
Q 3919 844 3719 555 
Q 3519 266 3170 133 
Q 2822 0 2106 0 
L 106 0 
L 106 116 
L 266 116 
Q 531 116 647 284 
Q 719 394 719 750 
L 719 3488 
Q 719 3881 628 3984 
Q 506 4122 266 4122 
L 106 4122 
L 106 4238 
L 1938 4238 
Q 2450 4238 2759 4163 
Q 3228 4050 3475 3764 
Q 3722 3478 3722 3106 
Q 3722 2788 3528 2536 
Q 3334 2284 2956 2163 
z
M 1319 2331 
Q 1434 2309 1582 2298 
Q 1731 2288 1909 2288 
Q 2366 2288 2595 2386 
Q 2825 2484 2947 2687 
Q 3069 2891 3069 3131 
Q 3069 3503 2766 3765 
Q 2463 4028 1881 4028 
Q 1569 4028 1319 3959 
L 1319 2331 
z
M 1319 306 
Q 1681 222 2034 222 
Q 2600 222 2897 476 
Q 3194 731 3194 1106 
Q 3194 1353 3059 1581 
Q 2925 1809 2622 1940 
Q 2319 2072 1872 2072 
Q 1678 2072 1540 2065 
Q 1403 2059 1319 2044 
L 1319 306 
z
" transform="scale(0.015625)"/>
      <path id="TimesNewRomanPSMT-67" d="M 966 1044 
Q 703 1172 562 1401 
Q 422 1631 422 1909 
Q 422 2334 742 2640 
Q 1063 2947 1563 2947 
Q 1972 2947 2272 2747 
L 2878 2747 
Q 3013 2747 3034 2739 
Q 3056 2731 3066 2713 
Q 3084 2684 3084 2613 
Q 3084 2531 3069 2500 
Q 3059 2484 3036 2475 
Q 3013 2466 2878 2466 
L 2506 2466 
Q 2681 2241 2681 1891 
Q 2681 1491 2375 1206 
Q 2069 922 1553 922 
Q 1341 922 1119 984 
Q 981 866 932 777 
Q 884 688 884 625 
Q 884 572 936 522 
Q 988 472 1138 450 
Q 1225 438 1575 428 
Q 2219 413 2409 384 
Q 2700 344 2873 169 
Q 3047 -6 3047 -263 
Q 3047 -616 2716 -925 
Q 2228 -1381 1444 -1381 
Q 841 -1381 425 -1109 
Q 191 -953 191 -784 
Q 191 -709 225 -634 
Q 278 -519 444 -313 
Q 466 -284 763 25 
Q 600 122 533 198 
Q 466 275 466 372 
Q 466 481 555 628 
Q 644 775 966 1044 
z
M 1509 2797 
Q 1278 2797 1122 2612 
Q 966 2428 966 2047 
Q 966 1553 1178 1281 
Q 1341 1075 1591 1075 
Q 1828 1075 1981 1253 
Q 2134 1431 2134 1813 
Q 2134 2309 1919 2591 
Q 1759 2797 1509 2797 
z
M 934 0 
Q 788 -159 713 -296 
Q 638 -434 638 -550 
Q 638 -700 819 -813 
Q 1131 -1006 1722 -1006 
Q 2284 -1006 2551 -807 
Q 2819 -609 2819 -384 
Q 2819 -222 2659 -153 
Q 2497 -84 2016 -72 
Q 1313 -53 934 0 
z
" transform="scale(0.015625)"/>
      <path id="TimesNewRomanPSMT-e7" d="M 2631 1088 
Q 2516 522 2178 217 
Q 1841 -88 1431 -88 
Q 944 -88 581 321 
Q 219 731 219 1428 
Q 219 2103 620 2525 
Q 1022 2947 1584 2947 
Q 2006 2947 2278 2723 
Q 2550 2500 2550 2259 
Q 2550 2141 2473 2067 
Q 2397 1994 2259 1994 
Q 2075 1994 1981 2113 
Q 1928 2178 1911 2362 
Q 1894 2547 1784 2644 
Q 1675 2738 1481 2738 
Q 1169 2738 978 2506 
Q 725 2200 725 1697 
Q 725 1184 976 792 
Q 1228 400 1656 400 
Q 1963 400 2206 609 
Q 2378 753 2541 1131 
L 2631 1088 
z
M 1472 50 
L 1660 50 
L 1503 -197 
Q 1700 -247 1797 -365 
Q 1894 -484 1894 -653 
Q 1894 -878 1706 -1048 
Q 1519 -1219 1222 -1219 
Q 1107 -1219 928 -1197 
L 928 -1063 
Q 1016 -1075 1078 -1075 
Q 1238 -1075 1347 -970 
Q 1457 -866 1457 -731 
Q 1457 -638 1385 -569 
Q 1313 -500 1207 -500 
Q 1175 -500 1125 -506 
L 1472 50 
z
" transform="scale(0.015625)"/>
      <path id="TimesNewRomanPSMT-65" d="M 681 1784 
Q 678 1147 991 784 
Q 1303 422 1725 422 
Q 2006 422 2214 576 
Q 2422 731 2563 1106 
L 2659 1044 
Q 2594 616 2278 264 
Q 1963 -88 1488 -88 
Q 972 -88 605 314 
Q 238 716 238 1394 
Q 238 2128 614 2539 
Q 991 2950 1559 2950 
Q 2041 2950 2350 2633 
Q 2659 2316 2659 1784 
L 681 1784 
z
M 681 1966 
L 2006 1966 
Q 1991 2241 1941 2353 
Q 1863 2528 1708 2628 
Q 1553 2728 1384 2728 
Q 1125 2728 920 2526 
Q 716 2325 681 1966 
z
" transform="scale(0.015625)"/>
     </defs>
     <use xlink:href="#TimesNewRomanPSMT-42"/>
     <use xlink:href="#TimesNewRomanPSMT-61" x="66.699219"/>
     <use xlink:href="#TimesNewRomanPSMT-67" x="111.083984"/>
     <use xlink:href="#TimesNewRomanPSMT-61" x="161.083984"/>
     <use xlink:href="#TimesNewRomanPSMT-e7" x="205.46875"/>
     <use xlink:href="#TimesNewRomanPSMT-6f" x="249.853516"/>
     <use xlink:href="#TimesNewRomanPSMT-20" x="299.853516"/>
     <use xlink:href="#TimesNewRomanPSMT-64" x="324.853516"/>
     <use xlink:href="#TimesNewRomanPSMT-65" x="374.853516"/>
     <use xlink:href="#TimesNewRomanPSMT-20" x="419.238281"/>
     <use xlink:href="#TimesNewRomanPSMT-63" x="444.238281"/>
     <use xlink:href="#TimesNewRomanPSMT-61" x="488.623047"/>
     <use xlink:href="#TimesNewRomanPSMT-6e" x="533.007812"/>
     <use xlink:href="#TimesNewRomanPSMT-61" x="583.007812"/>
     <use xlink:href="#TimesNewRomanPSMT-20" x="627.392578"/>
     <use xlink:href="#TimesNewRomanPSMT-28" x="652.392578"/>
     <use xlink:href="#TimesNewRomanPSMT-34" x="685.693359"/>
     <use xlink:href="#TimesNewRomanPSMT-2e" x="735.693359"/>
     <use xlink:href="#TimesNewRomanPSMT-39" x="760.693359"/>
     <use xlink:href="#TimesNewRomanPSMT-30" x="810.693359"/>
     <use xlink:href="#TimesNewRomanPSMT-25" x="860.693359"/>
     <use xlink:href="#TimesNewRomanPSMT-29" x="943.994141"/>
    </g>
   </g>
   <g id="patch_19">
    <path d="M 192.363402 23.267516 
L 346.44224 23.267516 
L 365.191661 82.905343 
" style="fill: none; stroke: #000000; stroke-linecap: round"/>
   </g>
   <g id="text_10">
    <!-- Licor preto (lixívia) (2.30%) -->
    <g transform="translate(28.206562 26.630798) scale(0.14 -0.14)">
     <defs>
      <path id="TimesNewRomanPSMT-4c" d="M 3669 1172 
L 3772 1150 
L 3409 0 
L 128 0 
L 128 116 
L 288 116 
Q 556 116 672 291 
Q 738 391 738 753 
L 738 3488 
Q 738 3884 650 3984 
Q 528 4122 288 4122 
L 128 4122 
L 128 4238 
L 2047 4238 
L 2047 4122 
Q 1709 4125 1573 4059 
Q 1438 3994 1388 3894 
Q 1338 3794 1338 3416 
L 1338 753 
Q 1338 494 1388 397 
Q 1425 331 1503 300 
Q 1581 269 1991 269 
L 2300 269 
Q 2788 269 2984 341 
Q 3181 413 3343 595 
Q 3506 778 3669 1172 
z
" transform="scale(0.015625)"/>
      <path id="TimesNewRomanPSMT-70" d="M -6 2578 
L 875 2934 
L 994 2934 
L 994 2266 
Q 1216 2644 1439 2795 
Q 1663 2947 1909 2947 
Q 2341 2947 2628 2609 
Q 2981 2197 2981 1534 
Q 2981 794 2556 309 
Q 2206 -88 1675 -88 
Q 1444 -88 1275 -22 
Q 1150 25 994 166 
L 994 -706 
Q 994 -1000 1030 -1079 
Q 1066 -1159 1155 -1206 
Q 1244 -1253 1478 -1253 
L 1478 -1369 
L -22 -1369 
L -22 -1253 
L 56 -1253 
Q 228 -1256 350 -1188 
Q 409 -1153 442 -1076 
Q 475 -1000 475 -688 
L 475 2019 
Q 475 2297 450 2372 
Q 425 2447 370 2484 
Q 316 2522 222 2522 
Q 147 2522 31 2478 
L -6 2578 
z
M 994 2081 
L 994 1013 
Q 994 666 1022 556 
Q 1066 375 1236 237 
Q 1406 100 1666 100 
Q 1978 100 2172 344 
Q 2425 663 2425 1241 
Q 2425 1897 2138 2250 
Q 1938 2494 1663 2494 
Q 1513 2494 1366 2419 
Q 1253 2363 994 2081 
z
" transform="scale(0.015625)"/>
      <path id="TimesNewRomanPSMT-78" d="M 84 2863 
L 1431 2863 
L 1431 2747 
Q 1303 2747 1251 2703 
Q 1200 2659 1200 2588 
Q 1200 2513 1309 2356 
Q 1344 2306 1413 2200 
L 1616 1875 
L 1850 2200 
Q 2075 2509 2075 2591 
Q 2075 2656 2022 2701 
Q 1969 2747 1850 2747 
L 1850 2863 
L 2819 2863 
L 2819 2747 
Q 2666 2738 2553 2663 
Q 2400 2556 2134 2200 
L 1744 1678 
L 2456 653 
Q 2719 275 2831 198 
Q 2944 122 3122 113 
L 3122 0 
L 1772 0 
L 1772 113 
Q 1913 113 1991 175 
Q 2050 219 2050 291 
Q 2050 363 1850 653 
L 1431 1266 
L 972 653 
Q 759 369 759 316 
Q 759 241 829 180 
Q 900 119 1041 113 
L 1041 0 
L 106 0 
L 106 113 
Q 219 128 303 191 
Q 422 281 703 653 
L 1303 1450 
L 759 2238 
Q 528 2575 401 2661 
Q 275 2747 84 2747 
L 84 2863 
z
" transform="scale(0.015625)"/>
      <path id="TimesNewRomanPSMT-ed" d="M 1184 2947 
L 1184 647 
Q 1184 378 1225 289 
Q 1266 200 1342 156 
Q 1419 113 1622 113 
L 1622 0 
L 231 0 
L 231 113 
Q 441 113 512 153 
Q 584 194 626 287 
Q 669 381 669 647 
L 669 1750 
Q 669 2216 641 2353 
Q 619 2453 572 2492 
Q 525 2531 444 2531 
Q 356 2531 231 2484 
L 188 2597 
L 1050 2947 
L 1184 2947 
z
M 1558 4344 
L 636 3266 
L 530 3266 
L 858 4344 
L 1558 4344 
z
" transform="scale(0.015625)"/>
      <path id="TimesNewRomanPSMT-76" d="M 53 2863 
L 1400 2863 
L 1400 2747 
L 1313 2747 
Q 1191 2747 1127 2687 
Q 1063 2628 1063 2528 
Q 1063 2419 1128 2269 
L 1794 688 
L 2463 2328 
Q 2534 2503 2534 2594 
Q 2534 2638 2509 2666 
Q 2475 2713 2422 2730 
Q 2369 2747 2206 2747 
L 2206 2863 
L 3141 2863 
L 3141 2747 
Q 2978 2734 2916 2681 
Q 2806 2588 2719 2369 
L 1703 -88 
L 1575 -88 
L 553 2328 
Q 484 2497 421 2570 
Q 359 2644 263 2694 
Q 209 2722 53 2747 
L 53 2863 
z
" transform="scale(0.015625)"/>
      <path id="TimesNewRomanPSMT-32" d="M 2934 816 
L 2638 0 
L 138 0 
L 138 116 
Q 1241 1122 1691 1759 
Q 2141 2397 2141 2925 
Q 2141 3328 1894 3587 
Q 1647 3847 1303 3847 
Q 991 3847 742 3664 
Q 494 3481 375 3128 
L 259 3128 
Q 338 3706 661 4015 
Q 984 4325 1469 4325 
Q 1984 4325 2329 3994 
Q 2675 3663 2675 3213 
Q 2675 2891 2525 2569 
Q 2294 2063 1775 1497 
Q 997 647 803 472 
L 1909 472 
Q 2247 472 2383 497 
Q 2519 522 2628 598 
Q 2738 675 2819 816 
L 2934 816 
z
" transform="scale(0.015625)"/>
     </defs>
     <use xlink:href="#TimesNewRomanPSMT-4c"/>
     <use xlink:href="#TimesNewRomanPSMT-69" x="61.083984"/>
     <use xlink:href="#TimesNewRomanPSMT-63" x="88.867188"/>
     <use xlink:href="#TimesNewRomanPSMT-6f" x="133.251953"/>
     <use xlink:href="#TimesNewRomanPSMT-72" x="183.251953"/>
     <use xlink:href="#TimesNewRomanPSMT-20" x="216.552734"/>
     <use xlink:href="#TimesNewRomanPSMT-70" x="241.552734"/>
     <use xlink:href="#TimesNewRomanPSMT-72" x="291.552734"/>
     <use xlink:href="#TimesNewRomanPSMT-65" x="324.853516"/>
     <use xlink:href="#TimesNewRomanPSMT-74" x="369.238281"/>
     <use xlink:href="#TimesNewRomanPSMT-6f" x="397.021484"/>
     <use xlink:href="#TimesNewRomanPSMT-20" x="447.021484"/>
     <use xlink:href="#TimesNewRomanPSMT-28" x="472.021484"/>
     <use xlink:href="#TimesNewRomanPSMT-6c" x="505.322266"/>
     <use xlink:href="#TimesNewRomanPSMT-69" x="533.105469"/>
     <use xlink:href="#TimesNewRomanPSMT-78" x="560.888672"/>
     <use xlink:href="#TimesNewRomanPSMT-ed" x="610.888672"/>
     <use xlink:href="#TimesNewRomanPSMT-76" x="638.671875"/>
     <use xlink:href="#TimesNewRomanPSMT-69" x="688.671875"/>
     <use xlink:href="#TimesNewRomanPSMT-61" x="716.455078"/>
     <use xlink:href="#TimesNewRomanPSMT-29" x="760.839844"/>
     <use xlink:href="#TimesNewRomanPSMT-20" x="794.140625"/>
     <use xlink:href="#TimesNewRomanPSMT-28" x="819.140625"/>
     <use xlink:href="#TimesNewRomanPSMT-32" x="852.441406"/>
     <use xlink:href="#TimesNewRomanPSMT-2e" x="902.441406"/>
     <use xlink:href="#TimesNewRomanPSMT-33" x="927.441406"/>
     <use xlink:href="#TimesNewRomanPSMT-30" x="977.441406"/>
     <use xlink:href="#TimesNewRomanPSMT-25" x="1027.441406"/>
     <use xlink:href="#TimesNewRomanPSMT-29" x="1110.742188"/>
    </g>
   </g>
   <g id="patch_20">
    <path d="M 192.365106 34.639698 
L 317.436622 34.639698 
L 344.216912 91.128876 
" style="fill: none; stroke: #000000; stroke-linecap: round"/>
   </g>
   <g id="text_11">
    <!-- Nuclear (2.10%) -->
    <g transform="translate(95.078437 38.00298) scale(0.14 -0.14)">
     <defs>
      <path id="TimesNewRomanPSMT-4e" d="M -84 4238 
L 1066 4238 
L 3656 1059 
L 3656 3503 
Q 3656 3894 3569 3991 
Q 3453 4122 3203 4122 
L 3056 4122 
L 3056 4238 
L 4531 4238 
L 4531 4122 
L 4381 4122 
Q 4113 4122 4000 3959 
Q 3931 3859 3931 3503 
L 3931 -69 
L 3819 -69 
L 1025 3344 
L 1025 734 
Q 1025 344 1109 247 
Q 1228 116 1475 116 
L 1625 116 
L 1625 0 
L 150 0 
L 150 116 
L 297 116 
Q 569 116 681 278 
Q 750 378 750 734 
L 750 3681 
Q 566 3897 470 3965 
Q 375 4034 191 4094 
Q 100 4122 -84 4122 
L -84 4238 
z
" transform="scale(0.015625)"/>
     </defs>
     <use xlink:href="#TimesNewRomanPSMT-4e"/>
     <use xlink:href="#TimesNewRomanPSMT-75" x="72.216797"/>
     <use xlink:href="#TimesNewRomanPSMT-63" x="122.216797"/>
     <use xlink:href="#TimesNewRomanPSMT-6c" x="166.601562"/>
     <use xlink:href="#TimesNewRomanPSMT-65" x="194.384766"/>
     <use xlink:href="#TimesNewRomanPSMT-61" x="238.769531"/>
     <use xlink:href="#TimesNewRomanPSMT-72" x="283.154297"/>
     <use xlink:href="#TimesNewRomanPSMT-20" x="316.455078"/>
     <use xlink:href="#TimesNewRomanPSMT-28" x="341.455078"/>
     <use xlink:href="#TimesNewRomanPSMT-32" x="374.755859"/>
     <use xlink:href="#TimesNewRomanPSMT-2e" x="424.755859"/>
     <use xlink:href="#TimesNewRomanPSMT-31" x="449.755859"/>
     <use xlink:href="#TimesNewRomanPSMT-30" x="499.755859"/>
     <use xlink:href="#TimesNewRomanPSMT-25" x="549.755859"/>
     <use xlink:href="#TimesNewRomanPSMT-29" x="633.056641"/>
    </g>
   </g>
   <g id="patch_21">
    <path d="M 192.370878 46.84563 
L 295.050637 46.84563 
L 328.029001 99.955316 
" style="fill: none; stroke: #000000; stroke-linecap: round"/>
   </g>
   <g id="text_12">
    <!-- Importação líquida (1.50%) -->
    <g transform="translate(33.255312 50.208912) scale(0.14 -0.14)">
     <defs>
      <path id="TimesNewRomanPSMT-49" d="M 1975 116 
L 1975 0 
L 159 0 
L 159 116 
L 309 116 
Q 572 116 691 269 
Q 766 369 766 750 
L 766 3488 
Q 766 3809 725 3913 
Q 694 3991 597 4047 
Q 459 4122 309 4122 
L 159 4122 
L 159 4238 
L 1975 4238 
L 1975 4122 
L 1822 4122 
Q 1563 4122 1444 3969 
Q 1366 3869 1366 3488 
L 1366 750 
Q 1366 428 1406 325 
Q 1438 247 1538 191 
Q 1672 116 1822 116 
L 1975 116 
z
" transform="scale(0.015625)"/>
      <path id="TimesNewRomanPSMT-6d" d="M 1050 2338 
Q 1363 2650 1419 2697 
Q 1559 2816 1721 2881 
Q 1884 2947 2044 2947 
Q 2313 2947 2506 2790 
Q 2700 2634 2766 2338 
Q 3088 2713 3309 2830 
Q 3531 2947 3766 2947 
Q 3994 2947 4170 2830 
Q 4347 2713 4450 2447 
Q 4519 2266 4519 1878 
L 4519 647 
Q 4519 378 4559 278 
Q 4591 209 4675 161 
Q 4759 113 4950 113 
L 4950 0 
L 3538 0 
L 3538 113 
L 3597 113 
Q 3781 113 3884 184 
Q 3956 234 3988 344 
Q 4000 397 4000 647 
L 4000 1878 
Q 4000 2228 3916 2372 
Q 3794 2572 3525 2572 
Q 3359 2572 3192 2489 
Q 3025 2406 2788 2181 
L 2781 2147 
L 2788 2013 
L 2788 647 
Q 2788 353 2820 281 
Q 2853 209 2943 161 
Q 3034 113 3253 113 
L 3253 0 
L 1806 0 
L 1806 113 
Q 2044 113 2133 169 
Q 2222 225 2256 338 
Q 2272 391 2272 647 
L 2272 1878 
Q 2272 2228 2169 2381 
Q 2031 2581 1784 2581 
Q 1616 2581 1450 2491 
Q 1191 2353 1050 2181 
L 1050 647 
Q 1050 366 1089 281 
Q 1128 197 1204 155 
Q 1281 113 1516 113 
L 1516 0 
L 100 0 
L 100 113 
Q 297 113 375 155 
Q 453 197 493 289 
Q 534 381 534 647 
L 534 1741 
Q 534 2213 506 2350 
Q 484 2453 437 2492 
Q 391 2531 309 2531 
Q 222 2531 100 2484 
L 53 2597 
L 916 2947 
L 1050 2947 
L 1050 2338 
z
" transform="scale(0.015625)"/>
      <path id="TimesNewRomanPSMT-e3" d="M 1822 413 
Q 1381 72 1269 19 
Q 1100 -59 909 -59 
Q 613 -59 420 144 
Q 228 347 228 678 
Q 228 888 322 1041 
Q 450 1253 767 1440 
Q 1084 1628 1822 1897 
L 1822 2009 
Q 1822 2438 1686 2597 
Q 1550 2756 1291 2756 
Q 1094 2756 978 2650 
Q 859 2544 859 2406 
L 866 2225 
Q 866 2081 792 2003 
Q 719 1925 600 1925 
Q 484 1925 411 2006 
Q 338 2088 338 2228 
Q 338 2497 613 2722 
Q 888 2947 1384 2947 
Q 1766 2947 2009 2819 
Q 2194 2722 2281 2516 
Q 2338 2381 2338 1966 
L 2338 994 
Q 2338 584 2353 492 
Q 2369 400 2405 369 
Q 2441 338 2488 338 
Q 2538 338 2575 359 
Q 2641 400 2828 588 
L 2828 413 
Q 2478 -56 2159 -56 
Q 2006 -56 1915 50 
Q 1825 156 1822 413 
z
M 1822 616 
L 1822 1706 
Q 1350 1519 1213 1441 
Q 966 1303 859 1153 
Q 753 1003 753 825 
Q 753 600 887 451 
Q 1022 303 1197 303 
Q 1434 303 1822 616 
z
M 537 3428 
L 437 3428 
Q 449 3856 615 4047 
Q 781 4238 1024 4238 
Q 1152 4238 1259 4197 
Q 1399 4144 1657 3973 
Q 1915 3803 2040 3803 
Q 2140 3803 2216 3887 
Q 2293 3972 2337 4238 
L 2434 4238 
Q 2437 3947 2357 3776 
Q 2277 3606 2132 3511 
Q 1987 3416 1840 3416 
Q 1593 3416 1227 3666 
Q 1031 3800 962 3828 
Q 893 3856 827 3856 
Q 699 3856 624 3744 
Q 590 3691 537 3428 
z
" transform="scale(0.015625)"/>
      <path id="TimesNewRomanPSMT-71" d="M 2734 2947 
L 2734 -734 
Q 2734 -1009 2771 -1087 
Q 2809 -1166 2889 -1209 
Q 2969 -1253 3200 -1253 
L 3200 -1369 
L 1756 -1369 
L 1756 -1253 
L 1816 -1253 
Q 1991 -1253 2081 -1203 
Q 2144 -1169 2181 -1080 
Q 2219 -991 2219 -734 
L 2219 497 
Q 1934 159 1721 35 
Q 1509 -88 1281 -88 
Q 866 -88 539 290 
Q 213 669 213 1303 
Q 213 2031 644 2489 
Q 1075 2947 1684 2947 
Q 1863 2947 2013 2897 
Q 2163 2847 2281 2747 
Q 2463 2834 2628 2947 
L 2734 2947 
z
M 2219 694 
L 2219 2038 
Q 2219 2272 2158 2406 
Q 2097 2541 1940 2634 
Q 1784 2728 1588 2728 
Q 1238 2728 988 2431 
Q 738 2134 738 1531 
Q 738 953 992 653 
Q 1247 353 1606 353 
Q 1791 353 1934 433 
Q 2078 513 2219 694 
z
" transform="scale(0.015625)"/>
     </defs>
     <use xlink:href="#TimesNewRomanPSMT-49"/>
     <use xlink:href="#TimesNewRomanPSMT-6d" x="33.300781"/>
     <use xlink:href="#TimesNewRomanPSMT-70" x="111.083984"/>
     <use xlink:href="#TimesNewRomanPSMT-6f" x="161.083984"/>
     <use xlink:href="#TimesNewRomanPSMT-72" x="211.083984"/>
     <use xlink:href="#TimesNewRomanPSMT-74" x="244.384766"/>
     <use xlink:href="#TimesNewRomanPSMT-61" x="272.167969"/>
     <use xlink:href="#TimesNewRomanPSMT-e7" x="316.552734"/>
     <use xlink:href="#TimesNewRomanPSMT-e3" x="360.9375"/>
     <use xlink:href="#TimesNewRomanPSMT-6f" x="405.322266"/>
     <use xlink:href="#TimesNewRomanPSMT-20" x="455.322266"/>
     <use xlink:href="#TimesNewRomanPSMT-6c" x="480.322266"/>
     <use xlink:href="#TimesNewRomanPSMT-ed" x="508.105469"/>
     <use xlink:href="#TimesNewRomanPSMT-71" x="535.888672"/>
     <use xlink:href="#TimesNewRomanPSMT-75" x="585.888672"/>
     <use xlink:href="#TimesNewRomanPSMT-69" x="635.888672"/>
     <use xlink:href="#TimesNewRomanPSMT-64" x="663.671875"/>
     <use xlink:href="#TimesNewRomanPSMT-61" x="713.671875"/>
     <use xlink:href="#TimesNewRomanPSMT-20" x="758.056641"/>
     <use xlink:href="#TimesNewRomanPSMT-28" x="783.056641"/>
     <use xlink:href="#TimesNewRomanPSMT-31" x="816.357422"/>
     <use xlink:href="#TimesNewRomanPSMT-2e" x="866.357422"/>
     <use xlink:href="#TimesNewRomanPSMT-35" x="891.357422"/>
     <use xlink:href="#TimesNewRomanPSMT-30" x="941.357422"/>
     <use xlink:href="#TimesNewRomanPSMT-25" x="991.357422"/>
     <use xlink:href="#TimesNewRomanPSMT-29" x="1074.658203"/>
    </g>
   </g>
   <g id="patch_22">
    <path d="M 192.364149 58.89332 
L 277.544348 58.89332 
L 315.369729 108.667327 
" style="fill: none; stroke: #000000; stroke-linecap: round"/>
   </g>
   <g id="text_13">
    <!-- Outras não renováveis* (1.50%) -->
    <g transform="translate(7.2 62.256601) scale(0.14 -0.14)">
     <defs>
      <path id="TimesNewRomanPSMT-4f" d="M 2341 4334 
Q 3166 4334 3770 3707 
Q 4375 3081 4375 2144 
Q 4375 1178 3765 540 
Q 3156 -97 2291 -97 
Q 1416 -97 820 525 
Q 225 1147 225 2134 
Q 225 3144 913 3781 
Q 1509 4334 2341 4334 
z
M 2281 4106 
Q 1713 4106 1369 3684 
Q 941 3159 941 2147 
Q 941 1109 1384 550 
Q 1725 125 2284 125 
Q 2881 125 3270 590 
Q 3659 1056 3659 2059 
Q 3659 3147 3231 3681 
Q 2888 4106 2281 4106 
z
" transform="scale(0.015625)"/>
      <path id="TimesNewRomanPSMT-2a" d="M 1544 3263 
Q 1531 3478 1456 3691 
Q 1350 3997 1350 4113 
Q 1350 4275 1426 4359 
Q 1503 4444 1616 4444 
Q 1713 4444 1784 4359 
Q 1856 4275 1856 4119 
Q 1856 3978 1773 3726 
Q 1691 3475 1672 3263 
Q 1844 3372 1981 3528 
Q 2194 3775 2297 3834 
Q 2400 3894 2506 3894 
Q 2609 3894 2679 3823 
Q 2750 3753 2750 3656 
Q 2750 3541 2647 3450 
Q 2544 3359 2131 3269 
Q 1891 3216 1731 3147 
Q 1894 3063 2128 3019 
Q 2506 2950 2623 2847 
Q 2741 2744 2741 2622 
Q 2741 2528 2670 2459 
Q 2600 2391 2506 2391 
Q 2413 2391 2298 2456 
Q 2184 2522 1991 2750 
Q 1863 2903 1672 3038 
Q 1678 2859 1744 2650 
Q 1856 2281 1856 2147 
Q 1856 2022 1781 1936 
Q 1706 1850 1622 1850 
Q 1506 1850 1413 1941 
Q 1347 2006 1347 2150 
Q 1347 2300 1419 2511 
Q 1491 2722 1509 2801 
Q 1528 2881 1544 3038 
Q 1359 2916 1222 2766 
Q 994 2509 878 2441 
Q 797 2391 709 2391 
Q 603 2391 528 2462 
Q 453 2534 453 2622 
Q 453 2700 517 2786 
Q 581 2872 709 2928 
Q 794 2966 1094 3028 
Q 1288 3069 1472 3147 
Q 1303 3231 1069 3278 
Q 684 3359 594 3425 
Q 453 3528 453 3675 
Q 453 3759 523 3829 
Q 594 3900 688 3900 
Q 791 3900 906 3834 
Q 1022 3769 1194 3570 
Q 1366 3372 1544 3263 
z
" transform="scale(0.015625)"/>
     </defs>
     <use xlink:href="#TimesNewRomanPSMT-4f"/>
     <use xlink:href="#TimesNewRomanPSMT-75" x="72.216797"/>
     <use xlink:href="#TimesNewRomanPSMT-74" x="122.216797"/>
     <use xlink:href="#TimesNewRomanPSMT-72" x="150"/>
     <use xlink:href="#TimesNewRomanPSMT-61" x="183.300781"/>
     <use xlink:href="#TimesNewRomanPSMT-73" x="227.685547"/>
     <use xlink:href="#TimesNewRomanPSMT-20" x="266.601562"/>
     <use xlink:href="#TimesNewRomanPSMT-6e" x="291.601562"/>
     <use xlink:href="#TimesNewRomanPSMT-e3" x="341.601562"/>
     <use xlink:href="#TimesNewRomanPSMT-6f" x="385.986328"/>
     <use xlink:href="#TimesNewRomanPSMT-20" x="435.986328"/>
     <use xlink:href="#TimesNewRomanPSMT-72" x="460.986328"/>
     <use xlink:href="#TimesNewRomanPSMT-65" x="494.287109"/>
     <use xlink:href="#TimesNewRomanPSMT-6e" x="538.671875"/>
     <use xlink:href="#TimesNewRomanPSMT-6f" x="588.671875"/>
     <use xlink:href="#TimesNewRomanPSMT-76" x="638.671875"/>
     <use xlink:href="#TimesNewRomanPSMT-e1" x="688.671875"/>
     <use xlink:href="#TimesNewRomanPSMT-76" x="733.056641"/>
     <use xlink:href="#TimesNewRomanPSMT-65" x="783.056641"/>
     <use xlink:href="#TimesNewRomanPSMT-69" x="827.441406"/>
     <use xlink:href="#TimesNewRomanPSMT-73" x="855.224609"/>
     <use xlink:href="#TimesNewRomanPSMT-2a" x="894.140625"/>
     <use xlink:href="#TimesNewRomanPSMT-20" x="944.140625"/>
     <use xlink:href="#TimesNewRomanPSMT-28" x="969.140625"/>
     <use xlink:href="#TimesNewRomanPSMT-31" x="1002.441406"/>
     <use xlink:href="#TimesNewRomanPSMT-2e" x="1052.441406"/>
     <use xlink:href="#TimesNewRomanPSMT-35" x="1077.441406"/>
     <use xlink:href="#TimesNewRomanPSMT-30" x="1127.441406"/>
     <use xlink:href="#TimesNewRomanPSMT-25" x="1177.441406"/>
     <use xlink:href="#TimesNewRomanPSMT-29" x="1260.742188"/>
    </g>
   </g>
   <g id="patch_23">
    <path d="M 192.366304 71.576957 
L 262.294055 71.576957 
L 304.341828 117.839208 
" style="fill: none; stroke: #000000; stroke-linecap: round"/>
   </g>
   <g id="text_14">
    <!-- Carvão vapor (1.30%) -->
    <g transform="translate(63.578437 74.940238) scale(0.14 -0.14)">
     <defs>
      <path id="TimesNewRomanPSMT-43" d="M 3853 4334 
L 3950 2894 
L 3853 2894 
Q 3659 3541 3300 3825 
Q 2941 4109 2438 4109 
Q 2016 4109 1675 3895 
Q 1334 3681 1139 3212 
Q 944 2744 944 2047 
Q 944 1472 1128 1050 
Q 1313 628 1683 403 
Q 2053 178 2528 178 
Q 2941 178 3256 354 
Q 3572 531 3950 1056 
L 4047 994 
Q 3728 428 3303 165 
Q 2878 -97 2294 -97 
Q 1241 -97 663 684 
Q 231 1266 231 2053 
Q 231 2688 515 3219 
Q 800 3750 1298 4042 
Q 1797 4334 2388 4334 
Q 2847 4334 3294 4109 
Q 3425 4041 3481 4041 
Q 3566 4041 3628 4100 
Q 3709 4184 3744 4334 
L 3853 4334 
z
" transform="scale(0.015625)"/>
     </defs>
     <use xlink:href="#TimesNewRomanPSMT-43"/>
     <use xlink:href="#TimesNewRomanPSMT-61" x="66.699219"/>
     <use xlink:href="#TimesNewRomanPSMT-72" x="111.083984"/>
     <use xlink:href="#TimesNewRomanPSMT-76" x="144.384766"/>
     <use xlink:href="#TimesNewRomanPSMT-e3" x="194.384766"/>
     <use xlink:href="#TimesNewRomanPSMT-6f" x="238.769531"/>
     <use xlink:href="#TimesNewRomanPSMT-20" x="288.769531"/>
     <use xlink:href="#TimesNewRomanPSMT-76" x="313.769531"/>
     <use xlink:href="#TimesNewRomanPSMT-61" x="363.769531"/>
     <use xlink:href="#TimesNewRomanPSMT-70" x="408.154297"/>
     <use xlink:href="#TimesNewRomanPSMT-6f" x="458.154297"/>
     <use xlink:href="#TimesNewRomanPSMT-72" x="508.154297"/>
     <use xlink:href="#TimesNewRomanPSMT-20" x="541.455078"/>
     <use xlink:href="#TimesNewRomanPSMT-28" x="566.455078"/>
     <use xlink:href="#TimesNewRomanPSMT-31" x="599.755859"/>
     <use xlink:href="#TimesNewRomanPSMT-2e" x="649.755859"/>
     <use xlink:href="#TimesNewRomanPSMT-33" x="674.755859"/>
     <use xlink:href="#TimesNewRomanPSMT-30" x="724.755859"/>
     <use xlink:href="#TimesNewRomanPSMT-25" x="774.755859"/>
     <use xlink:href="#TimesNewRomanPSMT-29" x="858.056641"/>
    </g>
   </g>
   <g id="patch_24">
    <path d="M 192.36372 82.45254 
L 251.128292 82.45254 
L 296.267563 125.703637 
" style="fill: none; stroke: #000000; stroke-linecap: round"/>
   </g>
   <g id="text_15">
    <!-- Outras renováveis** (0.90%) -->
    <g transform="translate(23.914687 85.815821) scale(0.14 -0.14)">
     <use xlink:href="#TimesNewRomanPSMT-4f"/>
     <use xlink:href="#TimesNewRomanPSMT-75" x="72.216797"/>
     <use xlink:href="#TimesNewRomanPSMT-74" x="122.216797"/>
     <use xlink:href="#TimesNewRomanPSMT-72" x="150"/>
     <use xlink:href="#TimesNewRomanPSMT-61" x="183.300781"/>
     <use xlink:href="#TimesNewRomanPSMT-73" x="227.685547"/>
     <use xlink:href="#TimesNewRomanPSMT-20" x="266.601562"/>
     <use xlink:href="#TimesNewRomanPSMT-72" x="291.601562"/>
     <use xlink:href="#TimesNewRomanPSMT-65" x="324.902344"/>
     <use xlink:href="#TimesNewRomanPSMT-6e" x="369.287109"/>
     <use xlink:href="#TimesNewRomanPSMT-6f" x="419.287109"/>
     <use xlink:href="#TimesNewRomanPSMT-76" x="469.287109"/>
     <use xlink:href="#TimesNewRomanPSMT-e1" x="519.287109"/>
     <use xlink:href="#TimesNewRomanPSMT-76" x="563.671875"/>
     <use xlink:href="#TimesNewRomanPSMT-65" x="613.671875"/>
     <use xlink:href="#TimesNewRomanPSMT-69" x="658.056641"/>
     <use xlink:href="#TimesNewRomanPSMT-73" x="685.839844"/>
     <use xlink:href="#TimesNewRomanPSMT-2a" x="724.755859"/>
     <use xlink:href="#TimesNewRomanPSMT-2a" x="774.755859"/>
     <use xlink:href="#TimesNewRomanPSMT-20" x="824.755859"/>
     <use xlink:href="#TimesNewRomanPSMT-28" x="849.755859"/>
     <use xlink:href="#TimesNewRomanPSMT-30" x="883.056641"/>
     <use xlink:href="#TimesNewRomanPSMT-2e" x="933.056641"/>
     <use xlink:href="#TimesNewRomanPSMT-39" x="958.056641"/>
     <use xlink:href="#TimesNewRomanPSMT-30" x="1008.056641"/>
     <use xlink:href="#TimesNewRomanPSMT-25" x="1058.056641"/>
     <use xlink:href="#TimesNewRomanPSMT-29" x="1141.357422"/>
    </g>
   </g>
   <g id="patch_25">
    <path d="M 192.367993 90.297823 
L 243.957632 90.297823 
L 291.082264 131.376774 
" style="fill: none; stroke: #000000; stroke-linecap: round"/>
   </g>
   <g id="text_16">
    <!-- Óleo diesel (0.60%) -->
    <g transform="translate(76.012187 94.951729) scale(0.14 -0.14)">
     <defs>
      <path id="TimesNewRomanPSMT-d3" d="M 2341 4334 
Q 3166 4334 3770 3707 
Q 4375 3081 4375 2144 
Q 4375 1178 3765 540 
Q 3156 -97 2291 -97 
Q 1416 -97 820 525 
Q 225 1147 225 2134 
Q 225 3144 913 3781 
Q 1509 4334 2341 4334 
z
M 2281 4106 
Q 1713 4106 1369 3684 
Q 941 3159 941 2147 
Q 941 1109 1384 550 
Q 1725 125 2284 125 
Q 2881 125 3270 590 
Q 3659 1056 3659 2059 
Q 3659 3147 3231 3681 
Q 2888 4106 2281 4106 
z
M 2990 5624 
L 2068 4546 
L 1962 4546 
L 2290 5624 
L 2990 5624 
z
" transform="scale(0.015625)"/>
     </defs>
     <use xlink:href="#TimesNewRomanPSMT-d3"/>
     <use xlink:href="#TimesNewRomanPSMT-6c" x="72.216797"/>
     <use xlink:href="#TimesNewRomanPSMT-65" x="100"/>
     <use xlink:href="#TimesNewRomanPSMT-6f" x="144.384766"/>
     <use xlink:href="#TimesNewRomanPSMT-20" x="194.384766"/>
     <use xlink:href="#TimesNewRomanPSMT-64" x="219.384766"/>
     <use xlink:href="#TimesNewRomanPSMT-69" x="269.384766"/>
     <use xlink:href="#TimesNewRomanPSMT-65" x="297.167969"/>
     <use xlink:href="#TimesNewRomanPSMT-73" x="341.552734"/>
     <use xlink:href="#TimesNewRomanPSMT-65" x="380.46875"/>
     <use xlink:href="#TimesNewRomanPSMT-6c" x="424.853516"/>
     <use xlink:href="#TimesNewRomanPSMT-20" x="452.636719"/>
     <use xlink:href="#TimesNewRomanPSMT-28" x="477.636719"/>
     <use xlink:href="#TimesNewRomanPSMT-30" x="510.9375"/>
     <use xlink:href="#TimesNewRomanPSMT-2e" x="560.9375"/>
     <use xlink:href="#TimesNewRomanPSMT-36" x="585.9375"/>
     <use xlink:href="#TimesNewRomanPSMT-30" x="635.9375"/>
     <use xlink:href="#TimesNewRomanPSMT-25" x="685.9375"/>
     <use xlink:href="#TimesNewRomanPSMT-29" x="769.238281"/>
    </g>
   </g>
  </g>
 </g>
</svg>
